{"glyphs":{"0":{"ha":750,"x_min":83,"x_max":661,"o":"m 372 617 q 401 604 389 617 q 414 575 414 592 l 414 404 q 401 375 414 388 q 372 363 389 363 q 343 375 355 363 q 331 404 331 388 l 331 575 q 343 604 331 592 q 372 617 355 617 m 165 688 l 165 296 l 310 151 l 436 151 l 579 293 l 579 688 l 432 833 l 313 833 l 165 688 m 96 733 l 268 904 q 297 917 278 917 l 449 917 q 478 904 465 917 l 649 733 q 661 704 661 723 l 661 276 q 649 247 661 257 l 482 81 q 453 68 469 68 l 294 68 q 265 81 275 68 l 96 250 q 83 279 83 263 l 83 704 q 96 733 83 724 z "},"1":{"ha":750,"x_min":139,"x_max":414,"o":"m 346 900 q 374 914 360 914 q 393 911 388 914 q 414 872 414 903 l 414 69 l 331 69 l 331 769 l 197 633 l 139 688 l 346 900 z "},"2":{"ha":750,"x_min":79,"x_max":661,"o":"m 165 661 l 83 661 l 83 706 q 96 735 83 722 l 264 904 q 293 917 276 917 l 535 917 q 564 904 551 917 l 649 819 q 661 790 661 807 l 661 615 q 649 586 661 599 l 222 150 l 661 150 l 661 67 l 121 67 q 92 79 104 67 q 79 108 79 92 q 92 138 79 125 l 579 632 l 579 774 l 519 833 l 310 833 l 165 689 l 165 661 z "},"3":{"ha":750,"x_min":83,"x_max":661,"o":"m 165 833 l 165 917 l 661 917 l 661 788 q 649 758 661 771 l 464 574 q 478 565 472 572 l 647 396 q 660 367 660 383 l 660 274 q 647 244 660 257 l 485 82 q 456 69 472 69 l 204 69 q 175 82 188 69 l 83 174 l 142 232 l 221 153 l 442 153 l 579 290 l 579 349 l 435 494 l 367 494 q 338 507 350 494 q 325 536 325 519 q 338 565 325 553 l 579 804 l 579 833 l 165 833 z "},"4":{"ha":750,"x_min":83,"x_max":661,"o":"m 579 417 l 661 417 l 661 339 l 579 339 l 579 35 l 496 35 l 496 339 l 125 339 q 96 351 108 339 q 83 381 83 364 l 83 536 q 96 565 83 553 l 429 904 q 458 917 439 917 l 579 917 l 579 417 m 496 417 l 496 833 l 476 833 l 163 515 l 163 417 l 496 417 z "},"5":{"ha":750,"x_min":83,"x_max":661,"o":"m 661 917 l 661 833 l 165 833 l 165 663 l 453 663 q 482 650 469 663 l 649 483 q 661 454 661 474 l 661 279 q 649 250 661 263 l 481 82 q 451 69 471 69 l 88 69 l 88 153 l 436 153 l 579 297 l 579 438 l 438 579 l 83 579 l 83 917 l 661 917 z "},"6":{"ha":750,"x_min":83,"x_max":661,"o":"m 83 258 l 83 260 l 83 701 q 96 731 83 718 l 294 929 l 354 871 l 168 685 l 168 456 l 272 560 q 301 572 285 572 l 454 572 q 483 560 471 572 l 649 392 q 661 363 661 379 l 661 263 q 649 233 661 246 l 476 61 q 447 49 464 49 l 296 49 q 267 61 279 49 l 96 231 l 83 258 m 168 342 l 168 278 l 313 132 l 431 132 l 578 281 l 578 350 l 436 493 l 318 493 l 168 342 z "},"7":{"ha":750,"x_min":83,"x_max":661,"o":"m 331 68 l 249 68 l 249 463 q 261 492 249 482 l 578 808 l 578 833 l 83 833 l 83 917 l 661 917 l 661 792 q 649 763 661 773 l 331 444 l 331 68 z "},"8":{"ha":750,"x_min":83,"x_max":661,"o":"m 178 810 l 258 901 q 289 915 270 915 l 454 915 q 483 904 472 915 l 564 821 q 576 793 576 808 l 576 619 l 563 592 l 513 544 l 651 396 q 661 368 661 383 l 661 269 q 649 243 661 256 l 481 78 q 454 68 471 68 l 288 68 q 258 78 268 68 l 96 243 l 83 271 l 83 369 q 97 396 83 380 l 233 542 l 179 589 q 165 619 165 601 l 165 785 q 178 810 165 797 m 167 353 l 167 288 l 304 144 l 438 144 l 581 289 l 581 353 l 438 504 l 310 504 l 167 353 m 249 769 l 249 636 l 308 582 l 439 582 l 494 636 l 494 778 l 438 836 l 307 836 l 249 769 z "},"9":{"ha":750,"x_min":83,"x_max":661,"o":"m 579 603 l 397 421 q 368 408 388 408 l 204 408 q 175 421 188 408 l 96 500 q 83 529 83 510 l 83 706 q 96 735 83 724 l 265 904 q 294 917 275 917 l 535 917 q 564 904 553 917 l 649 818 q 661 789 661 806 l 661 194 q 649 165 661 178 l 538 54 l 479 113 l 579 210 l 579 603 m 579 717 l 579 774 l 518 833 l 311 833 l 167 689 l 167 546 l 221 492 l 351 492 l 579 717 z "},"Ə":{"ha":750,"x_min":46,"x_max":414,"o":"m 46 0 l 46 926 l 414 926 l 414 0 l 46 0 m 92 46 l 368 46 l 368 880 l 92 880 l 92 46 z "},"Ɛ":{"ha":750,"x_min":46,"x_max":414,"o":"m 46 0 l 46 926 l 414 926 l 414 0 l 46 0 m 92 46 l 368 46 l 368 880 l 92 880 l 92 46 z "},"Ƒ":{"ha":750,"x_min":46,"x_max":414,"o":"m 46 0 l 46 926 l 414 926 l 414 0 l 46 0 m 92 46 l 368 46 l 368 880 l 92 880 l 92 46 z "},"˭":{"ha":750,"x_min":46,"x_max":414,"o":"m 46 0 l 46 926 l 414 926 l 414 0 l 46 0 m 92 46 l 368 46 l 368 880 l 92 880 l 92 46 z "},"͸":{"ha":750,"x_min":46,"x_max":414,"o":"m 46 0 l 46 926 l 414 926 l 414 0 l 46 0 m 92 46 l 368 46 l 368 880 l 92 880 l 92 46 z "},"͹":{"ha":750,"x_min":46,"x_max":414,"o":"m 46 0 l 46 926 l 414 926 l 414 0 l 46 0 m 92 46 l 368 46 l 368 880 l 92 880 l 92 46 z "},"ͺ":{"ha":750,"x_min":46,"x_max":414,"o":"m 46 0 l 46 926 l 414 926 l 414 0 l 46 0 m 92 46 l 368 46 l 368 880 l 92 880 l 92 46 z "},";":{"ha":750,"x_min":46,"x_max":414,"o":"m 46 0 l 46 926 l 414 926 l 414 0 l 46 0 m 92 46 l 368 46 l 368 880 l 92 880 l 92 46 z "},"Ṃ":{"ha":750,"x_min":46,"x_max":414,"o":"m 46 0 l 46 926 l 414 926 l 414 0 l 46 0 m 92 46 l 368 46 l 368 880 l 92 880 l 92 46 z "},"ṃ":{"ha":750,"x_min":46,"x_max":414,"o":"m 46 0 l 46 926 l 414 926 l 414 0 l 46 0 m 92 46 l 368 46 l 368 880 l 92 880 l 92 46 z "},"‣":{"ha":750,"x_min":46,"x_max":414,"o":"m 46 0 l 46 926 l 414 926 l 414 0 l 46 0 m 92 46 l 368 46 l 368 880 l 92 880 l 92 46 z "},"․":{"ha":750,"x_min":46,"x_max":414,"o":"m 46 0 l 46 926 l 414 926 l 414 0 l 46 0 m 92 46 l 368 46 l 368 880 l 92 880 l 92 46 z "},"‥":{"ha":750,"x_min":46,"x_max":414,"o":"m 46 0 l 46 926 l 414 926 l 414 0 l 46 0 m 92 46 l 368 46 l 368 880 l 92 880 l 92 46 z "},"‱":{"ha":750,"x_min":46,"x_max":414,"o":"m 46 0 l 46 926 l 414 926 l 414 0 l 46 0 m 92 46 l 368 46 l 368 880 l 92 880 l 92 46 z "},"‽":{"ha":750,"x_min":46,"x_max":414,"o":"m 46 0 l 46 926 l 414 926 l 414 0 l 46 0 m 92 46 l 368 46 l 368 880 l 92 880 l 92 46 z "},"⁌":{"ha":750,"x_min":46,"x_max":414,"o":"m 46 0 l 46 926 l 414 926 l 414 0 l 46 0 m 92 46 l 368 46 l 368 880 l 92 880 l 92 46 z "},"⁍":{"ha":750,"x_min":46,"x_max":414,"o":"m 46 0 l 46 926 l 414 926 l 414 0 l 46 0 m 92 46 l 368 46 l 368 880 l 92 880 l 92 46 z "},"⁏":{"ha":750,"x_min":46,"x_max":414,"o":"m 46 0 l 46 926 l 414 926 l 414 0 l 46 0 m 92 46 l 368 46 l 368 880 l 92 880 l 92 46 z "},"⁐":{"ha":750,"x_min":46,"x_max":414,"o":"m 46 0 l 46 926 l 414 926 l 414 0 l 46 0 m 92 46 l 368 46 l 368 880 l 92 880 l 92 46 z "},"⁽":{"ha":750,"x_min":46,"x_max":414,"o":"m 46 0 l 46 926 l 414 926 l 414 0 l 46 0 m 92 46 l 368 46 l 368 880 l 92 880 l 92 46 z "},"⁾":{"ha":750,"x_min":46,"x_max":414,"o":"m 46 0 l 46 926 l 414 926 l 414 0 l 46 0 m 92 46 l 368 46 l 368 880 l 92 880 l 92 46 z "},"₥":{"ha":750,"x_min":46,"x_max":414,"o":"m 46 0 l 46 926 l 414 926 l 414 0 l 46 0 m 92 46 l 368 46 l 368 880 l 92 880 l 92 46 z "},"₦":{"ha":750,"x_min":46,"x_max":414,"o":"m 46 0 l 46 926 l 414 926 l 414 0 l 46 0 m 92 46 l 368 46 l 368 880 l 92 880 l 92 46 z "},"₨":{"ha":750,"x_min":46,"x_max":414,"o":"m 46 0 l 46 926 l 414 926 l 414 0 l 46 0 m 92 46 l 368 46 l 368 880 l 92 880 l 92 46 z "},"₩":{"ha":750,"x_min":46,"x_max":414,"o":"m 46 0 l 46 926 l 414 926 l 414 0 l 46 0 m 92 46 l 368 46 l 368 880 l 92 880 l 92 46 z "},"₫":{"ha":750,"x_min":46,"x_max":414,"o":"m 46 0 l 46 926 l 414 926 l 414 0 l 46 0 m 92 46 l 368 46 l 368 880 l 92 880 l 92 46 z "},"℔":{"ha":750,"x_min":46,"x_max":414,"o":"m 46 0 l 46 926 l 414 926 l 414 0 l 46 0 m 92 46 l 368 46 l 368 880 l 92 880 l 92 46 z "},"ℕ":{"ha":750,"x_min":46,"x_max":414,"o":"m 46 0 l 46 926 l 414 926 l 414 0 l 46 0 m 92 46 l 368 46 l 368 880 l 92 880 l 92 46 z "},"℣":{"ha":750,"x_min":46,"x_max":414,"o":"m 46 0 l 46 926 l 414 926 l 414 0 l 46 0 m 92 46 l 368 46 l 368 880 l 92 880 l 92 46 z "},"ℤ":{"ha":750,"x_min":46,"x_max":414,"o":"m 46 0 l 46 926 l 414 926 l 414 0 l 46 0 m 92 46 l 368 46 l 368 880 l 92 880 l 92 46 z "},"℥":{"ha":750,"x_min":46,"x_max":414,"o":"m 46 0 l 46 926 l 414 926 l 414 0 l 46 0 m 92 46 l 368 46 l 368 880 l 92 880 l 92 46 z "},"ⅺ":{"ha":750,"x_min":46,"x_max":414,"o":"m 46 0 l 46 926 l 414 926 l 414 0 l 46 0 m 92 46 l 368 46 l 368 880 l 92 880 l 92 46 z "},"ⅻ":{"ha":750,"x_min":46,"x_max":414,"o":"m 46 0 l 46 926 l 414 926 l 414 0 l 46 0 m 92 46 l 368 46 l 368 880 l 92 880 l 92 46 z "},"≣":{"ha":750,"x_min":46,"x_max":414,"o":"m 46 0 l 46 926 l 414 926 l 414 0 l 46 0 m 92 46 l 368 46 l 368 880 l 92 880 l 92 46 z "},"⊄":{"ha":750,"x_min":46,"x_max":414,"o":"m 46 0 l 46 926 l 414 926 l 414 0 l 46 0 m 92 46 l 368 46 l 368 880 l 92 880 l 92 46 z "},"⊅":{"ha":750,"x_min":46,"x_max":414,"o":"m 46 0 l 46 926 l 414 926 l 414 0 l 46 0 m 92 46 l 368 46 l 368 880 l 92 880 l 92 46 z "},"⋇":{"ha":750,"x_min":46,"x_max":414,"o":"m 46 0 l 46 926 l 414 926 l 414 0 l 46 0 m 92 46 l 368 46 l 368 880 l 92 880 l 92 46 z "},"⋋":{"ha":750,"x_min":46,"x_max":414,"o":"m 46 0 l 46 926 l 414 926 l 414 0 l 46 0 m 92 46 l 368 46 l 368 880 l 92 880 l 92 46 z "},"⋌":{"ha":750,"x_min":46,"x_max":414,"o":"m 46 0 l 46 926 l 414 926 l 414 0 l 46 0 m 92 46 l 368 46 l 368 880 l 92 880 l 92 46 z "},"⋍":{"ha":750,"x_min":46,"x_max":414,"o":"m 46 0 l 46 926 l 414 926 l 414 0 l 46 0 m 92 46 l 368 46 l 368 880 l 92 880 l 92 46 z "},"⌨":{"ha":750,"x_min":46,"x_max":414,"o":"m 46 0 l 46 926 l 414 926 l 414 0 l 46 0 m 92 46 l 368 46 l 368 880 l 92 880 l 92 46 z "},"〈":{"ha":750,"x_min":46,"x_max":414,"o":"m 46 0 l 46 926 l 414 926 l 414 0 l 46 0 m 92 46 l 368 46 l 368 880 l 92 880 l 92 46 z "},"〉":{"ha":750,"x_min":46,"x_max":414,"o":"m 46 0 l 46 926 l 414 926 l 414 0 l 46 0 m 92 46 l 368 46 l 368 880 l 92 880 l 92 46 z "},"▭":{"ha":750,"x_min":46,"x_max":414,"o":"m 46 0 l 46 926 l 414 926 l 414 0 l 46 0 m 92 46 l 368 46 l 368 880 l 92 880 l 92 46 z "},"▯":{"ha":750,"x_min":46,"x_max":414,"o":"m 46 0 l 46 926 l 414 926 l 414 0 l 46 0 m 92 46 l 368 46 l 368 880 l 92 880 l 92 46 z "},"▰":{"ha":750,"x_min":46,"x_max":414,"o":"m 46 0 l 46 926 l 414 926 l 414 0 l 46 0 m 92 46 l 368 46 l 368 880 l 92 880 l 92 46 z "},"▱":{"ha":750,"x_min":46,"x_max":414,"o":"m 46 0 l 46 926 l 414 926 l 414 0 l 46 0 m 92 46 l 368 46 l 368 880 l 92 880 l 92 46 z "},"▵":{"ha":750,"x_min":46,"x_max":414,"o":"m 46 0 l 46 926 l 414 926 l 414 0 l 46 0 m 92 46 l 368 46 l 368 880 l 92 880 l 92 46 z "},"▷":{"ha":750,"x_min":46,"x_max":414,"o":"m 46 0 l 46 926 l 414 926 l 414 0 l 46 0 m 92 46 l 368 46 l 368 880 l 92 880 l 92 46 z "},"▸":{"ha":750,"x_min":46,"x_max":414,"o":"m 46 0 l 46 926 l 414 926 l 414 0 l 46 0 m 92 46 l 368 46 l 368 880 l 92 880 l 92 46 z "},"▹":{"ha":750,"x_min":46,"x_max":414,"o":"m 46 0 l 46 926 l 414 926 l 414 0 l 46 0 m 92 46 l 368 46 l 368 880 l 92 880 l 92 46 z "},"▻":{"ha":750,"x_min":46,"x_max":414,"o":"m 46 0 l 46 926 l 414 926 l 414 0 l 46 0 m 92 46 l 368 46 l 368 880 l 92 880 l 92 46 z "},"◅":{"ha":750,"x_min":46,"x_max":414,"o":"m 46 0 l 46 926 l 414 926 l 414 0 l 46 0 m 92 46 l 368 46 l 368 880 l 92 880 l 92 46 z "},"◇":{"ha":750,"x_min":46,"x_max":414,"o":"m 46 0 l 46 926 l 414 926 l 414 0 l 46 0 m 92 46 l 368 46 l 368 880 l 92 880 l 92 46 z "},"◈":{"ha":750,"x_min":46,"x_max":414,"o":"m 46 0 l 46 926 l 414 926 l 414 0 l 46 0 m 92 46 l 368 46 l 368 880 l 92 880 l 92 46 z "},"◉":{"ha":750,"x_min":46,"x_max":414,"o":"m 46 0 l 46 926 l 414 926 l 414 0 l 46 0 m 92 46 l 368 46 l 368 880 l 92 880 l 92 46 z "},"◌":{"ha":750,"x_min":46,"x_max":414,"o":"m 46 0 l 46 926 l 414 926 l 414 0 l 46 0 m 92 46 l 368 46 l 368 880 l 92 880 l 92 46 z "},"◍":{"ha":750,"x_min":46,"x_max":414,"o":"m 46 0 l 46 926 l 414 926 l 414 0 l 46 0 m 92 46 l 368 46 l 368 880 l 92 880 l 92 46 z "},"◎":{"ha":750,"x_min":46,"x_max":414,"o":"m 46 0 l 46 926 l 414 926 l 414 0 l 46 0 m 92 46 l 368 46 l 368 880 l 92 880 l 92 46 z "},"☽":{"ha":750,"x_min":46,"x_max":414,"o":"m 46 0 l 46 926 l 414 926 l 414 0 l 46 0 m 92 46 l 368 46 l 368 880 l 92 880 l 92 46 z "},"☾":{"ha":750,"x_min":46,"x_max":414,"o":"m 46 0 l 46 926 l 414 926 l 414 0 l 46 0 m 92 46 l 368 46 l 368 880 l 92 880 l 92 46 z "},"☿":{"ha":750,"x_min":46,"x_max":414,"o":"m 46 0 l 46 926 l 414 926 l 414 0 l 46 0 m 92 46 l 368 46 l 368 880 l 92 880 l 92 46 z "},"⚒":{"ha":750,"x_min":46,"x_max":414,"o":"m 46 0 l 46 926 l 414 926 l 414 0 l 46 0 m 92 46 l 368 46 l 368 880 l 92 880 l 92 46 z "},"":{"ha":750,"x_min":46,"x_max":414,"o":"m 46 0 l 46 926 l 414 926 l 414 0 l 46 0 m 92 46 l 368 46 l 368 880 l 92 880 l 92 46 z "},"":{"ha":750,"x_min":46,"x_max":414,"o":"m 46 0 l 46 926 l 414 926 l 414 0 l 46 0 m 92 46 l 368 46 l 368 880 l 92 880 l 92 46 z "},"":{"ha":750,"x_min":46,"x_max":414,"o":"m 46 0 l 46 926 l 414 926 l 414 0 l 46 0 m 92 46 l 368 46 l 368 880 l 92 880 l 92 46 z "},"":{"ha":750,"x_min":46,"x_max":414,"o":"m 46 0 l 46 926 l 414 926 l 414 0 l 46 0 m 92 46 l 368 46 l 368 880 l 92 880 l 92 46 z "},"":{"ha":750,"x_min":46,"x_max":414,"o":"m 46 0 l 46 926 l 414 926 l 414 0 l 46 0 m 92 46 l 368 46 l 368 880 l 92 880 l 92 46 z "},"":{"ha":750,"x_min":46,"x_max":414,"o":"m 46 0 l 46 926 l 414 926 l 414 0 l 46 0 m 92 46 l 368 46 l 368 880 l 92 880 l 92 46 z "},"":{"ha":750,"x_min":46,"x_max":414,"o":"m 46 0 l 46 926 l 414 926 l 414 0 l 46 0 m 92 46 l 368 46 l 368 880 l 92 880 l 92 46 z "},"":{"ha":750,"x_min":46,"x_max":414,"o":"m 46 0 l 46 926 l 414 926 l 414 0 l 46 0 m 92 46 l 368 46 l 368 880 l 92 880 l 92 46 z "},"":{"ha":750,"x_min":46,"x_max":414,"o":"m 46 0 l 46 926 l 414 926 l 414 0 l 46 0 m 92 46 l 368 46 l 368 880 l 92 880 l 92 46 z "},"":{"ha":750,"x_min":46,"x_max":414,"o":"m 46 0 l 46 926 l 414 926 l 414 0 l 46 0 m 92 46 l 368 46 l 368 880 l 92 880 l 92 46 z "},"":{"ha":750,"x_min":46,"x_max":414,"o":"m 46 0 l 46 926 l 414 926 l 414 0 l 46 0 m 92 46 l 368 46 l 368 880 l 92 880 l 92 46 z "},"":{"ha":750,"x_min":46,"x_max":414,"o":"m 46 0 l 46 926 l 414 926 l 414 0 l 46 0 m 92 46 l 368 46 l 368 880 l 92 880 l 92 46 z "},"":{"ha":750,"x_min":46,"x_max":414,"o":"m 46 0 l 46 926 l 414 926 l 414 0 l 46 0 m 92 46 l 368 46 l 368 880 l 92 880 l 92 46 z "},"":{"ha":750,"x_min":46,"x_max":414,"o":"m 46 0 l 46 926 l 414 926 l 414 0 l 46 0 m 92 46 l 368 46 l 368 880 l 92 880 l 92 46 z "},"":{"ha":750,"x_min":46,"x_max":414,"o":"m 46 0 l 46 926 l 414 926 l 414 0 l 46 0 m 92 46 l 368 46 l 368 880 l 92 880 l 92 46 z "},"":{"ha":750,"x_min":46,"x_max":414,"o":"m 46 0 l 46 926 l 414 926 l 414 0 l 46 0 m 92 46 l 368 46 l 368 880 l 92 880 l 92 46 z "},"":{"ha":750,"x_min":46,"x_max":414,"o":"m 46 0 l 46 926 l 414 926 l 414 0 l 46 0 m 92 46 l 368 46 l 368 880 l 92 880 l 92 46 z "},"":{"ha":750,"x_min":46,"x_max":414,"o":"m 46 0 l 46 926 l 414 926 l 414 0 l 46 0 m 92 46 l 368 46 l 368 880 l 92 880 l 92 46 z "},"":{"ha":750,"x_min":46,"x_max":414,"o":"m 46 0 l 46 926 l 414 926 l 414 0 l 46 0 m 92 46 l 368 46 l 368 880 l 92 880 l 92 46 z "},"":{"ha":750,"x_min":46,"x_max":414,"o":"m 46 0 l 46 926 l 414 926 l 414 0 l 46 0 m 92 46 l 368 46 l 368 880 l 92 880 l 92 46 z "},"":{"ha":750,"x_min":46,"x_max":414,"o":"m 46 0 l 46 926 l 414 926 l 414 0 l 46 0 m 92 46 l 368 46 l 368 880 l 92 880 l 92 46 z "},"":{"ha":750,"x_min":46,"x_max":414,"o":"m 46 0 l 46 926 l 414 926 l 414 0 l 46 0 m 92 46 l 368 46 l 368 880 l 92 880 l 92 46 z "},"":{"ha":750,"x_min":46,"x_max":414,"o":"m 46 0 l 46 926 l 414 926 l 414 0 l 46 0 m 92 46 l 368 46 l 368 880 l 92 880 l 92 46 z "},"":{"ha":750,"x_min":46,"x_max":414,"o":"m 46 0 l 46 926 l 414 926 l 414 0 l 46 0 m 92 46 l 368 46 l 368 880 l 92 880 l 92 46 z "},"":{"ha":750,"x_min":46,"x_max":414,"o":"m 46 0 l 46 926 l 414 926 l 414 0 l 46 0 m 92 46 l 368 46 l 368 880 l 92 880 l 92 46 z "},"":{"ha":750,"x_min":46,"x_max":414,"o":"m 46 0 l 46 926 l 414 926 l 414 0 l 46 0 m 92 46 l 368 46 l 368 880 l 92 880 l 92 46 z "},"":{"ha":750,"x_min":46,"x_max":414,"o":"m 46 0 l 46 926 l 414 926 l 414 0 l 46 0 m 92 46 l 368 46 l 368 880 l 92 880 l 92 46 z "},"":{"ha":750,"x_min":46,"x_max":414,"o":"m 46 0 l 46 926 l 414 926 l 414 0 l 46 0 m 92 46 l 368 46 l 368 880 l 92 880 l 92 46 z "},"":{"ha":750,"x_min":46,"x_max":414,"o":"m 46 0 l 46 926 l 414 926 l 414 0 l 46 0 m 92 46 l 368 46 l 368 880 l 92 880 l 92 46 z "},"":{"ha":750,"x_min":46,"x_max":414,"o":"m 46 0 l 46 926 l 414 926 l 414 0 l 46 0 m 92 46 l 368 46 l 368 880 l 92 880 l 92 46 z "},"":{"ha":750,"x_min":46,"x_max":414,"o":"m 46 0 l 46 926 l 414 926 l 414 0 l 46 0 m 92 46 l 368 46 l 368 880 l 92 880 l 92 46 z "},"":{"ha":750,"x_min":46,"x_max":414,"o":"m 46 0 l 46 926 l 414 926 l 414 0 l 46 0 m 92 46 l 368 46 l 368 880 l 92 880 l 92 46 z "},"":{"ha":750,"x_min":46,"x_max":414,"o":"m 46 0 l 46 926 l 414 926 l 414 0 l 46 0 m 92 46 l 368 46 l 368 880 l 92 880 l 92 46 z "},"":{"ha":750,"x_min":46,"x_max":414,"o":"m 46 0 l 46 926 l 414 926 l 414 0 l 46 0 m 92 46 l 368 46 l 368 880 l 92 880 l 92 46 z "},"":{"ha":750,"x_min":46,"x_max":414,"o":"m 46 0 l 46 926 l 414 926 l 414 0 l 46 0 m 92 46 l 368 46 l 368 880 l 92 880 l 92 46 z "},"":{"ha":750,"x_min":46,"x_max":414,"o":"m 46 0 l 46 926 l 414 926 l 414 0 l 46 0 m 92 46 l 368 46 l 368 880 l 92 880 l 92 46 z "},"":{"ha":750,"x_min":46,"x_max":414,"o":"m 46 0 l 46 926 l 414 926 l 414 0 l 46 0 m 92 46 l 368 46 l 368 880 l 92 880 l 92 46 z "},"":{"ha":750,"x_min":46,"x_max":414,"o":"m 46 0 l 46 926 l 414 926 l 414 0 l 46 0 m 92 46 l 368 46 l 368 880 l 92 880 l 92 46 z "},"":{"ha":750,"x_min":46,"x_max":414,"o":"m 46 0 l 46 926 l 414 926 l 414 0 l 46 0 m 92 46 l 368 46 l 368 880 l 92 880 l 92 46 z "},"":{"ha":750,"x_min":46,"x_max":414,"o":"m 46 0 l 46 926 l 414 926 l 414 0 l 46 0 m 92 46 l 368 46 l 368 880 l 92 880 l 92 46 z "},"":{"ha":750,"x_min":46,"x_max":414,"o":"m 46 0 l 46 926 l 414 926 l 414 0 l 46 0 m 92 46 l 368 46 l 368 880 l 92 880 l 92 46 z "},"":{"ha":750,"x_min":46,"x_max":414,"o":"m 46 0 l 46 926 l 414 926 l 414 0 l 46 0 m 92 46 l 368 46 l 368 880 l 92 880 l 92 46 z "},"":{"ha":750,"x_min":46,"x_max":414,"o":"m 46 0 l 46 926 l 414 926 l 414 0 l 46 0 m 92 46 l 368 46 l 368 880 l 92 880 l 92 46 z "},"":{"ha":750,"x_min":46,"x_max":414,"o":"m 46 0 l 46 926 l 414 926 l 414 0 l 46 0 m 92 46 l 368 46 l 368 880 l 92 880 l 92 46 z "},"":{"ha":750,"x_min":46,"x_max":414,"o":"m 46 0 l 46 926 l 414 926 l 414 0 l 46 0 m 92 46 l 368 46 l 368 880 l 92 880 l 92 46 z "},"":{"ha":750,"x_min":46,"x_max":414,"o":"m 46 0 l 46 926 l 414 926 l 414 0 l 46 0 m 92 46 l 368 46 l 368 880 l 92 880 l 92 46 z "},"":{"ha":750,"x_min":46,"x_max":414,"o":"m 46 0 l 46 926 l 414 926 l 414 0 l 46 0 m 92 46 l 368 46 l 368 880 l 92 880 l 92 46 z "},"":{"ha":750,"x_min":46,"x_max":414,"o":"m 46 0 l 46 926 l 414 926 l 414 0 l 46 0 m 92 46 l 368 46 l 368 880 l 92 880 l 92 46 z "},"":{"ha":750,"x_min":46,"x_max":414,"o":"m 46 0 l 46 926 l 414 926 l 414 0 l 46 0 m 92 46 l 368 46 l 368 880 l 92 880 l 92 46 z "},"":{"ha":750,"x_min":46,"x_max":414,"o":"m 46 0 l 46 926 l 414 926 l 414 0 l 46 0 m 92 46 l 368 46 l 368 880 l 92 880 l 92 46 z "},"":{"ha":750,"x_min":46,"x_max":414,"o":"m 46 0 l 46 926 l 414 926 l 414 0 l 46 0 m 92 46 l 368 46 l 368 880 l 92 880 l 92 46 z "},"":{"ha":750,"x_min":46,"x_max":414,"o":"m 46 0 l 46 926 l 414 926 l 414 0 l 46 0 m 92 46 l 368 46 l 368 880 l 92 880 l 92 46 z "},"":{"ha":750,"x_min":46,"x_max":414,"o":"m 46 0 l 46 926 l 414 926 l 414 0 l 46 0 m 92 46 l 368 46 l 368 880 l 92 880 l 92 46 z "},"":{"ha":750,"x_min":46,"x_max":414,"o":"m 46 0 l 46 926 l 414 926 l 414 0 l 46 0 m 92 46 l 368 46 l 368 880 l 92 880 l 92 46 z "},"":{"ha":750,"x_min":46,"x_max":414,"o":"m 46 0 l 46 926 l 414 926 l 414 0 l 46 0 m 92 46 l 368 46 l 368 880 l 92 880 l 92 46 z "},"":{"ha":750,"x_min":46,"x_max":414,"o":"m 46 0 l 46 926 l 414 926 l 414 0 l 46 0 m 92 46 l 368 46 l 368 880 l 92 880 l 92 46 z "},"\r":{"ha":750,"x_min":0,"x_max":0,"o":""}," ":{"ha":750,"x_min":0,"x_max":0,"o":""},"!":{"ha":750,"x_min":329,"x_max":415,"o":"m 329 153 l 415 153 l 415 68 l 329 68 l 329 153 m 329 915 l 414 915 l 414 321 l 329 321 l 329 915 z "},"\"":{"ha":750,"x_min":160,"x_max":499,"o":"m 160 915 l 246 915 l 246 661 l 160 661 l 160 915 m 414 915 l 499 915 l 499 661 l 414 661 l 414 915 z "},"#":{"ha":750,"x_min":81,"x_max":576,"o":"m 411 661 l 246 661 l 246 490 l 411 490 l 411 661 m 163 831 l 246 831 l 246 746 l 411 746 l 411 831 l 493 831 l 493 744 l 576 744 l 576 661 l 493 661 l 493 490 l 576 490 l 576 407 l 493 407 l 493 324 l 411 324 l 411 407 l 246 407 l 246 322 l 163 322 l 163 407 l 81 407 l 81 492 l 163 492 l 163 661 l 81 661 l 81 746 l 163 746 l 163 831 z "},"$":{"ha":750,"x_min":85,"x_max":675,"o":"m 675 747 l 675 664 l 419 664 l 419 493 l 544 493 q 575 481 563 493 l 661 394 q 672 365 672 383 l 672 276 q 661 247 672 258 l 578 164 q 547 151 565 151 l 419 151 l 419 -15 l 336 -15 l 336 151 l 89 151 l 89 235 l 336 235 l 336 410 l 210 410 q 181 422 193 410 l 97 506 q 85 535 85 518 l 85 622 q 97 651 85 639 l 181 735 q 210 747 193 747 l 336 747 l 336 914 l 419 914 l 419 747 l 675 747 m 336 664 l 228 664 l 168 604 l 168 551 l 228 493 l 336 493 l 336 664 m 419 235 l 531 235 l 589 293 l 589 347 l 528 410 l 419 410 l 419 235 z "},"%":{"ha":750,"x_min":83,"x_max":674,"o":"m 97 164 l 86 183 l 86 203 l 97 222 l 603 729 l 622 740 l 644 740 l 663 729 l 673 710 l 673 690 l 663 671 l 156 164 l 137 153 l 115 153 l 97 164 m 514 147 q 507 140 514 147 q 500 113 500 133 q 514 77 500 92 q 549 63 528 63 q 583 77 569 63 q 597 113 597 92 q 583 146 597 133 q 549 160 569 160 q 514 147 528 160 m 458 20 q 439 39 458 20 q 421 111 421 58 q 458 202 421 165 q 547 240 495 240 q 636 202 599 240 q 674 111 674 165 q 636 20 674 58 q 547 -18 599 -18 q 458 20 495 -18 m 176 817 q 169 811 176 817 q 163 783 163 804 q 176 748 163 763 q 211 733 190 733 q 245 748 231 733 q 260 783 260 763 q 245 817 260 803 q 211 831 231 831 q 176 817 190 831 m 120 691 q 102 710 120 691 q 83 782 83 728 q 120 873 83 835 q 210 911 158 911 q 299 873 262 911 q 336 782 336 835 q 299 691 336 728 q 210 653 262 653 q 120 691 158 653 z "},"&":{"ha":750,"x_min":77,"x_max":658,"o":"m 258 336 l 251 343 q 249 347 251 344 q 246 351 247 350 q 245 355 245 352 q 245 358 245 356 q 246 361 246 360 l 246 414 l 196 414 l 158 360 l 158 211 l 215 153 l 356 153 l 399 196 l 258 336 m 90 511 q 87 515 90 513 q 83 518 84 517 l 83 521 l 83 525 l 83 529 l 83 533 l 83 704 l 83 710 l 83 714 l 83 719 l 83 724 q 86 726 84 724 q 89 728 88 727 l 93 732 l 169 814 q 178 821 175 819 q 183 823 179 822 q 188 825 186 824 q 191 826 189 826 q 195 825 192 826 q 199 825 197 825 l 292 825 q 301 824 299 825 q 306 822 303 823 q 311 819 310 820 q 313 818 312 819 q 315 817 315 817 q 317 815 316 816 q 319 814 319 815 l 397 738 q 399 735 398 737 q 400 733 399 734 q 403 729 403 731 q 405 724 403 728 q 407 719 406 721 q 408 710 408 717 l 408 538 q 410 535 408 537 q 413 532 413 533 q 412 529 413 531 q 411 526 411 527 q 410 522 410 525 q 408 517 409 518 q 407 515 408 516 q 406 513 406 513 l 401 508 l 324 429 l 324 382 l 456 253 l 601 397 l 658 342 l 511 196 l 654 54 l 599 0 l 456 140 l 400 85 q 392 78 394 79 q 387 76 390 77 q 382 74 383 74 q 378 73 381 73 q 375 73 377 73 q 371 74 372 74 l 199 74 q 195 73 197 74 q 192 73 193 73 q 189 74 190 73 q 185 76 188 74 q 181 79 182 78 q 178 81 180 80 q 176 82 177 81 q 174 83 176 83 q 172 85 173 84 l 89 167 q 83 175 86 169 q 81 180 83 176 q 78 185 78 183 l 78 185 q 77 187 77 186 q 78 192 77 189 q 79 196 79 194 l 79 372 l 79 376 l 79 381 q 81 383 79 381 q 83 385 83 384 l 83 388 q 83 391 84 389 q 83 394 83 393 l 128 456 l 90 511 m 329 553 l 329 692 l 275 747 l 215 747 l 161 689 l 161 546 l 193 500 l 279 500 l 329 553 z "},"'":{"ha":750,"x_min":339,"x_max":424,"o":"m 339 915 l 424 915 l 424 661 l 339 661 l 339 915 z "},"(":{"ha":750,"x_min":256,"x_max":510,"o":"m 267 653 l 440 818 q 468 831 456 831 q 496 817 484 831 q 508 788 508 804 q 496 760 508 772 l 335 603 l 335 297 l 497 136 q 510 107 510 126 q 497 81 510 91 q 469 68 485 68 q 442 81 452 68 l 268 254 q 256 281 256 267 l 256 619 q 267 653 256 642 z "},")":{"ha":750,"x_min":256,"x_max":510,"o":"m 499 246 l 325 81 q 297 68 310 68 q 269 82 281 68 q 257 111 257 94 q 269 139 257 126 l 431 296 l 431 601 l 268 763 q 256 792 256 773 q 268 818 256 808 q 296 831 281 831 q 324 818 313 831 l 497 644 q 510 618 510 632 l 510 279 q 499 246 510 257 z "},"*":{"ha":750,"x_min":85,"x_max":661,"o":"m 329 492 l 414 492 l 414 236 l 329 236 l 329 492 m 329 831 l 414 831 l 414 575 l 329 575 l 329 831 m 599 733 l 658 675 l 521 536 l 661 392 l 601 333 l 403 536 l 599 733 m 146 733 l 342 536 l 143 333 l 85 392 l 225 536 l 88 675 l 146 733 z "},"+":{"ha":750,"x_min":83,"x_max":661,"o":"m 331 725 l 414 725 l 414 494 l 661 494 l 661 407 l 414 407 l 414 185 l 331 185 l 331 407 l 83 407 l 83 494 l 331 494 l 331 725 z "},",":{"ha":750,"x_min":167,"x_max":496,"o":"m 496 263 l 496 114 l 471 56 l 283 -133 l 167 -17 l 331 149 l 331 263 l 496 263 z "},"-":{"ha":750,"x_min":165,"x_max":579,"o":"m 165 494 l 579 494 l 579 417 l 165 417 l 165 494 z "},".":{"ha":750,"x_min":249,"x_max":414,"o":"m 249 224 l 414 224 l 414 69 l 249 69 l 249 224 z "},"/":{"ha":750,"x_min":86,"x_max":673,"o":"m 97 164 l 86 183 l 86 203 l 97 222 l 603 729 l 622 740 l 644 740 l 663 729 l 673 710 l 673 690 l 663 671 l 156 164 l 137 153 l 115 153 l 97 164 z "},":":{"ha":750,"x_min":249,"x_max":414,"o":"m 249 224 l 414 224 l 414 69 l 249 69 l 249 224 m 249 571 l 414 571 l 414 417 l 249 417 l 249 571 z "},";":{"ha":750,"x_min":167,"x_max":496,"o":"m 496 263 l 496 114 l 471 56 l 283 -133 l 167 -17 l 331 149 l 331 263 l 496 263 m 331 571 l 496 571 l 496 417 l 331 417 l 331 571 z "},"<":{"ha":750,"x_min":174,"x_max":582,"o":"m 571 138 q 582 107 582 124 q 569 78 582 93 q 540 64 560 67 q 536 64 539 64 q 533 63 534 63 q 511 69 522 63 l 174 410 l 174 488 l 510 829 q 535 838 528 838 l 538 838 q 563 825 552 835 q 576 796 574 815 q 577 792 576 794 q 577 788 577 790 q 571 765 577 776 l 254 449 l 571 138 z "},"=":{"ha":750,"x_min":83,"x_max":661,"o":"m 83 649 l 661 649 l 661 571 l 83 571 l 83 649 m 83 417 l 661 417 l 661 339 l 83 339 l 83 417 z "},">":{"ha":750,"x_min":174,"x_max":582,"o":"m 185 764 q 174 794 174 777 q 186 824 174 808 q 215 838 196 835 q 219 838 217 838 q 223 838 222 838 q 244 832 233 838 l 582 492 l 582 414 l 246 72 q 221 64 228 64 l 218 64 q 193 76 203 66 q 179 106 182 85 q 179 109 179 107 q 178 113 178 112 q 185 136 178 124 l 501 453 l 185 764 z "},"?":{"ha":750,"x_min":165,"x_max":661,"o":"m 249 663 l 165 663 l 165 790 q 178 819 165 807 l 265 906 q 294 915 275 915 l 532 915 q 561 904 550 915 l 649 817 q 661 788 661 804 l 661 703 q 647 672 661 686 l 414 450 l 414 322 l 331 322 l 331 468 q 343 499 331 486 l 579 721 l 579 771 l 515 833 l 311 833 l 249 772 l 249 663 m 331 154 l 414 154 l 414 69 l 331 69 l 331 154 z "},"@":{"ha":750,"x_min":83,"x_max":661,"o":"m 414 489 l 414 572 l 392 572 l 332 513 l 332 489 l 414 489 m 497 489 l 524 489 l 578 544 l 578 772 l 522 828 l 225 828 l 167 769 l 167 207 l 218 154 l 661 154 l 661 71 l 201 71 q 171 83 183 71 l 94 160 q 83 189 83 171 l 83 786 q 94 815 83 804 l 178 899 q 208 911 190 911 l 539 911 q 569 899 557 911 l 650 818 q 661 789 661 807 l 661 526 q 650 497 661 508 l 571 418 q 542 406 558 406 l 290 406 q 261 418 274 406 q 249 447 249 431 l 249 529 q 260 558 249 547 l 344 643 q 375 653 354 653 l 456 653 q 485 642 472 653 q 497 614 497 631 l 497 489 z "},"A":{"ha":750,"x_min":83,"x_max":661,"o":"m 165 339 l 165 68 l 83 68 l 83 538 q 96 565 83 553 l 342 817 q 369 829 352 829 q 401 817 389 829 l 650 564 q 661 535 661 553 l 661 68 l 578 68 l 578 339 l 165 339 m 167 417 l 578 417 l 578 518 l 371 726 l 167 519 l 167 417 z "},"B":{"ha":750,"x_min":83,"x_max":661,"o":"m 165 151 l 165 747 l 83 747 l 83 829 l 453 829 q 483 818 469 829 l 650 644 q 661 617 661 633 q 649 585 661 597 l 508 450 l 649 313 q 661 285 661 300 q 649 254 661 267 l 479 81 q 450 68 467 68 l 83 68 l 83 151 l 165 151 m 433 407 l 249 407 l 249 151 l 432 151 l 561 282 l 433 407 m 432 492 l 561 617 l 435 747 l 249 747 l 249 492 l 432 492 z "},"C":{"ha":750,"x_min":83,"x_max":661,"o":"m 661 735 l 603 676 l 529 747 l 394 747 l 167 519 l 167 379 l 396 151 l 528 151 l 600 228 l 661 169 l 576 81 q 546 68 564 68 l 379 68 q 350 82 364 68 l 96 332 q 83 361 83 344 l 83 536 q 94 565 83 554 l 349 818 q 378 829 360 829 l 546 829 q 575 819 565 829 l 661 735 z "},"D":{"ha":750,"x_min":83,"x_max":661,"o":"m 249 153 l 435 153 l 578 296 l 578 601 l 435 747 l 249 747 l 249 153 m 165 747 l 83 747 l 83 829 l 453 829 q 482 817 469 829 l 649 647 q 661 618 661 635 l 661 279 q 649 249 661 261 l 481 82 q 451 68 467 68 l 83 68 l 83 151 l 165 151 l 165 747 z "},"E":{"ha":750,"x_min":83,"x_max":661,"o":"m 83 831 l 661 831 l 661 746 l 165 746 l 165 494 l 496 494 l 496 410 l 165 410 l 165 151 l 661 151 l 661 68 l 83 68 l 83 831 z "},"F":{"ha":750,"x_min":83,"x_max":661,"o":"m 83 829 l 661 829 l 661 746 l 165 746 l 165 494 l 579 494 l 579 417 l 165 417 l 165 68 l 83 68 l 83 829 z "},"G":{"ha":750,"x_min":83,"x_max":661,"o":"m 331 417 l 661 417 l 661 339 l 579 339 l 579 71 l 292 71 q 263 82 274 71 l 96 247 q 83 276 83 260 l 83 621 q 94 653 83 642 l 261 818 q 290 829 269 829 l 457 829 q 488 818 476 829 l 592 713 l 532 654 l 440 747 l 308 747 l 167 604 l 167 294 l 308 154 l 497 154 l 497 339 l 331 339 l 331 417 z "},"H":{"ha":750,"x_min":83,"x_max":661,"o":"m 83 829 l 165 829 l 165 494 l 579 494 l 579 829 l 661 829 l 661 69 l 579 69 l 579 417 l 165 417 l 165 69 l 83 69 l 83 829 z "},"I":{"ha":750,"x_min":249,"x_max":496,"o":"m 249 829 l 496 829 l 496 746 l 414 746 l 414 151 l 496 151 l 496 67 l 249 67 l 249 151 l 331 151 l 331 746 l 249 746 l 249 829 z "},"J":{"ha":750,"x_min":83,"x_max":579,"o":"m 83 322 l 165 322 l 165 210 l 226 153 l 356 153 l 414 213 l 414 746 l 331 746 l 331 829 l 579 829 l 579 746 l 496 746 l 496 196 q 485 167 496 178 l 403 82 q 372 69 390 69 l 208 69 q 179 81 190 69 l 96 161 q 83 190 83 174 l 83 322 z "},"K":{"ha":750,"x_min":83,"x_max":661,"o":"m 171 261 l 171 68 l 83 68 l 83 829 l 171 829 l 171 381 l 578 803 l 578 829 l 660 829 l 660 786 q 647 757 660 769 l 349 449 l 649 140 q 661 111 661 128 l 661 68 l 578 68 l 578 94 l 290 390 l 171 261 z "},"L":{"ha":750,"x_min":83,"x_max":661,"o":"m 83 829 l 165 829 l 165 151 l 661 151 l 661 68 l 83 68 l 83 829 z "},"M":{"ha":750,"x_min":83,"x_max":661,"o":"m 414 514 l 414 408 l 329 408 l 329 514 l 167 686 l 167 69 l 83 69 l 83 786 q 110 825 83 814 q 125 829 118 829 q 154 815 140 829 l 369 592 l 590 818 q 619 829 601 829 q 624 830 621 829 q 630 831 628 831 q 635 829 631 831 q 661 789 661 818 l 661 69 l 578 69 l 578 689 l 414 514 z "},"N":{"ha":750,"x_min":83,"x_max":661,"o":"m 83 69 l 83 829 l 165 829 l 579 406 l 579 829 l 661 829 l 661 69 l 579 69 l 579 278 l 165 706 l 165 69 l 83 69 z "},"O":{"ha":750,"x_min":83,"x_max":661,"o":"m 169 686 l 169 208 l 224 153 l 518 153 l 578 213 l 578 685 l 518 747 l 225 747 l 169 686 m 97 731 l 176 817 q 207 829 188 829 l 536 829 q 567 817 557 829 l 650 731 q 661 701 661 719 l 661 194 q 649 165 661 175 l 564 82 q 535 69 551 69 l 207 69 q 178 81 189 69 l 96 160 q 83 190 83 172 l 83 703 q 97 731 83 717 z "},"P":{"ha":750,"x_min":83,"x_max":661,"o":"m 165 407 l 435 407 l 579 553 l 579 607 l 436 746 l 165 746 l 165 407 m 165 321 l 165 67 l 83 67 l 83 829 l 453 829 q 482 818 471 829 l 649 653 q 661 625 661 640 l 661 536 q 650 507 661 518 l 482 336 q 453 321 467 321 l 165 321 z "},"Q":{"ha":750,"x_min":83,"x_max":661,"o":"m 515 115 l 656 -36 l 594 -92 l 444 72 l 293 72 q 264 85 276 72 l 96 250 q 83 279 83 263 l 83 622 q 96 653 83 640 l 263 818 q 292 829 274 829 l 456 829 q 485 818 474 829 l 649 649 q 661 619 661 636 l 661 278 q 649 249 661 261 l 515 115 m 456 172 l 578 296 l 578 603 l 438 747 l 310 747 l 167 606 l 167 297 l 310 156 l 368 156 l 333 211 q 328 232 328 220 l 328 322 l 411 322 l 411 243 l 456 172 z "},"R":{"ha":750,"x_min":83,"x_max":661,"o":"m 386 408 l 649 143 q 661 114 661 131 l 661 69 l 579 69 l 579 89 l 267 408 l 165 408 l 165 69 l 83 69 l 83 829 l 535 829 q 564 817 551 829 l 649 733 q 661 704 661 721 l 661 533 q 649 504 661 517 l 567 421 q 538 408 554 408 l 386 408 m 165 492 l 519 492 l 578 550 l 578 686 l 518 746 l 165 746 l 165 492 z "},"S":{"ha":750,"x_min":83,"x_max":661,"o":"m 575 692 l 522 747 l 231 747 l 171 688 l 171 643 l 640 313 q 658 278 658 301 l 658 196 q 647 168 658 181 l 568 82 q 538 67 553 67 l 210 67 q 181 79 193 67 l 96 164 q 83 193 83 176 l 83 236 l 167 236 l 167 210 l 226 151 l 519 151 l 575 213 l 575 256 l 106 586 q 88 621 88 598 l 88 704 q 100 733 88 721 l 185 818 q 214 829 196 829 l 539 829 q 568 818 557 829 l 649 738 q 661 708 661 725 l 661 664 l 575 664 l 575 692 z "},"T":{"ha":750,"x_min":83,"x_max":661,"o":"m 83 829 l 661 829 l 661 746 l 414 746 l 414 68 l 331 68 l 331 746 l 83 746 l 83 829 z "},"U":{"ha":750,"x_min":83,"x_max":661,"o":"m 83 829 l 164 829 l 164 211 l 224 153 l 521 153 l 578 213 l 578 829 l 661 829 l 661 196 q 650 168 661 179 l 569 83 q 539 69 556 69 l 206 69 q 176 82 189 69 l 94 164 q 83 193 83 175 l 83 829 z "},"V":{"ha":750,"x_min":82,"x_max":661,"o":"m 167 713 l 368 215 l 578 711 l 578 829 l 661 829 l 661 703 q 658 686 661 697 l 407 92 q 368 67 396 67 q 329 92 340 67 l 83 688 q 82 692 82 692 q 83 698 82 694 q 83 703 83 701 l 83 829 l 167 829 l 167 713 z "},"W":{"ha":750,"x_min":83,"x_max":661,"o":"m 369 218 l 238 79 q 208 67 225 67 q 179 79 192 67 l 96 163 q 83 192 83 175 l 83 829 l 165 829 l 165 208 l 208 168 l 329 296 l 329 489 l 413 489 l 413 293 l 535 168 l 578 210 l 578 829 l 661 829 l 661 192 q 649 161 661 174 l 564 79 q 535 67 549 67 q 506 81 519 67 l 369 218 z "},"X":{"ha":750,"x_min":85,"x_max":661,"o":"m 369 390 l 168 178 l 168 71 l 85 71 l 85 194 q 97 224 85 211 l 311 449 l 97 678 q 85 707 85 690 l 85 831 l 168 831 l 168 724 l 371 508 l 578 722 l 578 829 l 661 829 l 661 706 q 649 676 661 689 l 429 450 l 649 222 q 661 193 661 210 l 661 69 l 578 69 l 578 176 l 369 390 z "},"Y":{"ha":750,"x_min":83,"x_max":661,"o":"m 414 515 l 414 69 l 329 69 l 329 515 l 96 757 q 83 786 83 769 l 83 829 l 167 829 l 167 803 l 374 592 l 578 803 l 578 829 l 661 829 l 661 789 q 650 758 661 769 l 414 515 z "},"Z":{"ha":750,"x_min":83,"x_max":661,"o":"m 660 703 q 647 674 660 686 l 167 179 l 167 153 l 661 153 l 661 68 l 83 68 l 83 196 q 96 225 83 213 l 576 719 l 576 746 l 83 746 l 83 829 l 660 829 l 660 703 z "},"[":{"ha":750,"x_min":249,"x_max":496,"o":"m 249 915 l 496 915 l 496 831 l 329 831 l 329 68 l 496 68 l 496 -18 l 249 -18 l 249 915 z "},"\\":{"ha":750,"x_min":86,"x_max":674,"o":"m 97 730 l 116 740 l 137 740 l 156 730 l 663 223 l 674 204 l 674 183 l 663 164 l 644 153 l 623 153 l 604 164 l 97 671 l 86 690 l 86 711 l 97 730 z "},"]":{"ha":750,"x_min":249,"x_max":496,"o":"m 249 915 l 496 915 l 496 -18 l 249 -18 l 249 68 l 414 68 l 414 831 l 249 831 l 249 915 z "},"^":{"ha":750,"x_min":156,"x_max":594,"o":"m 185 689 l 156 718 l 346 908 q 374 919 357 919 q 404 908 393 919 l 594 718 l 565 689 l 536 660 l 375 821 l 214 660 l 185 689 z "},"_":{"ha":750,"x_min":75,"x_max":668,"o":"m 75 68 l 668 68 l 668 -18 l 75 -18 l 75 68 z "},"`":{"ha":750,"x_min":256,"x_max":511,"o":"m 267 904 q 297 915 278 915 q 326 904 315 915 l 500 732 q 511 703 511 721 q 500 672 511 683 q 469 661 489 661 q 440 672 451 661 l 267 846 q 256 875 256 857 q 267 904 256 895 z "},"a":{"ha":750,"x_min":79,"x_max":668,"o":"m 500 150 l 500 325 l 221 325 l 161 264 l 161 213 l 219 150 l 500 150 m 583 150 l 668 150 l 668 69 l 201 69 q 172 82 185 69 l 92 168 q 79 197 79 181 l 79 281 q 92 310 79 297 l 174 394 q 203 406 185 406 l 500 406 l 500 521 l 443 579 l 160 579 l 160 661 l 460 661 q 489 649 476 661 l 571 565 q 583 538 583 553 l 583 150 z "},"b":{"ha":750,"x_min":79,"x_max":586,"o":"m 79 72 l 79 915 l 163 915 l 163 660 l 379 660 q 408 647 396 660 l 574 479 q 586 450 586 467 l 586 279 q 574 250 586 263 l 403 82 q 374 72 393 72 l 79 72 m 163 151 l 357 151 l 504 296 l 504 433 l 363 578 l 163 578 l 163 151 z "},"c":{"ha":750,"x_min":79,"x_max":586,"o":"m 586 660 l 586 578 l 304 578 l 161 433 l 161 296 l 308 151 l 586 151 l 586 71 l 292 71 q 263 82 274 71 l 92 250 q 79 279 79 263 l 79 450 q 92 479 79 467 l 258 647 q 286 660 271 660 l 586 660 z "},"d":{"ha":750,"x_min":79,"x_max":586,"o":"m 586 71 l 292 71 q 263 82 274 71 l 92 250 q 79 279 79 263 l 79 450 q 92 479 79 467 l 258 647 q 286 660 271 660 l 503 660 l 503 915 l 586 915 l 586 71 m 503 151 l 503 578 l 304 578 l 161 433 l 161 296 l 308 151 l 503 151 z "},"e":{"ha":750,"x_min":79,"x_max":586,"o":"m 161 321 l 161 211 l 221 149 l 586 149 l 586 71 l 204 71 q 176 82 188 71 l 90 165 q 79 194 79 176 l 79 531 q 93 558 79 544 l 178 646 q 208 661 193 661 l 460 661 q 489 646 474 661 l 571 560 q 583 532 583 547 l 583 321 l 161 321 m 163 407 l 503 407 l 503 515 l 443 576 l 224 576 l 163 514 l 163 407 z "},"f":{"ha":750,"x_min":79,"x_max":586,"o":"m 390 832 l 335 775 l 335 661 l 503 661 l 503 576 l 333 576 l 333 68 l 251 68 l 251 576 l 79 576 l 79 661 l 251 661 l 251 792 q 263 821 251 810 l 342 903 q 372 915 354 915 l 586 915 l 586 832 l 390 832 z "},"g":{"ha":750,"x_min":79,"x_max":625,"o":"m 542 264 l 446 168 q 417 156 436 156 l 285 156 q 256 168 268 156 l 92 332 q 79 361 79 342 l 79 454 q 92 483 79 471 l 260 653 q 289 664 269 664 l 499 664 q 528 653 517 664 l 613 567 q 625 538 625 557 l 625 22 q 613 -7 625 6 l 535 -85 q 506 -97 525 -97 l 282 -97 q 253 -85 265 -97 l 172 -4 l 231 54 l 299 -14 l 489 -14 l 542 39 l 542 264 m 542 381 l 542 521 l 482 581 l 306 581 l 163 438 l 163 378 l 301 239 l 400 239 l 542 381 z "},"h":{"ha":750,"x_min":79,"x_max":586,"o":"m 79 67 l 79 925 l 163 925 l 163 553 l 263 653 q 292 660 271 660 l 457 660 q 486 649 473 660 l 574 565 q 586 535 586 553 l 586 67 l 503 67 l 503 517 l 440 578 l 308 578 l 163 438 l 163 67 l 79 67 z "},"i":{"ha":750,"x_min":329,"x_max":414,"o":"m 329 915 l 414 915 l 414 831 l 329 831 l 329 915 m 329 661 l 414 661 l 414 68 l 329 68 l 329 661 z "},"j":{"ha":750,"x_min":174,"x_max":586,"o":"m 585 24 q 571 -6 585 8 l 488 -90 q 458 -101 476 -101 l 286 -101 q 257 -89 269 -101 l 174 -4 l 232 54 l 304 -19 l 442 -19 l 500 40 l 500 661 l 585 661 l 585 24 m 500 915 l 586 915 l 586 831 l 500 831 l 500 915 z "},"k":{"ha":750,"x_min":79,"x_max":586,"o":"m 351 364 l 582 126 l 522 68 l 276 324 l 165 324 l 165 68 l 79 68 l 79 915 l 165 915 l 165 407 l 278 407 l 528 661 l 586 603 l 351 364 z "},"l":{"ha":750,"x_min":329,"x_max":499,"o":"m 413 171 l 431 151 l 499 151 l 499 68 l 414 68 q 385 81 397 68 l 342 124 q 329 153 329 136 l 329 915 l 413 915 l 413 171 z "},"m":{"ha":750,"x_min":79,"x_max":667,"o":"m 415 518 l 415 68 l 331 68 l 331 518 l 274 576 l 224 576 l 163 517 l 163 68 l 79 68 l 79 660 l 164 660 l 164 636 l 176 649 q 206 661 189 661 l 292 661 q 322 649 310 661 l 372 594 l 425 647 q 454 660 438 660 l 543 660 q 572 647 560 660 l 654 565 q 667 536 667 553 l 667 68 l 583 68 l 583 519 l 526 576 l 472 576 l 415 518 z "},"n":{"ha":750,"x_min":79,"x_max":586,"o":"m 229 614 l 263 647 q 292 660 275 660 l 464 660 q 492 649 481 660 l 574 568 q 586 539 586 556 l 586 71 l 507 71 l 507 522 l 447 576 l 308 576 l 250 518 l 250 69 l 167 69 l 167 535 q 172 551 167 538 l 147 579 l 79 579 l 79 661 l 167 661 q 193 649 183 661 l 229 614 z "},"o":{"ha":750,"x_min":79,"x_max":586,"o":"m 163 519 l 163 211 l 222 153 l 447 153 l 503 211 l 503 519 l 449 581 l 222 581 l 163 519 m 93 565 l 178 653 q 206 663 188 663 l 467 663 q 497 649 483 663 l 575 561 q 586 535 586 550 l 586 194 q 574 165 586 178 l 493 83 q 469 74 485 74 l 464 74 l 206 74 q 178 83 191 74 l 92 164 q 79 194 79 175 l 79 538 q 93 565 79 551 z "},"p":{"ha":750,"x_min":79,"x_max":586,"o":"m 79 664 l 385 664 q 403 658 397 664 l 574 494 q 586 465 586 482 l 586 279 q 574 250 586 263 l 407 82 q 379 69 394 69 l 163 69 l 163 -186 l 79 -186 l 79 664 m 163 576 l 163 151 l 361 151 l 504 296 l 504 449 l 369 576 l 163 576 z "},"q":{"ha":750,"x_min":79,"x_max":668,"o":"m 583 658 l 583 -90 l 668 -90 l 668 -176 l 499 -176 l 499 75 l 286 75 q 258 88 271 75 l 92 256 q 79 285 79 268 l 79 450 q 92 479 79 467 l 263 647 q 292 658 274 658 l 583 658 m 499 578 l 308 578 l 161 433 l 161 301 l 304 157 l 499 157 l 499 578 z "},"r":{"ha":750,"x_min":79,"x_max":586,"o":"m 231 435 l 231 69 l 149 69 l 149 533 q 136 564 149 549 q 104 576 122 576 l 79 576 l 79 661 l 147 661 q 199 634 168 661 q 231 576 231 607 l 231 550 l 326 647 q 356 661 340 661 l 457 661 q 486 649 476 661 l 574 564 q 586 533 586 551 l 586 492 l 503 492 l 503 517 l 440 576 l 374 576 l 231 435 z "},"s":{"ha":750,"x_min":79,"x_max":586,"o":"m 499 517 l 438 578 l 224 578 l 183 536 l 571 229 q 586 199 586 216 q 574 167 586 179 l 486 81 q 457 68 474 68 l 207 68 q 178 81 190 68 l 92 164 q 79 194 79 176 l 79 233 l 163 233 l 163 213 l 224 151 l 440 151 l 482 193 l 96 499 q 81 529 83 508 l 81 534 q 92 561 81 550 l 175 649 q 206 661 188 661 l 454 661 q 483 649 471 661 l 569 564 q 582 535 582 551 l 582 490 l 499 490 l 499 517 z "},"t":{"ha":750,"x_min":158,"x_max":583,"o":"m 413 171 l 431 151 l 499 151 l 499 68 l 414 68 q 385 81 397 68 l 342 124 q 329 153 329 136 l 329 576 l 158 576 l 158 661 l 329 661 l 329 915 l 413 915 l 413 661 l 583 661 l 583 576 l 413 576 l 413 171 z "},"u":{"ha":750,"x_min":81,"x_max":668,"o":"m 518 117 l 485 83 q 456 71 472 71 l 203 71 q 175 82 186 71 l 93 163 q 81 192 81 175 l 81 661 l 163 661 l 163 208 l 219 151 l 439 151 l 497 213 l 497 661 l 581 661 l 581 196 q 575 179 581 193 l 600 151 l 668 151 l 668 71 l 583 71 q 554 82 563 71 l 518 117 z "},"v":{"ha":750,"x_min":79,"x_max":668,"o":"m 163 543 l 372 190 l 585 547 l 585 660 l 668 660 l 668 536 q 663 515 668 524 l 408 88 q 372 67 396 67 q 336 88 349 67 l 85 511 q 79 532 79 520 l 79 660 l 163 660 l 163 543 z "},"w":{"ha":750,"x_min":79,"x_max":668,"o":"m 417 293 l 538 169 l 585 214 l 585 661 l 668 661 l 668 196 q 656 165 668 178 l 567 81 q 538 69 553 69 q 508 82 521 69 l 374 219 l 235 78 q 206 64 221 64 q 176 78 190 64 l 92 164 q 79 193 79 176 l 79 661 l 163 661 l 163 210 l 206 167 l 332 293 l 332 407 l 417 407 l 417 293 z "},"x":{"ha":750,"x_min":75,"x_max":669,"o":"m 372 306 l 158 93 l 158 67 l 75 67 l 75 111 q 86 140 75 129 l 313 364 l 86 589 q 75 619 75 600 l 75 661 l 158 661 l 158 633 l 372 424 l 586 633 l 586 661 l 669 661 l 669 619 q 657 589 669 601 l 431 365 l 657 140 q 669 111 669 128 l 669 67 l 586 67 l 586 93 l 372 306 z "},"y":{"ha":750,"x_min":79,"x_max":585,"o":"m 315 108 l 92 335 q 79 364 79 347 l 79 661 l 163 661 l 163 381 l 375 168 l 501 294 l 501 661 l 585 661 l 585 278 q 572 249 585 261 l 146 -178 l 88 -119 l 315 108 z "},"z":{"ha":750,"x_min":79,"x_max":668,"o":"m 79 661 l 668 661 l 250 151 l 668 151 l 668 68 l 79 68 l 499 576 l 79 576 l 79 661 z "},"{":{"ha":750,"x_min":135,"x_max":497,"o":"m 497 935 l 497 851 l 389 851 l 326 790 l 326 553 q 315 524 326 535 l 261 468 l 315 411 q 326 382 326 400 l 326 144 l 389 83 l 497 83 l 497 0 l 372 0 q 343 13 356 0 l 256 97 q 243 128 243 110 l 243 365 l 185 426 l 135 426 l 135 510 l 185 510 l 243 569 l 243 808 q 256 838 243 825 l 343 922 q 372 935 353 935 l 497 935 z "},"|":{"ha":750,"x_min":329,"x_max":414,"o":"m 329 1000 l 414 1000 l 414 -164 l 329 -164 l 329 1000 z "},"}":{"ha":750,"x_min":158,"x_max":521,"o":"m 158 935 l 283 935 q 313 922 303 935 l 400 838 q 413 808 413 825 l 413 569 l 471 510 l 521 510 l 521 426 l 471 426 l 413 365 l 413 128 q 400 97 413 110 l 313 13 q 283 0 300 0 l 158 0 l 158 83 l 267 83 l 329 144 l 329 382 q 340 411 329 400 l 394 468 l 340 524 q 329 553 329 535 l 329 790 l 267 851 l 158 851 l 158 935 z "},"~":{"ha":750,"x_min":97,"x_max":663,"o":"m 126 789 l 97 818 l 181 901 q 210 914 193 914 l 300 914 q 329 901 319 914 l 481 750 l 538 750 l 604 817 l 633 788 l 663 758 l 583 679 q 554 667 574 667 l 464 667 q 435 679 447 667 l 283 831 l 226 831 l 156 760 l 126 789 z "},"":{"ha":750,"x_min":0,"x_max":0,"o":""},"":{"ha":750,"x_min":0,"x_max":0,"o":""},"":{"ha":750,"x_min":0,"x_max":0,"o":""},"":{"ha":750,"x_min":0,"x_max":0,"o":""},"":{"ha":750,"x_min":0,"x_max":0,"o":""},"":{"ha":750,"x_min":0,"x_max":0,"o":""},"":{"ha":750,"x_min":0,"x_max":0,"o":""},"":{"ha":750,"x_min":0,"x_max":0,"o":""},"":{"ha":750,"x_min":0,"x_max":0,"o":""},"":{"ha":750,"x_min":0,"x_max":0,"o":""},"":{"ha":750,"x_min":0,"x_max":0,"o":""},"":{"ha":750,"x_min":0,"x_max":0,"o":""},"":{"ha":750,"x_min":0,"x_max":0,"o":""},"":{"ha":750,"x_min":0,"x_max":0,"o":""},"":{"ha":750,"x_min":0,"x_max":0,"o":""},"":{"ha":750,"x_min":0,"x_max":0,"o":""},"":{"ha":750,"x_min":0,"x_max":0,"o":""},"":{"ha":750,"x_min":0,"x_max":0,"o":""},"":{"ha":750,"x_min":0,"x_max":0,"o":""},"":{"ha":750,"x_min":0,"x_max":0,"o":""},"":{"ha":750,"x_min":0,"x_max":0,"o":""},"":{"ha":750,"x_min":0,"x_max":0,"o":""},"":{"ha":750,"x_min":0,"x_max":0,"o":""},"":{"ha":750,"x_min":0,"x_max":0,"o":""},"":{"ha":750,"x_min":0,"x_max":0,"o":""},"":{"ha":750,"x_min":0,"x_max":0,"o":""},"":{"ha":750,"x_min":0,"x_max":0,"o":""},"":{"ha":750,"x_min":0,"x_max":0,"o":""},"":{"ha":750,"x_min":0,"x_max":0,"o":""},"":{"ha":750,"x_min":0,"x_max":0,"o":""},"":{"ha":750,"x_min":0,"x_max":0,"o":""},"":{"ha":750,"x_min":0,"x_max":0,"o":""},"":{"ha":750,"x_min":0,"x_max":0,"o":""}," ":{"ha":750,"x_min":0,"x_max":0,"o":""},"¡":{"ha":750,"x_min":329,"x_max":414,"o":"m 329 915 l 414 915 l 414 831 l 329 831 l 329 915 m 329 661 l 414 661 l 414 68 l 329 68 l 329 661 z "},"¢":{"ha":750,"x_min":75,"x_max":583,"o":"m 81 403 q 75 415 75 409 l 75 633 q 82 656 75 648 l 156 738 q 171 744 163 744 l 329 744 l 329 915 l 414 915 l 414 746 l 583 746 l 583 661 l 414 661 l 414 407 l 583 407 l 583 322 l 414 322 l 414 153 l 329 153 l 329 322 l 174 322 q 163 327 168 322 l 81 403 m 329 661 l 201 661 l 163 619 l 163 451 l 204 407 l 329 407 l 329 661 z "},"£":{"ha":750,"x_min":83,"x_max":665,"o":"m 215 156 l 167 156 l 167 147 l 206 147 l 215 156 m 339 490 l 339 194 l 396 156 l 535 156 l 608 222 l 665 161 l 579 81 q 550 69 567 69 l 381 69 q 351 81 363 69 l 315 115 q 294 126 305 126 q 288 124 290 126 l 240 78 q 211 69 232 69 l 125 69 q 95 81 108 69 q 83 108 83 92 l 83 193 q 95 223 83 210 q 125 235 108 235 l 208 235 l 256 222 l 256 490 l 83 490 l 83 575 l 256 575 l 256 788 q 267 817 256 806 l 350 901 q 381 915 364 915 l 469 915 q 499 901 485 915 l 582 818 l 522 760 l 451 831 l 397 831 l 339 771 l 339 575 l 508 575 l 508 490 l 339 490 z "},"¤":{"ha":750,"x_min":72,"x_max":658,"o":"m 297 260 l 122 82 l 75 128 l 236 294 q 183 362 202 322 q 164 447 164 402 q 236 601 164 542 l 72 771 l 119 817 l 296 636 q 364 647 324 647 q 432 636 404 647 l 607 815 l 656 769 l 493 601 q 545 533 526 574 q 564 447 564 492 q 497 297 564 355 l 658 128 l 610 82 l 435 261 q 364 247 398 247 q 297 260 335 247 m 270 542 q 250 523 270 542 q 231 447 231 503 q 269 353 231 392 q 364 314 308 314 q 458 353 419 314 q 497 447 497 392 q 458 542 497 503 q 364 582 419 582 q 270 542 309 582 z "},"¥":{"ha":750,"x_min":75,"x_max":668,"o":"m 371 703 l 596 906 l 654 842 l 413 626 l 413 576 l 668 576 l 668 492 l 414 492 l 414 322 l 668 322 l 668 238 l 414 238 l 414 68 l 329 68 l 329 238 l 75 238 l 75 322 l 329 322 l 329 492 l 75 492 l 75 576 l 329 576 l 329 622 l 86 842 l 143 907 l 371 703 z "},"¦":{"ha":750,"x_min":329,"x_max":414,"o":"m 329 492 l 329 1000 l 414 1000 l 414 492 l 329 492 m 414 325 l 414 -164 l 329 -164 l 329 325 l 414 325 z "},"§":{"ha":750,"x_min":76,"x_max":578,"o":"m 461 175 l 496 208 l 496 349 l 196 638 l 161 607 l 161 467 l 461 175 m 496 101 l 496 28 l 496 17 q 492 13 495 15 q 489 8 490 10 q 483 0 486 3 l 406 -85 q 397 -92 400 -90 q 392 -95 395 -92 q 388 -99 388 -98 q 383 -99 386 -99 q 380 -99 382 -99 q 376 -99 377 -99 l 161 -99 l 161 -15 l 358 -15 l 414 43 l 414 110 l 89 421 q 82 429 83 426 q 79 434 81 431 q 76 439 77 438 q 76 443 76 440 q 76 447 76 444 q 76 450 76 449 l 76 625 q 78 631 76 628 q 81 636 81 635 q 83 641 81 638 q 85 646 84 644 q 89 649 86 647 q 93 653 92 651 l 161 711 l 161 785 q 161 789 161 786 q 160 792 160 791 q 161 796 160 794 l 165 804 q 168 808 166 806 q 171 813 170 811 l 250 897 q 258 904 253 902 q 268 908 264 907 q 273 912 269 908 q 279 915 276 915 l 496 915 l 496 831 l 297 831 l 240 769 l 240 706 l 565 394 q 572 386 571 389 q 576 376 576 380 q 578 365 578 372 l 578 190 q 574 179 578 188 q 569 169 572 175 q 563 161 568 167 l 496 101 z "},"¨":{"ha":750,"x_min":158,"x_max":500,"o":"m 158 915 l 246 915 l 246 831 l 158 831 l 158 915 m 414 915 l 500 915 l 500 831 l 414 831 l 414 915 z "},"©":{"ha":750,"x_min":81,"x_max":667,"o":"m 499 660 l 499 576 l 388 576 l 329 517 l 329 381 l 388 321 l 499 321 l 499 238 l 371 238 q 340 250 353 238 l 257 335 q 246 364 246 346 l 246 533 q 257 563 246 551 l 340 647 q 369 660 349 660 l 499 660 m 93 692 l 218 818 q 246 829 229 829 l 500 829 q 531 818 522 829 l 656 690 q 667 661 667 679 l 667 238 q 656 207 667 218 l 531 82 q 500 69 518 69 l 246 69 q 217 82 229 69 l 93 207 q 81 238 81 219 l 81 663 q 93 692 81 679 m 164 644 l 164 253 l 264 153 l 483 153 l 583 253 l 583 644 l 483 747 l 265 747 l 164 644 z "},"ª":{"ha":750,"x_min":75,"x_max":668,"o":"m 500 318 l 500 494 l 221 494 l 163 433 l 163 382 l 223 318 l 500 318 m 583 318 l 668 318 l 668 238 l 203 238 q 174 254 190 238 l 92 338 q 81 367 81 349 l 81 450 q 92 478 81 467 l 175 564 q 204 575 186 575 l 500 575 l 500 688 l 443 746 l 161 746 l 161 829 l 461 829 q 489 815 475 829 l 572 732 q 583 704 583 721 l 583 318 m 75 151 l 668 151 l 668 68 l 75 68 l 75 151 z "},"«":{"ha":750,"x_min":38,"x_max":657,"o":"m 343 779 l 403 721 l 138 451 l 403 185 l 343 126 l 50 422 q 38 453 38 435 q 50 481 38 468 l 343 779 m 597 778 l 657 719 l 392 450 l 657 183 l 597 125 l 304 421 q 293 450 293 432 q 304 479 293 466 l 597 778 z "},"¬":{"ha":750,"x_min":83,"x_max":661,"o":"m 83 569 l 661 569 l 661 317 l 578 317 l 578 486 l 83 486 l 83 569 z "},"­":{"ha":750,"x_min":169,"x_max":594,"o":"m 169 492 l 594 492 l 594 407 l 169 407 l 169 492 z "},"®":{"ha":750,"x_min":81,"x_max":667,"o":"m 93 692 l 218 818 q 244 829 229 829 l 500 829 q 531 818 519 829 l 656 690 q 667 661 667 679 l 667 236 q 656 207 667 218 l 531 82 q 500 69 516 69 l 244 69 q 217 82 226 69 l 93 207 q 81 236 81 219 l 81 663 q 93 692 81 675 m 164 644 l 164 253 l 264 153 l 483 153 l 583 253 l 583 644 l 483 747 l 265 747 l 164 644 m 244 660 l 414 660 q 443 649 432 660 l 488 607 q 500 576 500 594 l 500 492 q 488 461 500 474 l 450 425 l 493 343 q 497 324 497 331 l 497 238 l 414 238 l 414 314 l 364 407 l 328 407 l 328 236 l 244 236 l 244 660 m 328 576 l 328 490 l 397 490 l 414 510 l 414 558 l 397 576 l 328 576 z "},"¯":{"ha":750,"x_min":144,"x_max":599,"o":"m 144 915 l 599 915 l 599 831 l 144 831 l 144 915 z "},"°":{"ha":750,"x_min":167,"x_max":494,"o":"m 215 866 q 239 891 215 866 q 331 915 263 915 q 447 866 399 915 q 494 747 494 817 q 447 628 494 678 q 331 579 399 579 q 215 628 263 579 q 167 747 167 678 q 215 866 167 817 m 271 811 q 258 798 271 811 q 246 747 246 785 q 271 684 246 710 q 331 658 296 658 q 390 684 365 658 q 415 747 415 710 q 390 811 415 785 q 331 838 365 838 q 271 811 296 838 z "},"±":{"ha":750,"x_min":75,"x_max":668,"o":"m 329 915 l 414 915 l 414 661 l 668 661 l 668 576 l 414 576 l 414 321 l 329 321 l 329 576 l 75 576 l 75 661 l 329 661 l 329 915 m 75 238 l 668 238 l 668 151 l 75 151 l 75 238 z "},"²":{"ha":750,"x_min":217,"x_max":550,"o":"m 550 450 l 550 365 l 217 365 l 217 414 l 217 450 l 217 460 q 219 465 217 461 q 222 469 222 469 q 228 476 224 472 l 467 718 l 467 776 l 408 835 l 353 835 l 292 774 l 292 749 l 217 749 l 217 789 l 217 793 l 217 797 q 219 802 217 799 q 221 807 220 806 q 224 811 221 808 q 226 815 224 813 l 308 900 q 317 907 314 906 l 325 911 q 328 913 326 912 q 332 915 331 914 q 336 915 334 915 l 424 915 l 428 915 q 430 913 428 915 q 432 911 431 911 q 437 909 433 910 q 442 907 440 908 q 450 900 444 906 l 532 818 q 536 815 535 815 q 539 811 536 814 q 540 809 540 810 q 542 807 541 808 q 542 804 542 806 q 543 801 543 802 q 544 799 543 801 q 544 797 544 798 l 544 792 l 544 703 q 543 694 544 697 q 541 690 542 693 q 539 685 540 686 q 536 681 539 683 q 533 676 536 679 l 310 450 l 550 450 z "},"³":{"ha":750,"x_min":203,"x_max":542,"o":"m 203 831 l 203 915 l 501 915 q 531 903 520 915 q 542 876 542 890 l 542 874 l 542 872 l 542 831 q 529 803 542 819 l 429 700 q 444 692 440 697 l 529 607 q 540 580 540 596 l 540 576 l 540 492 q 528 463 540 475 l 446 379 q 420 367 436 367 q 417 368 419 367 q 415 368 416 368 l 288 368 q 260 379 271 368 l 217 418 l 272 479 l 304 450 l 399 450 l 457 508 l 457 560 l 397 619 l 333 619 l 331 619 q 303 629 313 619 q 290 661 290 642 q 301 689 290 676 l 442 831 l 203 831 z "},"´":{"ha":750,"x_min":249,"x_max":500,"o":"m 290 663 q 261 675 274 663 q 249 704 249 688 q 261 735 249 722 l 428 903 q 457 915 440 915 q 488 903 475 915 q 500 872 500 890 q 488 843 500 856 l 321 675 q 290 663 308 663 z "},"µ":{"ha":750,"x_min":78,"x_max":669,"o":"m 78 661 l 157 661 l 157 208 l 217 151 l 440 151 l 499 213 l 499 661 l 582 661 l 582 196 q 576 179 582 193 l 601 151 l 669 151 l 669 71 l 585 71 q 556 82 564 71 l 519 117 l 486 83 q 457 71 474 71 l 200 71 q 172 82 183 71 l 160 94 l 160 -186 l 78 -186 l 78 661 z "},"¶":{"ha":750,"x_min":89,"x_max":594,"o":"m 167 839 l 167 581 l 368 581 l 425 639 l 425 778 l 368 839 l 167 839 m 167 67 l 89 67 l 89 915 l 383 915 q 410 903 397 915 l 493 819 q 506 793 506 808 l 506 622 q 493 594 506 607 l 410 514 q 392 503 399 503 l 167 503 l 167 67 m 425 406 l 510 406 l 510 321 l 594 321 l 594 239 l 510 239 l 510 -17 l 425 -17 l 425 239 l 340 239 l 340 321 l 425 321 l 425 406 z "},"·":{"ha":750,"x_min":246,"x_max":414,"o":"m 246 492 l 414 492 l 414 321 l 246 321 l 246 492 z "},"¸":{"ha":750,"x_min":170,"x_max":416,"o":"m 333 243 l 416 243 l 416 19 q 403 -10 416 1 l 326 -88 q 297 -101 314 -101 l 170 -101 l 170 -17 l 279 -17 l 333 36 l 333 243 z "},"¹":{"ha":750,"x_min":218,"x_max":415,"o":"m 276 721 l 218 779 l 344 904 q 374 915 356 915 q 403 904 394 915 q 415 875 415 893 l 415 365 l 331 365 l 331 775 l 276 721 z "},"º":{"ha":750,"x_min":75,"x_max":586,"o":"m 158 688 l 158 379 l 218 321 l 442 321 l 497 379 l 497 688 l 443 749 l 218 749 l 158 688 m 89 733 l 174 818 q 201 829 185 829 l 461 829 q 492 817 479 829 l 569 729 q 581 703 581 718 l 581 363 q 568 333 581 346 l 488 251 q 463 242 479 242 l 458 242 l 201 242 q 174 251 187 242 l 88 332 q 75 363 75 343 l 75 706 q 89 733 75 719 m 75 151 l 586 151 l 586 68 l 75 68 l 75 151 z "},"»":{"ha":750,"x_min":83,"x_max":701,"o":"m 397 779 l 690 481 q 701 451 701 467 q 690 422 701 433 l 397 126 l 338 185 l 601 451 l 338 721 l 397 779 m 142 778 l 436 479 q 447 451 447 468 q 436 421 447 435 l 142 125 l 83 183 l 347 450 l 83 719 l 142 778 z "},"¼":{"ha":750,"x_min":79,"x_max":710,"o":"m 288 575 l 203 575 l 203 825 l 192 814 l 133 872 l 217 954 q 246 967 229 967 q 274 956 260 967 q 288 925 288 944 l 288 575 m 589 778 q 619 790 601 790 q 650 778 638 790 q 663 747 663 765 q 651 717 663 730 l 151 208 q 122 196 139 196 q 92 208 104 196 q 79 239 79 221 q 90 269 79 256 l 589 778 m 710 240 l 710 157 l 668 157 l 668 69 l 585 69 l 585 157 l 458 157 q 428 171 438 157 q 418 200 418 185 l 418 239 l 418 279 q 431 307 418 294 l 557 435 q 585 449 569 449 l 629 449 q 659 435 648 449 q 669 408 669 422 l 669 240 l 710 240 m 585 240 l 585 346 l 501 260 l 501 240 l 585 240 z "},"½":{"ha":750,"x_min":79,"x_max":711,"o":"m 711 154 l 711 71 l 457 71 l 457 153 q 468 182 457 171 l 626 338 l 626 351 l 611 367 l 556 367 l 528 338 l 467 393 l 507 436 q 538 449 517 449 l 631 449 q 660 436 647 449 l 697 396 q 708 367 708 385 l 708 321 q 697 292 708 303 l 558 154 l 711 154 m 589 778 q 619 790 601 790 q 650 778 638 790 q 663 747 663 765 q 651 717 663 730 l 151 208 q 122 196 139 196 q 92 208 104 196 q 79 239 79 221 q 90 269 79 256 l 589 778 m 288 575 l 203 575 l 203 825 l 192 814 l 133 872 l 217 954 q 246 967 229 967 q 274 956 260 967 q 288 925 288 944 l 288 575 z "},"¾":{"ha":750,"x_min":78,"x_max":710,"o":"m 100 835 l 100 911 l 346 911 l 346 847 l 282 776 l 333 724 q 343 699 343 711 l 343 626 q 335 601 343 612 l 290 549 q 261 535 278 535 l 150 535 q 125 544 138 535 l 78 586 l 128 643 l 164 611 l 243 611 l 267 639 l 265 682 l 244 706 l 168 706 l 168 767 l 232 835 l 100 835 m 589 778 q 619 790 601 790 q 650 778 638 790 q 663 747 663 765 q 651 717 663 730 l 151 208 q 122 196 139 196 q 92 208 104 196 q 79 239 79 221 q 90 269 79 256 l 589 778 m 710 240 l 710 157 l 668 157 l 668 69 l 585 69 l 585 157 l 458 157 q 428 171 438 157 q 418 200 418 185 l 418 239 l 418 279 q 431 307 418 294 l 557 435 q 585 449 569 449 l 629 449 q 659 435 648 449 q 669 408 669 422 l 669 240 l 710 240 m 585 240 l 585 346 l 501 260 l 501 240 l 585 240 z "},"¿":{"ha":750,"x_min":159,"x_max":667,"o":"m 503 835 l 413 835 l 413 919 l 503 919 l 503 835 m 667 328 l 667 179 q 666 177 667 178 q 665 175 665 176 q 656 158 660 163 l 590 83 q 567 69 576 69 l 558 69 l 279 69 q 276 69 278 69 q 273 69 274 69 q 250 81 262 69 l 174 151 q 159 176 159 166 q 159 181 159 178 q 160 185 160 183 l 160 293 q 176 324 160 307 l 413 542 l 413 667 l 497 667 l 497 515 q 497 513 497 515 q 496 510 496 510 q 483 490 489 496 l 249 272 l 249 201 l 297 156 l 538 156 l 582 200 l 582 328 l 667 328 z "},"À":{"ha":750,"x_min":81,"x_max":661,"o":"m 165 339 l 165 68 l 83 68 l 83 538 q 96 565 83 553 l 342 817 q 369 829 352 829 q 401 817 389 829 l 650 564 q 661 535 661 553 l 661 68 l 578 68 l 578 339 l 165 339 m 167 417 l 578 417 l 578 518 l 371 726 l 167 519 l 167 417 m 92 1088 q 122 1099 103 1099 q 151 1088 140 1099 l 325 915 q 336 886 336 904 q 325 856 336 867 q 294 844 314 844 q 265 856 276 844 l 92 1029 q 81 1058 81 1040 q 92 1088 81 1078 z "},"Á":{"ha":750,"x_min":83,"x_max":661,"o":"m 165 339 l 165 68 l 83 68 l 83 538 q 96 565 83 553 l 342 817 q 369 829 352 829 q 401 817 389 829 l 650 564 q 661 535 661 553 l 661 68 l 578 68 l 578 339 l 165 339 m 167 417 l 578 417 l 578 518 l 371 726 l 167 519 l 167 417 m 450 850 q 421 863 433 850 q 408 892 408 875 q 421 922 408 910 l 588 1090 q 617 1103 600 1103 q 647 1090 635 1103 q 660 1060 660 1078 q 647 1031 660 1043 l 481 863 q 450 850 468 850 z "},"Â":{"ha":750,"x_min":83,"x_max":661,"o":"m 165 339 l 165 68 l 83 68 l 83 538 q 96 565 83 553 l 342 817 q 369 829 352 829 q 401 817 389 829 l 650 564 q 661 535 661 553 l 661 68 l 578 68 l 578 339 l 165 339 m 167 417 l 578 417 l 578 518 l 371 726 l 167 519 l 167 417 m 174 881 l 144 910 l 335 1100 q 363 1111 346 1111 q 393 1100 382 1111 l 583 910 l 554 881 l 525 851 l 364 1013 l 203 851 l 174 881 z "},"Ã":{"ha":750,"x_min":83,"x_max":661,"o":"m 165 339 l 165 68 l 83 68 l 83 538 q 96 565 83 553 l 342 817 q 369 829 352 829 q 401 817 389 829 l 650 564 q 661 535 661 553 l 661 68 l 578 68 l 578 339 l 165 339 m 167 417 l 578 417 l 578 518 l 371 726 l 167 519 l 167 417 m 114 982 l 85 1011 l 168 1094 q 197 1107 181 1107 l 288 1107 q 317 1094 307 1107 l 468 943 l 525 943 l 592 1010 l 621 981 l 650 951 l 571 872 q 542 860 561 860 l 451 860 q 422 872 435 860 l 271 1024 l 214 1024 l 143 953 l 114 982 z "},"Ä":{"ha":750,"x_min":83,"x_max":661,"o":"m 165 339 l 165 68 l 83 68 l 83 538 q 96 565 83 553 l 342 817 q 369 829 352 829 q 401 817 389 829 l 650 564 q 661 535 661 553 l 661 68 l 578 68 l 578 339 l 165 339 m 167 417 l 578 417 l 578 518 l 371 726 l 167 519 l 167 417 m 189 999 l 276 999 l 276 914 l 189 914 l 189 999 m 444 999 l 531 999 l 531 914 l 444 914 l 444 999 z "},"Å":{"ha":750,"x_min":79,"x_max":667,"o":"m 249 1060 q 273 1085 249 1060 q 365 1110 297 1110 q 481 1060 433 1110 q 529 942 529 1011 q 481 823 529 872 q 365 774 433 774 q 249 823 297 774 q 201 942 201 872 q 249 1060 201 1011 m 306 1006 q 293 992 306 1006 q 281 942 281 979 q 306 878 281 904 q 365 853 331 853 q 425 878 400 853 q 450 942 450 904 q 425 1006 450 979 q 365 1032 400 1032 q 306 1006 331 1032 m 161 206 l 161 68 l 79 68 l 79 421 q 92 449 79 436 l 342 700 q 369 713 352 713 q 401 700 389 713 l 656 447 q 667 418 667 436 l 667 68 l 583 68 l 585 206 l 161 206 m 163 290 l 583 290 l 583 401 l 371 613 l 163 403 l 163 290 z "},"Æ":{"ha":750,"x_min":74,"x_max":668,"o":"m 414 746 l 160 519 l 160 407 l 414 407 l 414 746 m 74 68 l 74 356 l 74 525 q 85 569 74 551 q 121 608 96 586 l 324 792 q 379 829 358 822 l 668 829 l 668 746 l 499 746 l 499 492 l 668 492 l 668 407 l 499 407 l 499 151 l 668 151 l 668 68 l 414 68 l 414 321 l 160 321 l 160 68 l 74 68 z "},"Ç":{"ha":750,"x_min":83,"x_max":661,"o":"m 661 735 l 603 676 l 529 747 l 394 747 l 167 519 l 167 379 l 396 151 l 528 151 l 600 228 l 661 169 l 576 81 q 546 68 564 68 l 492 68 l 492 -147 q 480 -175 492 -164 l 402 -250 q 373 -262 390 -262 l 247 -262 l 247 -181 l 356 -181 l 409 -130 l 409 68 l 379 68 q 350 82 364 68 l 96 332 q 83 361 83 344 l 83 536 q 94 565 83 554 l 349 818 q 378 829 360 829 l 546 829 q 575 819 565 829 l 661 735 z "},"È":{"ha":750,"x_min":83,"x_max":661,"o":"m 83 831 l 661 831 l 661 746 l 165 746 l 165 494 l 496 494 l 496 410 l 165 410 l 165 151 l 661 151 l 661 68 l 83 68 l 83 831 m 183 1090 q 214 1101 194 1101 q 243 1090 232 1101 l 417 918 q 428 889 428 907 q 417 858 428 869 q 386 847 406 847 q 357 858 368 847 l 183 1032 q 172 1061 172 1043 q 183 1090 172 1081 z "},"É":{"ha":750,"x_min":83,"x_max":661,"o":"m 83 831 l 661 831 l 661 746 l 165 746 l 165 494 l 496 494 l 496 410 l 165 410 l 165 151 l 661 151 l 661 68 l 83 68 l 83 831 m 356 850 q 326 863 339 850 q 314 892 314 875 q 326 922 314 910 l 493 1090 q 522 1103 506 1103 q 553 1090 540 1103 q 565 1060 565 1078 q 553 1031 565 1043 l 386 863 q 356 850 374 850 z "},"Ê":{"ha":750,"x_min":83,"x_max":661,"o":"m 83 831 l 661 831 l 661 746 l 165 746 l 165 494 l 496 494 l 496 410 l 165 410 l 165 151 l 661 151 l 661 68 l 83 68 l 83 831 m 178 882 l 149 911 l 339 1101 q 367 1113 350 1113 q 397 1101 386 1113 l 588 911 l 558 882 l 529 853 l 368 1014 l 207 853 l 178 882 z "},"Ë":{"ha":750,"x_min":83,"x_max":661,"o":"m 83 831 l 661 831 l 661 746 l 165 746 l 165 494 l 496 494 l 496 410 l 165 410 l 165 151 l 661 151 l 661 68 l 83 68 l 83 831 m 190 999 l 278 999 l 278 914 l 190 914 l 190 999 m 446 999 l 532 999 l 532 914 l 446 914 l 446 999 z "},"Ì":{"ha":750,"x_min":163,"x_max":496,"o":"m 249 829 l 496 829 l 496 746 l 414 746 l 414 151 l 496 151 l 496 67 l 249 67 l 249 151 l 331 151 l 331 746 l 249 746 l 249 829 m 174 1090 q 204 1101 185 1101 q 233 1090 222 1101 l 407 918 q 418 889 418 907 q 407 858 418 869 q 376 847 396 847 q 347 858 358 847 l 174 1032 q 163 1061 163 1043 q 174 1090 163 1081 z "},"Í":{"ha":750,"x_min":249,"x_max":582,"o":"m 249 829 l 496 829 l 496 746 l 414 746 l 414 151 l 496 151 l 496 67 l 249 67 l 249 151 l 331 151 l 331 746 l 249 746 l 249 829 m 372 849 q 343 861 356 849 q 331 890 331 874 q 343 921 331 908 l 510 1089 q 539 1101 522 1101 q 569 1089 557 1101 q 582 1058 582 1076 q 569 1029 582 1042 l 403 861 q 372 849 390 849 z "},"Î":{"ha":750,"x_min":157,"x_max":596,"o":"m 249 829 l 496 829 l 496 746 l 414 746 l 414 151 l 496 151 l 496 67 l 249 67 l 249 151 l 331 151 l 331 746 l 249 746 l 249 829 m 186 881 l 157 910 l 347 1100 q 375 1111 358 1111 q 406 1100 394 1111 l 596 910 l 567 881 l 538 851 l 376 1013 l 215 851 l 186 881 z "},"Ï":{"ha":750,"x_min":194,"x_max":536,"o":"m 249 829 l 496 829 l 496 746 l 414 746 l 414 151 l 496 151 l 496 67 l 249 67 l 249 151 l 331 151 l 331 746 l 249 746 l 249 829 m 194 994 l 282 994 l 282 910 l 194 910 l 194 994 m 450 994 l 536 994 l 536 910 l 450 910 l 450 994 z "},"Ð":{"ha":750,"x_min":75,"x_max":667,"o":"m 160 747 l 75 747 l 75 829 l 458 829 q 488 817 478 829 l 654 647 q 667 618 667 635 l 667 279 q 654 249 667 261 l 486 82 q 457 68 472 68 l 75 68 l 75 151 l 160 151 l 160 414 l 76 414 l 76 489 l 160 489 l 160 747 m 244 153 l 440 153 l 583 296 l 583 601 l 440 747 l 244 747 l 244 489 l 415 489 l 415 414 l 244 414 l 244 153 z "},"Ñ":{"ha":750,"x_min":83,"x_max":661,"o":"m 83 69 l 83 829 l 165 829 l 579 406 l 579 829 l 661 829 l 661 69 l 579 69 l 579 278 l 165 706 l 165 69 l 83 69 m 117 981 l 88 1010 l 171 1093 q 200 1106 183 1106 l 290 1106 q 319 1093 310 1106 l 471 942 l 528 942 l 594 1008 l 624 979 l 653 950 l 574 871 q 544 858 564 858 l 454 858 q 425 871 438 858 l 274 1022 l 217 1022 l 146 951 l 117 981 z "},"Ò":{"ha":750,"x_min":83,"x_max":661,"o":"m 169 686 l 169 208 l 224 153 l 518 153 l 578 213 l 578 685 l 518 747 l 225 747 l 169 686 m 97 731 l 176 817 q 207 829 188 829 l 536 829 q 567 817 557 829 l 650 731 q 661 701 661 719 l 661 194 q 649 165 661 175 l 564 82 q 535 69 551 69 l 207 69 q 178 81 189 69 l 96 160 q 83 190 83 172 l 83 703 q 97 731 83 717 m 172 1089 q 203 1100 183 1100 q 232 1089 221 1100 l 406 917 q 417 888 417 906 q 406 857 417 868 q 375 846 394 846 q 346 857 357 846 l 172 1031 q 161 1060 161 1042 q 172 1089 161 1080 z "},"Ó":{"ha":750,"x_min":83,"x_max":661,"o":"m 169 686 l 169 208 l 224 153 l 518 153 l 578 213 l 578 685 l 518 747 l 225 747 l 169 686 m 97 731 l 176 817 q 207 829 188 829 l 536 829 q 567 817 557 829 l 650 731 q 661 701 661 719 l 661 194 q 649 165 661 175 l 564 82 q 535 69 551 69 l 207 69 q 178 81 189 69 l 96 160 q 83 190 83 172 l 83 703 q 97 731 83 717 m 385 849 q 356 861 368 849 q 343 890 343 874 q 356 921 343 908 l 522 1089 q 551 1101 535 1101 q 582 1089 569 1101 q 594 1058 594 1076 q 582 1029 594 1042 l 415 861 q 385 849 403 849 z "},"Ô":{"ha":750,"x_min":83,"x_max":661,"o":"m 169 686 l 169 208 l 224 153 l 518 153 l 578 213 l 578 685 l 518 747 l 225 747 l 169 686 m 97 731 l 176 817 q 207 829 188 829 l 536 829 q 567 817 557 829 l 650 731 q 661 701 661 719 l 661 194 q 649 165 661 175 l 564 82 q 535 69 551 69 l 207 69 q 178 81 189 69 l 96 160 q 83 190 83 172 l 83 703 q 97 731 83 717 m 186 881 l 157 910 l 347 1100 q 375 1111 358 1111 q 406 1100 394 1111 l 596 910 l 567 881 l 538 851 l 376 1013 l 215 851 l 186 881 z "},"Õ":{"ha":750,"x_min":83,"x_max":661,"o":"m 169 686 l 169 208 l 224 153 l 518 153 l 578 213 l 578 685 l 518 747 l 225 747 l 169 686 m 97 731 l 176 817 q 207 829 188 829 l 536 829 q 567 817 557 829 l 650 731 q 661 701 661 719 l 661 194 q 649 165 661 175 l 564 82 q 535 69 551 69 l 207 69 q 178 81 189 69 l 96 160 q 83 190 83 172 l 83 703 q 97 731 83 717 m 120 982 l 91 1011 l 174 1094 q 203 1107 187 1107 l 294 1107 q 323 1094 313 1107 l 474 943 l 531 943 l 598 1010 l 627 981 l 656 951 l 577 872 q 548 860 567 860 l 458 860 q 428 872 441 860 l 277 1024 l 220 1024 l 149 953 l 120 982 z "},"Ö":{"ha":750,"x_min":83,"x_max":661,"o":"m 169 686 l 169 208 l 224 153 l 518 153 l 578 213 l 578 685 l 518 747 l 225 747 l 169 686 m 97 731 l 176 817 q 207 829 188 829 l 536 829 q 567 817 557 829 l 650 731 q 661 701 661 719 l 661 194 q 649 165 661 175 l 564 82 q 535 69 551 69 l 207 69 q 178 81 189 69 l 96 160 q 83 190 83 172 l 83 703 q 97 731 83 717 m 211 999 l 299 999 l 299 914 l 211 914 l 211 999 m 467 999 l 553 999 l 553 914 l 467 914 l 467 999 z "},"×":{"ha":750,"x_min":132,"x_max":611,"o":"m 132 629 l 192 689 l 371 508 l 551 689 l 611 629 l 431 449 l 611 268 l 551 210 l 371 389 l 192 210 l 132 268 l 313 449 l 132 629 z "},"Ø":{"ha":750,"x_min":76,"x_max":668,"o":"m 585 600 l 174 194 l 217 153 l 525 153 l 585 213 l 585 600 m 567 703 l 525 747 l 218 747 l 163 686 l 163 301 l 567 703 m 90 731 l 169 817 q 200 829 181 829 l 543 829 q 574 817 564 829 l 657 731 q 668 701 668 719 l 668 194 q 656 165 668 175 l 571 82 q 542 69 558 69 l 200 69 q 171 81 182 69 l 89 160 q 76 190 76 172 l 76 703 q 90 731 76 717 z "},"Ù":{"ha":750,"x_min":83,"x_max":661,"o":"m 83 829 l 164 829 l 164 211 l 224 153 l 521 153 l 578 213 l 578 829 l 661 829 l 661 196 q 650 168 661 179 l 569 83 q 539 69 556 69 l 206 69 q 176 82 189 69 l 94 164 q 83 193 83 175 l 83 829 m 164 1088 q 194 1099 175 1099 q 224 1088 213 1099 l 397 915 q 408 886 408 904 q 397 856 408 867 q 367 844 386 844 q 338 856 349 844 l 164 1029 q 153 1058 153 1040 q 164 1088 153 1078 z "},"Ú":{"ha":750,"x_min":83,"x_max":661,"o":"m 83 829 l 164 829 l 164 211 l 224 153 l 521 153 l 578 213 l 578 829 l 661 829 l 661 196 q 650 168 661 179 l 569 83 q 539 69 556 69 l 206 69 q 176 82 189 69 l 94 164 q 83 193 83 175 l 83 829 m 365 847 q 336 860 349 847 q 324 889 324 872 q 336 919 324 907 l 503 1088 q 532 1100 515 1100 q 563 1088 550 1100 q 575 1057 575 1075 q 563 1028 575 1040 l 396 860 q 365 847 383 847 z "},"Û":{"ha":750,"x_min":83,"x_max":661,"o":"m 83 829 l 164 829 l 164 211 l 224 153 l 521 153 l 578 213 l 578 829 l 661 829 l 661 196 q 650 168 661 179 l 569 83 q 539 69 556 69 l 206 69 q 176 82 189 69 l 94 164 q 83 193 83 175 l 83 829 m 171 881 l 142 910 l 332 1100 q 360 1111 343 1111 q 390 1100 379 1111 l 581 910 l 551 881 l 522 851 l 361 1013 l 200 851 l 171 881 z "},"Ü":{"ha":750,"x_min":83,"x_max":661,"o":"m 83 829 l 164 829 l 164 211 l 224 153 l 521 153 l 578 213 l 578 829 l 661 829 l 661 196 q 650 168 661 179 l 569 83 q 539 69 556 69 l 206 69 q 176 82 189 69 l 94 164 q 83 193 83 175 l 83 829 m 186 1003 l 274 1003 l 274 918 l 186 918 l 186 1003 m 442 1003 l 528 1003 l 528 918 l 442 918 l 442 1003 z "},"Ý":{"ha":750,"x_min":83,"x_max":661,"o":"m 414 515 l 414 69 l 329 69 l 329 515 l 96 757 q 83 786 83 769 l 83 829 l 167 829 l 167 803 l 374 592 l 578 803 l 578 829 l 661 829 l 661 789 q 650 758 661 769 l 414 515 m 364 847 q 335 860 347 847 q 322 889 322 872 q 335 919 322 907 l 501 1088 q 531 1100 514 1100 q 561 1088 549 1100 q 574 1057 574 1075 q 561 1028 574 1040 l 394 860 q 364 847 382 847 z "},"Þ":{"ha":750,"x_min":76,"x_max":667,"o":"m 76 829 l 157 829 l 157 704 l 457 704 q 486 692 474 704 l 656 524 q 667 493 667 513 l 667 407 q 656 378 667 389 l 486 208 q 457 196 474 196 l 157 196 l 157 69 l 76 69 l 76 829 m 157 621 l 157 279 l 439 279 l 583 425 l 583 476 l 440 621 l 157 621 z "},"ß":{"ha":750,"x_min":76,"x_max":665,"o":"m 76 715 q 76 719 76 717 q 76 723 76 722 q 76 726 76 725 q 78 731 77 728 q 81 736 80 735 q 88 744 82 739 l 256 903 l 260 907 q 262 908 260 908 q 264 910 263 909 q 268 913 265 910 q 272 915 271 915 l 278 915 l 283 915 l 376 915 q 380 916 378 915 q 384 916 383 916 q 388 915 386 916 q 392 912 389 915 q 397 908 396 909 q 406 901 400 907 l 485 818 l 489 814 q 490 812 490 813 q 492 810 491 810 q 494 801 494 804 q 495 799 494 801 q 496 796 496 797 l 496 790 l 496 704 l 496 699 q 495 697 496 698 q 494 694 494 695 q 494 692 494 694 q 493 689 493 690 q 492 685 493 686 q 490 683 491 684 q 489 681 490 681 q 487 679 488 680 q 485 678 485 678 l 429 618 l 654 393 q 661 385 660 388 q 664 376 664 379 q 665 374 664 376 q 665 371 665 372 l 665 365 l 665 194 q 663 183 665 192 q 660 175 663 181 q 653 167 658 172 l 574 89 q 565 82 568 83 q 560 80 564 81 q 556 78 557 78 q 546 74 547 74 l 371 74 l 365 74 l 361 74 q 356 76 360 74 q 351 79 353 78 q 343 86 349 81 l 258 169 l 314 225 l 386 156 l 529 156 l 586 211 l 586 349 l 344 589 q 338 597 339 594 q 336 602 337 599 q 335 607 335 606 q 333 617 333 610 l 333 626 q 338 636 333 628 q 344 644 339 639 l 417 721 l 417 775 l 360 835 l 299 835 l 154 699 l 154 68 l 76 68 l 76 715 z "},"à":{"ha":750,"x_min":79,"x_max":668,"o":"m 500 150 l 500 325 l 221 325 l 161 264 l 161 213 l 219 150 l 500 150 m 583 150 l 668 150 l 668 69 l 201 69 q 172 82 185 69 l 92 168 q 79 197 79 181 l 79 281 q 92 310 79 297 l 174 394 q 203 406 185 406 l 500 406 l 500 521 l 443 579 l 160 579 l 160 661 l 460 661 q 489 649 476 661 l 571 565 q 583 538 583 553 l 583 150 m 174 983 q 204 994 185 994 q 233 983 222 994 l 407 811 q 418 782 418 800 q 407 751 418 763 q 376 740 396 740 q 347 751 358 740 l 174 925 q 163 954 163 936 q 174 983 163 974 z "},"á":{"ha":750,"x_min":79,"x_max":668,"o":"m 500 150 l 500 325 l 221 325 l 161 264 l 161 213 l 219 150 l 500 150 m 583 150 l 668 150 l 668 69 l 201 69 q 172 82 185 69 l 92 168 q 79 197 79 181 l 79 281 q 92 310 79 297 l 174 394 q 203 406 185 406 l 500 406 l 500 521 l 443 579 l 160 579 l 160 661 l 460 661 q 489 649 476 661 l 571 565 q 583 538 583 553 l 583 150 m 358 746 q 329 758 342 746 q 317 788 317 771 q 329 818 317 806 l 496 986 q 525 999 508 999 q 556 986 543 999 q 568 956 568 974 q 556 926 568 939 l 389 758 q 358 746 376 746 z "},"â":{"ha":750,"x_min":79,"x_max":668,"o":"m 500 150 l 500 325 l 221 325 l 161 264 l 161 213 l 219 150 l 500 150 m 583 150 l 668 150 l 668 69 l 201 69 q 172 82 185 69 l 92 168 q 79 197 79 181 l 79 281 q 92 310 79 297 l 174 394 q 203 406 185 406 l 500 406 l 500 521 l 443 579 l 160 579 l 160 661 l 460 661 q 489 649 476 661 l 571 565 q 583 538 583 553 l 583 150 m 168 758 l 139 788 l 329 978 q 357 989 340 989 q 388 978 376 989 l 578 788 l 549 758 l 519 729 l 358 890 l 197 729 l 168 758 z "},"ã":{"ha":750,"x_min":79,"x_max":668,"o":"m 500 150 l 500 325 l 221 325 l 161 264 l 161 213 l 219 150 l 500 150 m 583 150 l 668 150 l 668 69 l 201 69 q 172 82 185 69 l 92 168 q 79 197 79 181 l 79 281 q 92 310 79 297 l 174 394 q 203 406 185 406 l 500 406 l 500 521 l 443 579 l 160 579 l 160 661 l 460 661 q 489 649 476 661 l 571 565 q 583 538 583 553 l 583 150 m 129 871 l 100 900 l 183 983 q 213 996 196 996 l 303 996 q 332 983 322 996 l 483 832 l 540 832 l 607 899 l 636 869 l 665 840 l 586 761 q 557 749 576 749 l 467 749 q 438 761 450 749 l 286 913 l 229 913 l 158 842 l 129 871 z "},"ä":{"ha":750,"x_min":79,"x_max":668,"o":"m 500 150 l 500 325 l 221 325 l 161 264 l 161 213 l 219 150 l 500 150 m 583 150 l 668 150 l 668 69 l 201 69 q 172 82 185 69 l 92 168 q 79 197 79 181 l 79 281 q 92 310 79 297 l 174 394 q 203 406 185 406 l 500 406 l 500 521 l 443 579 l 160 579 l 160 661 l 460 661 q 489 649 476 661 l 571 565 q 583 538 583 553 l 583 150 m 146 917 l 233 917 l 233 832 l 146 832 l 146 917 m 401 917 l 488 917 l 488 832 l 401 832 l 401 917 z "},"å":{"ha":750,"x_min":79,"x_max":668,"o":"m 500 150 l 500 325 l 221 325 l 161 264 l 161 213 l 219 150 l 500 150 m 583 150 l 668 150 l 668 69 l 201 69 q 172 82 185 69 l 92 168 q 79 197 79 181 l 79 281 q 92 310 79 297 l 174 394 q 203 406 185 406 l 500 406 l 500 521 l 443 579 l 160 579 l 160 661 l 460 661 q 489 649 476 661 l 571 565 q 583 538 583 553 l 583 150 m 244 1033 q 268 1057 244 1033 q 360 1082 292 1082 q 476 1033 428 1082 q 524 914 524 983 q 476 795 524 844 q 360 746 428 746 q 244 795 292 746 q 196 914 196 844 q 244 1033 196 983 m 300 978 q 288 965 300 978 q 275 914 275 951 q 300 851 275 876 q 360 825 325 825 q 419 851 394 825 q 444 914 444 876 q 419 978 444 951 q 360 1004 394 1004 q 300 978 325 1004 z "},"æ":{"ha":750,"x_min":75,"x_max":671,"o":"m 331 408 l 306 408 l 158 264 l 158 210 l 219 151 l 271 151 l 331 213 l 331 408 m 331 492 l 331 517 l 269 576 l 75 576 l 75 660 l 286 660 q 315 649 304 660 l 371 594 l 426 649 q 456 660 438 660 l 544 660 q 574 649 563 660 l 658 565 q 671 535 671 553 l 671 321 l 414 321 l 414 211 l 474 151 l 667 151 l 667 68 l 456 68 q 426 81 439 68 l 372 136 l 318 81 q 289 68 307 68 l 203 68 q 174 79 185 68 l 88 163 q 75 193 75 175 l 75 282 q 88 311 75 299 l 260 479 q 289 492 272 492 l 331 492 m 414 408 l 588 408 l 588 518 l 526 576 l 472 576 l 414 521 l 414 408 z "},"ç":{"ha":750,"x_min":79,"x_max":586,"o":"m 586 660 l 586 578 l 304 578 l 161 433 l 161 296 l 308 151 l 586 151 l 586 71 l 482 71 l 482 -152 q 469 -181 482 -170 l 392 -259 q 363 -272 381 -272 l 236 -272 l 236 -188 l 345 -188 l 399 -135 l 399 71 l 292 71 q 263 82 274 71 l 92 250 q 79 279 79 263 l 79 450 q 92 479 79 467 l 258 647 q 286 660 271 660 l 586 660 z "},"è":{"ha":750,"x_min":79,"x_max":586,"o":"m 161 321 l 161 211 l 221 149 l 586 149 l 586 71 l 204 71 q 176 82 188 71 l 90 165 q 79 194 79 176 l 79 531 q 93 558 79 544 l 178 646 q 208 661 193 661 l 460 661 q 489 646 474 661 l 571 560 q 583 532 583 547 l 583 321 l 161 321 m 163 407 l 503 407 l 503 515 l 443 576 l 224 576 l 163 514 l 163 407 m 172 983 q 203 994 183 994 q 232 983 221 994 l 406 811 q 417 782 417 800 q 406 751 417 763 q 375 740 394 740 q 346 751 357 740 l 172 925 q 161 954 161 936 q 172 983 161 974 z "},"é":{"ha":750,"x_min":79,"x_max":586,"o":"m 161 321 l 161 211 l 221 149 l 586 149 l 586 71 l 204 71 q 176 82 188 71 l 90 165 q 79 194 79 176 l 79 531 q 93 558 79 544 l 178 646 q 208 661 193 661 l 460 661 q 489 646 474 661 l 571 560 q 583 532 583 547 l 583 321 l 161 321 m 163 407 l 503 407 l 503 515 l 443 576 l 224 576 l 163 514 l 163 407 m 375 746 q 346 758 358 746 q 333 788 333 771 q 346 818 333 806 l 513 986 q 542 999 525 999 q 572 986 560 999 q 585 956 585 974 q 572 926 585 939 l 406 758 q 375 746 393 746 z "},"ê":{"ha":750,"x_min":79,"x_max":586,"o":"m 161 321 l 161 211 l 221 149 l 586 149 l 586 71 l 204 71 q 176 82 188 71 l 90 165 q 79 194 79 176 l 79 531 q 93 558 79 544 l 178 646 q 208 661 193 661 l 460 661 q 489 646 474 661 l 571 560 q 583 532 583 547 l 583 321 l 161 321 m 163 407 l 503 407 l 503 515 l 443 576 l 224 576 l 163 514 l 163 407 m 153 758 l 124 788 l 314 978 q 342 989 325 989 q 372 978 361 989 l 563 788 l 533 758 l 504 729 l 343 890 l 182 729 l 153 758 z "},"ë":{"ha":750,"x_min":79,"x_max":586,"o":"m 161 321 l 161 211 l 221 149 l 586 149 l 586 71 l 204 71 q 176 82 188 71 l 90 165 q 79 194 79 176 l 79 531 q 93 558 79 544 l 178 646 q 208 661 193 661 l 460 661 q 489 646 474 661 l 571 560 q 583 532 583 547 l 583 321 l 161 321 m 163 407 l 503 407 l 503 515 l 443 576 l 224 576 l 163 514 l 163 407 m 146 914 l 233 914 l 233 829 l 146 829 l 146 914 m 401 914 l 488 914 l 488 829 l 401 829 l 401 914 z "},"ì":{"ha":750,"x_min":168,"x_max":424,"o":"m 329 661 l 414 661 l 414 68 l 329 68 l 329 661 m 179 986 q 210 997 190 997 q 239 986 228 997 l 413 814 q 424 785 424 803 q 413 754 424 765 q 382 743 401 743 q 353 754 364 743 l 179 928 q 168 957 168 939 q 179 986 168 977 z "},"í":{"ha":750,"x_min":326,"x_max":578,"o":"m 326 661 l 414 661 l 414 68 l 326 68 l 326 661 m 368 744 q 339 757 351 744 q 326 786 326 769 q 339 817 326 804 l 506 985 q 535 997 518 997 q 565 985 553 997 q 578 954 578 972 q 565 925 578 938 l 399 757 q 368 744 386 744 z "},"î":{"ha":750,"x_min":156,"x_max":594,"o":"m 329 661 l 414 661 l 414 68 l 329 68 l 329 661 m 185 711 l 156 740 l 346 931 q 374 942 357 942 q 404 931 393 942 l 594 740 l 565 711 l 536 682 l 375 843 l 214 682 l 185 711 z "},"ï":{"ha":750,"x_min":196,"x_max":538,"o":"m 329 661 l 414 661 l 414 68 l 329 68 l 329 661 m 451 913 l 538 913 l 538 828 l 451 828 l 451 913 m 196 913 l 283 913 l 283 828 l 196 828 l 196 913 z "},"ð":{"ha":750,"x_min":0,"x_max":0,"o":""},"ñ":{"ha":750,"x_min":79,"x_max":654,"o":"m 229 614 l 263 647 q 292 660 275 660 l 464 660 q 492 649 481 660 l 574 568 q 586 539 586 556 l 586 71 l 507 71 l 507 522 l 447 576 l 308 576 l 250 518 l 250 69 l 167 69 l 167 535 q 172 551 167 538 l 147 579 l 79 579 l 79 661 l 167 661 q 193 649 183 661 l 229 614 m 118 871 l 89 900 l 172 983 q 201 996 185 996 l 292 996 q 321 983 311 996 l 472 832 l 529 832 l 596 899 l 625 869 l 654 840 l 575 761 q 546 749 565 749 l 456 749 q 426 761 439 749 l 275 913 l 218 913 l 147 842 l 118 871 z "},"ò":{"ha":750,"x_min":79,"x_max":586,"o":"m 163 519 l 163 211 l 222 153 l 447 153 l 503 211 l 503 519 l 449 581 l 222 581 l 163 519 m 93 565 l 178 653 q 206 663 188 663 l 467 663 q 497 649 483 663 l 575 561 q 586 535 586 550 l 586 194 q 574 165 586 178 l 493 83 q 469 74 485 74 l 464 74 l 206 74 q 178 83 191 74 l 92 164 q 79 194 79 175 l 79 538 q 93 565 79 551 m 132 983 q 163 994 143 994 q 192 983 181 994 l 365 811 q 376 782 376 800 q 365 751 376 763 q 335 740 354 740 q 306 751 317 740 l 132 925 q 121 954 121 936 q 132 983 121 974 z "},"ó":{"ha":750,"x_min":79,"x_max":586,"o":"m 163 519 l 163 211 l 222 153 l 447 153 l 503 211 l 503 519 l 449 581 l 222 581 l 163 519 m 93 565 l 178 653 q 206 663 188 663 l 467 663 q 497 649 483 663 l 575 561 q 586 535 586 550 l 586 194 q 574 165 586 178 l 493 83 q 469 74 485 74 l 464 74 l 206 74 q 178 83 191 74 l 92 164 q 79 194 79 175 l 79 538 q 93 565 79 551 m 322 746 q 293 758 306 746 q 281 788 281 771 q 293 818 281 806 l 460 986 q 489 999 472 999 q 519 986 507 999 q 532 956 532 974 q 519 926 532 939 l 353 758 q 322 746 340 746 z "},"ô":{"ha":750,"x_min":79,"x_max":586,"o":"m 163 519 l 163 211 l 222 153 l 447 153 l 503 211 l 503 519 l 449 581 l 222 581 l 163 519 m 93 565 l 178 653 q 206 663 188 663 l 467 663 q 497 649 483 663 l 575 561 q 586 535 586 550 l 586 194 q 574 165 586 178 l 493 83 q 469 74 485 74 l 464 74 l 206 74 q 178 83 191 74 l 92 164 q 79 194 79 175 l 79 538 q 93 565 79 551 m 136 758 l 107 788 l 297 978 q 325 989 308 989 q 356 978 344 989 l 546 788 l 517 758 l 488 729 l 326 890 l 165 729 l 136 758 z "},"õ":{"ha":750,"x_min":47,"x_max":613,"o":"m 163 519 l 163 211 l 222 153 l 447 153 l 503 211 l 503 519 l 449 581 l 222 581 l 163 519 m 93 565 l 178 653 q 206 663 188 663 l 467 663 q 497 649 483 663 l 575 561 q 586 535 586 550 l 586 194 q 574 165 586 178 l 493 83 q 469 74 485 74 l 464 74 l 206 74 q 178 83 191 74 l 92 164 q 79 194 79 175 l 79 538 q 93 565 79 551 m 76 871 l 47 900 l 131 983 q 160 996 143 996 l 250 996 q 279 983 269 996 l 431 832 l 488 832 l 554 899 l 583 869 l 613 840 l 533 761 q 504 749 524 749 l 414 749 q 385 761 397 749 l 233 913 l 176 913 l 106 842 l 76 871 z "},"ö":{"ha":750,"x_min":79,"x_max":586,"o":"m 163 519 l 163 211 l 222 153 l 447 153 l 503 211 l 503 519 l 449 581 l 222 581 l 163 519 m 93 565 l 178 653 q 206 663 188 663 l 467 663 q 497 649 483 663 l 575 561 q 586 535 586 550 l 586 194 q 574 165 586 178 l 493 83 q 469 74 485 74 l 464 74 l 206 74 q 178 83 191 74 l 92 164 q 79 194 79 175 l 79 538 q 93 565 79 551 m 144 914 l 232 914 l 232 829 l 144 829 l 144 914 m 400 914 l 486 914 l 486 829 l 400 829 l 400 914 z "},"÷":{"ha":750,"x_min":75,"x_max":668,"o":"m 288 788 l 457 788 l 457 618 l 288 618 l 288 788 m 75 492 l 668 492 l 668 407 l 75 407 l 75 492 m 288 279 l 457 279 l 457 110 l 288 110 l 288 279 z "},"ø":{"ha":750,"x_min":88,"x_max":658,"o":"m 483 535 l 442 578 l 304 578 l 243 518 l 243 292 l 483 535 m 499 432 l 263 196 l 301 153 l 442 153 l 499 211 l 499 432 m 583 515 l 583 194 q 569 165 583 179 l 488 82 q 458 72 478 72 l 285 72 q 256 85 268 72 l 203 136 l 146 79 l 88 138 l 160 210 l 160 535 q 172 564 160 551 l 257 649 q 286 663 271 663 l 460 663 q 490 653 481 663 l 543 593 l 600 653 l 658 592 l 583 515 z "},"ù":{"ha":750,"x_min":81,"x_max":668,"o":"m 518 117 l 485 83 q 456 71 472 71 l 203 71 q 175 82 186 71 l 93 163 q 81 192 81 175 l 81 661 l 163 661 l 163 208 l 219 151 l 439 151 l 497 213 l 497 661 l 581 661 l 581 196 q 575 179 581 193 l 600 151 l 668 151 l 668 71 l 583 71 q 554 82 563 71 l 518 117 m 171 983 q 201 994 182 994 q 231 983 219 994 l 404 811 q 415 782 415 800 q 404 751 415 763 q 374 740 393 740 q 344 751 356 740 l 171 925 q 160 954 160 936 q 171 983 160 974 z "},"ú":{"ha":750,"x_min":81,"x_max":668,"o":"m 518 117 l 485 83 q 456 71 472 71 l 203 71 q 175 82 186 71 l 93 163 q 81 192 81 175 l 81 661 l 163 661 l 163 208 l 219 151 l 439 151 l 497 213 l 497 661 l 581 661 l 581 196 q 575 179 581 193 l 600 151 l 668 151 l 668 71 l 583 71 q 554 82 563 71 l 518 117 m 360 746 q 331 758 343 746 q 318 788 318 771 q 331 818 318 806 l 497 986 q 526 999 510 999 q 557 986 544 999 q 569 956 569 974 q 557 926 569 939 l 390 758 q 360 746 378 746 z "},"û":{"ha":750,"x_min":81,"x_max":668,"o":"m 518 117 l 485 83 q 456 71 472 71 l 203 71 q 175 82 186 71 l 93 163 q 81 192 81 175 l 81 661 l 163 661 l 163 208 l 219 151 l 439 151 l 497 213 l 497 661 l 581 661 l 581 196 q 575 179 581 193 l 600 151 l 668 151 l 668 71 l 583 71 q 554 82 563 71 l 518 117 m 174 758 l 144 788 l 335 978 q 363 989 346 989 q 393 978 382 989 l 583 788 l 554 758 l 525 729 l 364 890 l 203 729 l 174 758 z "},"ü":{"ha":750,"x_min":81,"x_max":668,"o":"m 518 117 l 485 83 q 456 71 472 71 l 203 71 q 175 82 186 71 l 93 163 q 81 192 81 175 l 81 661 l 163 661 l 163 208 l 219 151 l 439 151 l 497 213 l 497 661 l 581 661 l 581 196 q 575 179 581 193 l 600 151 l 668 151 l 668 71 l 583 71 q 554 82 563 71 l 518 117 m 189 831 l 276 831 l 276 746 l 189 746 l 189 831 m 444 831 l 531 831 l 531 746 l 444 746 l 444 831 z "},"ý":{"ha":750,"x_min":79,"x_max":585,"o":"m 315 108 l 92 335 q 79 364 79 347 l 79 661 l 163 661 l 163 381 l 375 168 l 501 294 l 501 661 l 585 661 l 585 278 q 572 249 585 261 l 146 -178 l 88 -119 l 315 108 m 319 746 q 290 758 303 746 q 278 788 278 771 q 290 818 278 806 l 457 986 q 486 999 469 999 q 517 986 504 999 q 529 956 529 974 q 517 926 529 939 l 350 758 q 319 746 338 746 z "},"þ":{"ha":750,"x_min":83,"x_max":593,"o":"m 83 915 l 169 915 l 169 658 l 383 658 q 414 646 401 658 l 581 478 q 593 449 593 465 l 593 279 q 581 250 593 263 l 411 79 q 382 67 399 67 l 169 67 l 169 -186 l 83 -186 l 83 915 m 169 575 l 169 150 l 365 150 l 510 296 l 510 432 l 367 575 l 169 575 z "},"ÿ":{"ha":750,"x_min":69,"x_max":575,"o":"m 306 108 l 82 335 q 69 364 69 347 l 69 661 l 153 661 l 153 381 l 365 168 l 492 294 l 492 661 l 575 661 l 575 278 q 563 249 575 261 l 136 -178 l 78 -119 l 306 108 m 139 831 l 226 831 l 226 746 l 139 746 l 139 831 m 394 831 l 481 831 l 481 746 l 394 746 l 394 831 z "},"Ā":{"ha":750,"x_min":74,"x_max":651,"o":"m 156 339 l 156 68 l 74 68 l 74 538 q 86 565 74 553 l 332 817 q 360 829 342 829 q 392 817 379 829 l 640 564 q 651 535 651 553 l 651 68 l 568 68 l 568 339 l 156 339 m 157 417 l 568 417 l 568 518 l 361 726 l 157 519 l 157 417 m 122 999 l 576 999 l 576 914 l 122 914 l 122 999 z "},"ā":{"ha":750,"x_min":69,"x_max":658,"o":"m 490 150 l 490 325 l 211 325 l 151 264 l 151 213 l 210 150 l 490 150 m 574 150 l 658 150 l 658 69 l 192 69 q 163 82 175 69 l 82 168 q 69 197 69 181 l 69 281 q 82 310 69 297 l 164 394 q 193 406 175 406 l 490 406 l 490 521 l 433 579 l 150 579 l 150 661 l 450 661 q 479 649 467 661 l 561 565 q 574 538 574 553 l 574 150 m 140 831 l 594 831 l 594 746 l 140 746 l 140 831 z "},"Ă":{"ha":750,"x_min":79,"x_max":667,"o":"m 246 957 q 258 986 246 974 q 286 999 271 999 q 317 986 304 999 l 374 929 l 432 986 q 460 999 444 999 q 490 985 477 999 q 503 956 503 972 q 490 926 503 939 l 403 840 q 372 829 392 829 q 344 840 356 829 l 258 926 q 246 957 246 939 m 161 322 l 161 68 l 79 68 l 79 451 q 92 481 79 468 l 342 732 q 369 744 354 744 q 400 732 388 744 l 654 479 q 667 450 667 467 l 667 68 l 583 68 l 583 322 l 161 322 m 163 407 l 583 407 l 583 433 l 371 644 l 163 433 l 163 407 z "},"ă":{"ha":750,"x_min":79,"x_max":668,"o":"m 500 150 l 500 325 l 221 325 l 161 264 l 161 213 l 219 150 l 500 150 m 583 150 l 668 150 l 668 69 l 201 69 q 172 82 185 69 l 92 168 q 79 197 79 181 l 79 281 q 92 310 79 297 l 174 394 q 203 406 185 406 l 500 406 l 500 521 l 443 579 l 160 579 l 160 661 l 460 661 q 489 649 476 661 l 571 565 q 583 538 583 553 l 583 150 m 243 875 q 256 903 243 890 q 283 915 268 915 q 314 903 301 915 l 371 846 l 429 903 q 457 915 442 915 q 488 903 475 915 q 500 872 500 890 q 488 844 500 857 l 400 758 q 369 746 388 746 q 342 758 354 746 l 256 844 q 243 875 243 857 z "},"Ą":{"ha":750,"x_min":83,"x_max":728,"o":"m 167 417 l 578 417 l 578 518 l 371 726 l 167 519 l 167 417 m 165 339 l 165 68 l 83 68 l 83 538 q 96 565 83 553 l 342 817 q 369 829 352 829 q 401 817 389 829 l 650 564 q 661 535 661 553 l 661 111 l 667 111 l 667 42 l 697 10 l 728 10 l 728 -71 l 679 -71 q 651 -58 664 -71 l 599 -1 l 592 7 q 588 19 588 11 l 588 68 l 578 68 l 578 339 l 165 339 z "},"ą":{"ha":750,"x_min":79,"x_max":668,"o":"m 583 150 l 668 150 l 668 69 l 583 69 l 583 43 l 614 11 l 644 11 l 644 -69 l 596 -69 q 568 -57 581 -69 l 515 0 l 508 8 q 504 21 504 13 l 504 69 l 201 69 q 172 82 185 69 l 92 168 q 79 197 79 181 l 79 281 q 92 310 79 297 l 174 394 q 203 406 185 406 l 500 406 l 500 521 l 443 579 l 160 579 l 160 661 l 460 661 q 489 649 476 661 l 571 565 q 583 538 583 553 l 583 150 m 500 150 l 500 325 l 221 325 l 161 264 l 161 213 l 219 150 l 500 150 z "},"Ć":{"ha":750,"x_min":74,"x_max":679,"o":"m 651 735 l 593 676 l 519 747 l 385 747 l 157 519 l 157 379 l 386 151 l 518 151 l 590 228 l 651 169 l 567 81 q 536 68 554 68 l 369 68 q 340 82 354 68 l 86 332 q 74 361 74 344 l 74 536 q 85 565 74 554 l 339 818 q 368 829 350 829 l 536 829 q 565 819 556 829 l 651 735 m 469 850 q 440 863 453 850 q 428 892 428 875 q 440 922 428 910 l 607 1090 q 636 1103 619 1103 q 667 1090 654 1103 q 679 1060 679 1078 q 667 1031 679 1043 l 500 863 q 469 850 488 850 z "},"ć":{"ha":750,"x_min":69,"x_max":624,"o":"m 576 660 l 576 578 l 294 578 l 151 433 l 151 296 l 299 151 l 576 151 l 576 71 l 282 71 q 253 82 264 71 l 82 250 q 69 279 69 263 l 69 450 q 82 479 69 467 l 249 647 q 276 660 261 660 l 576 660 m 414 746 q 385 758 397 746 q 372 788 372 771 q 385 818 372 806 l 551 986 q 581 999 564 999 q 611 986 599 999 q 624 956 624 974 q 611 926 624 939 l 444 758 q 414 746 432 746 z "},"Ĉ":{"ha":750,"x_min":74,"x_max":665,"o":"m 651 735 l 593 676 l 519 747 l 385 747 l 157 519 l 157 379 l 386 151 l 518 151 l 590 228 l 651 169 l 567 81 q 536 68 554 68 l 369 68 q 340 82 354 68 l 86 332 q 74 361 74 344 l 74 536 q 85 565 74 554 l 339 818 q 368 829 350 829 l 536 829 q 565 819 556 829 l 651 735 m 256 882 l 226 911 l 417 1101 q 444 1113 428 1113 q 475 1101 464 1113 l 665 911 l 636 882 l 607 853 l 446 1014 l 285 853 l 256 882 z "},"ĉ":{"ha":750,"x_min":69,"x_max":638,"o":"m 576 660 l 576 578 l 294 578 l 151 433 l 151 296 l 299 151 l 576 151 l 576 71 l 282 71 q 253 82 264 71 l 82 250 q 69 279 69 263 l 69 450 q 82 479 69 467 l 249 647 q 276 660 261 660 l 576 660 m 228 758 l 199 788 l 389 978 q 417 989 400 989 q 447 978 436 989 l 638 788 l 608 758 l 579 729 l 418 890 l 257 729 l 228 758 z "},"Ċ":{"ha":750,"x_min":74,"x_max":651,"o":"m 651 735 l 593 676 l 519 747 l 385 747 l 157 519 l 157 379 l 386 151 l 518 151 l 590 228 l 651 169 l 567 81 q 536 68 554 68 l 369 68 q 340 82 354 68 l 86 332 q 74 361 74 344 l 74 536 q 85 565 74 554 l 339 818 q 368 829 350 829 l 536 829 q 565 819 556 829 l 651 735 m 395 898 q 384 909 395 898 q 372 953 372 921 q 395 1008 372 985 q 450 1031 418 1031 q 505 1008 482 1031 q 528 953 528 985 q 505 898 528 921 q 450 875 482 875 q 395 898 418 875 z "},"ċ":{"ha":750,"x_min":69,"x_max":576,"o":"m 576 660 l 576 578 l 294 578 l 151 433 l 151 296 l 299 151 l 576 151 l 576 71 l 282 71 q 253 82 264 71 l 82 250 q 69 279 69 263 l 69 450 q 82 479 69 467 l 249 647 q 276 660 261 660 l 576 660 m 281 805 q 270 816 281 805 q 258 860 258 828 q 281 915 258 892 q 336 938 304 938 q 391 915 368 938 q 414 860 414 892 q 391 805 414 828 q 336 782 368 782 q 281 805 304 782 z "},"Č":{"ha":750,"x_min":74,"x_max":674,"o":"m 651 735 l 593 676 l 519 747 l 385 747 l 157 519 l 157 379 l 386 151 l 518 151 l 590 228 l 651 169 l 567 81 q 536 68 554 68 l 369 68 q 340 82 354 68 l 86 332 q 74 361 74 344 l 74 536 q 85 565 74 554 l 339 818 q 368 829 350 829 l 536 829 q 565 819 556 829 l 651 735 m 644 1075 l 674 1046 l 483 856 q 456 844 472 844 q 425 856 436 844 l 235 1046 l 264 1075 l 293 1104 l 454 943 l 615 1104 l 644 1075 z "},"č":{"ha":750,"x_min":69,"x_max":657,"o":"m 576 660 l 576 578 l 294 578 l 151 433 l 151 296 l 299 151 l 576 151 l 576 71 l 282 71 q 253 82 264 71 l 82 250 q 69 279 69 263 l 69 450 q 82 479 69 467 l 249 647 q 276 660 261 660 l 576 660 m 628 963 l 657 933 l 467 743 q 439 732 456 732 q 408 743 419 732 l 218 933 l 247 963 l 276 992 l 438 831 l 599 992 l 628 963 z "},"Ď":{"ha":750,"x_min":74,"x_max":651,"o":"m 239 153 l 425 153 l 568 296 l 568 601 l 425 747 l 239 747 l 239 153 m 156 747 l 74 747 l 74 829 l 443 829 q 472 817 460 829 l 639 647 q 651 618 651 635 l 651 279 q 639 249 651 261 l 471 82 q 442 68 457 68 l 74 68 l 74 151 l 156 151 l 156 747 m 564 1075 l 593 1046 l 403 856 q 375 844 392 844 q 344 856 356 844 l 154 1046 l 183 1075 l 213 1104 l 374 943 l 535 1104 l 564 1075 z "},"ď":{"ha":750,"x_min":69,"x_max":576,"o":"m 576 71 l 282 71 q 253 82 264 71 l 82 250 q 69 279 69 263 l 69 450 q 82 479 69 467 l 249 647 q 276 660 261 660 l 493 660 l 493 915 l 576 915 l 576 71 m 493 151 l 493 578 l 294 578 l 151 433 l 151 296 l 299 151 l 493 151 z "},"Đ":{"ha":750,"x_min":75,"x_max":667,"o":"m 160 747 l 75 747 l 75 829 l 458 829 q 488 817 478 829 l 654 647 q 667 618 667 635 l 667 279 q 654 249 667 261 l 486 82 q 457 68 472 68 l 75 68 l 75 151 l 160 151 l 160 413 l 76 413 l 76 497 l 160 497 l 160 747 m 244 153 l 440 153 l 583 296 l 583 601 l 440 747 l 244 747 l 244 497 l 329 497 l 329 413 l 244 413 l 244 153 z "},"đ":{"ha":750,"x_min":76,"x_max":649,"o":"m 500 151 l 500 578 l 301 578 l 158 433 l 158 296 l 306 151 l 500 151 m 583 71 l 289 71 q 260 82 271 71 l 89 250 q 76 279 76 263 l 76 450 q 89 479 76 467 l 256 647 q 283 660 268 660 l 500 660 l 500 736 l 299 736 l 299 821 l 500 821 l 500 915 l 583 915 l 583 821 l 649 821 l 649 736 l 583 736 l 583 71 z "},"Ē":{"ha":750,"x_min":74,"x_max":651,"o":"m 74 831 l 651 831 l 651 746 l 156 746 l 156 494 l 486 494 l 486 410 l 156 410 l 156 151 l 651 151 l 651 68 l 74 68 l 74 831 m 125 999 l 579 999 l 579 914 l 125 914 l 125 999 z "},"ē":{"ha":750,"x_min":69,"x_max":576,"o":"m 151 321 l 151 211 l 211 149 l 576 149 l 576 71 l 194 71 q 167 82 178 71 l 81 165 q 69 194 69 176 l 69 531 q 83 558 69 544 l 168 646 q 199 661 183 661 l 450 661 q 479 646 464 661 l 561 560 q 574 532 574 547 l 574 321 l 151 321 m 153 407 l 493 407 l 493 515 l 433 576 l 214 576 l 153 514 l 153 407 m 106 831 l 560 831 l 560 746 l 106 746 l 106 831 z "},"Ĕ":{"ha":750,"x_min":75,"x_max":668,"o":"m 157 1040 l 240 1040 q 246 1008 243 1021 q 258 978 250 993 q 278 956 262 972 q 304 933 294 939 q 335 922 315 927 q 365 915 359 915 q 397 922 373 915 q 426 935 412 926 q 451 956 436 940 q 471 979 465 969 q 483 1013 478 992 q 488 1040 488 1027 l 571 1040 q 564 988 571 1008 q 543 939 555 960 q 511 896 530 915 q 469 864 491 876 q 419 843 447 851 q 368 835 386 835 q 314 840 338 835 q 264 861 294 845 q 219 893 241 874 q 186 935 196 917 q 165 985 172 958 q 157 1040 157 1018 m 75 746 l 668 746 l 668 661 l 160 661 l 160 407 l 499 407 l 499 321 l 160 321 l 160 151 l 668 151 l 668 68 l 75 68 l 75 746 z "},"ĕ":{"ha":750,"x_min":79,"x_max":586,"o":"m 157 954 l 240 954 q 246 922 243 935 q 258 892 250 907 q 278 868 264 882 q 304 847 291 855 q 335 836 315 841 q 365 832 349 832 q 397 836 383 832 q 426 849 412 840 q 451 868 440 856 q 471 893 463 880 q 483 926 478 906 q 488 954 488 941 l 571 954 q 564 901 571 922 q 543 853 555 874 q 511 810 530 828 q 469 778 491 790 q 419 757 447 765 q 368 749 386 749 q 314 754 338 749 q 264 775 294 759 q 219 807 241 788 q 186 849 196 831 q 165 899 172 872 q 157 954 157 932 m 161 321 l 161 211 l 221 149 l 586 149 l 586 71 l 204 71 q 176 82 188 71 l 90 165 q 79 194 79 176 l 79 531 q 93 558 79 544 l 178 646 q 208 661 193 661 l 460 661 q 489 646 474 661 l 571 560 q 583 532 583 547 l 583 321 l 161 321 m 163 407 l 503 407 l 503 515 l 443 576 l 224 576 l 163 514 l 163 407 z "},"Ė":{"ha":750,"x_min":74,"x_max":651,"o":"m 74 831 l 651 831 l 651 746 l 156 746 l 156 494 l 486 494 l 486 410 l 156 410 l 156 151 l 651 151 l 651 68 l 74 68 l 74 831 m 316 898 q 305 909 316 898 q 293 953 293 921 q 316 1008 293 985 q 371 1031 339 1031 q 426 1008 403 1031 q 449 953 449 985 q 426 898 449 921 q 371 875 403 875 q 316 898 339 875 z "},"ė":{"ha":750,"x_min":69,"x_max":576,"o":"m 151 321 l 151 211 l 211 149 l 576 149 l 576 71 l 194 71 q 167 82 178 71 l 81 165 q 69 194 69 176 l 69 531 q 83 558 69 544 l 168 646 q 199 661 183 661 l 450 661 q 479 646 464 661 l 561 560 q 574 532 574 547 l 574 321 l 151 321 m 153 407 l 493 407 l 493 515 l 433 576 l 214 576 l 153 514 l 153 407 m 281 805 q 270 816 281 805 q 258 860 258 828 q 281 915 258 892 q 336 938 304 938 q 391 915 368 938 q 414 860 414 892 q 391 805 414 828 q 336 782 368 782 q 281 805 304 782 z "},"Ę":{"ha":750,"x_min":83,"x_max":667,"o":"m 83 831 l 661 831 l 661 746 l 165 746 l 165 494 l 496 494 l 496 410 l 165 410 l 165 151 l 661 151 l 661 68 l 606 68 l 606 43 l 636 11 l 667 11 l 667 -69 l 618 -69 q 590 -57 603 -69 l 538 0 l 531 8 q 526 21 526 13 l 526 68 l 83 68 l 83 831 z "},"ę":{"ha":750,"x_min":79,"x_max":586,"o":"m 450 8 q 446 21 446 13 l 446 71 l 204 71 q 176 82 188 71 l 90 165 q 79 194 79 176 l 79 531 q 93 558 79 544 l 178 646 q 208 661 193 661 l 460 661 q 489 646 474 661 l 571 560 q 583 532 583 547 l 583 321 l 161 321 l 161 211 l 221 149 l 586 149 l 586 71 l 525 71 l 525 43 l 556 11 l 586 11 l 586 -69 l 538 -69 q 510 -57 522 -69 l 457 0 l 450 8 m 163 407 l 503 407 l 503 515 l 443 576 l 224 576 l 163 514 l 163 407 z "},"Ě":{"ha":750,"x_min":74,"x_max":651,"o":"m 74 831 l 651 831 l 651 746 l 156 746 l 156 494 l 486 494 l 486 410 l 156 410 l 156 151 l 651 151 l 651 68 l 74 68 l 74 831 m 564 1075 l 593 1046 l 403 856 q 375 844 392 844 q 344 856 356 844 l 154 1046 l 183 1075 l 213 1104 l 374 943 l 535 1104 l 564 1075 z "},"ě":{"ha":750,"x_min":69,"x_max":576,"o":"m 151 321 l 151 211 l 211 149 l 576 149 l 576 71 l 194 71 q 167 82 178 71 l 81 165 q 69 194 69 176 l 69 531 q 83 558 69 544 l 168 646 q 199 661 183 661 l 450 661 q 479 646 464 661 l 561 560 q 574 532 574 547 l 574 321 l 151 321 m 153 407 l 493 407 l 493 515 l 433 576 l 214 576 l 153 514 l 153 407 m 532 951 l 561 922 l 371 732 q 343 721 360 721 q 313 732 324 721 l 122 922 l 151 951 l 181 981 l 342 819 l 503 981 l 532 951 z "},"Ĝ":{"ha":750,"x_min":74,"x_max":651,"o":"m 321 417 l 651 417 l 651 339 l 569 339 l 569 71 l 282 71 q 253 82 264 71 l 86 247 q 74 276 74 260 l 74 621 q 85 653 74 642 l 251 818 q 281 829 260 829 l 447 829 q 478 818 467 829 l 582 713 l 522 654 l 431 747 l 299 747 l 157 604 l 157 294 l 299 154 l 488 154 l 488 339 l 321 339 l 321 417 m 165 882 l 136 911 l 326 1101 q 354 1113 338 1113 q 385 1101 374 1113 l 575 911 l 546 882 l 517 853 l 356 1014 l 194 853 l 165 882 z "},"ĝ":{"ha":750,"x_min":69,"x_max":615,"o":"m 532 264 l 436 168 q 407 156 426 156 l 275 156 q 246 168 258 156 l 82 332 q 69 361 69 342 l 69 454 q 82 483 69 471 l 250 653 q 279 664 259 664 l 489 664 q 518 653 507 664 l 603 567 q 615 538 615 557 l 615 22 q 603 -7 615 6 l 525 -85 q 496 -97 515 -97 l 272 -97 q 243 -85 256 -97 l 163 -4 l 221 54 l 289 -14 l 479 -14 l 532 39 l 532 264 m 532 381 l 532 521 l 472 581 l 296 581 l 153 438 l 153 378 l 292 239 l 390 239 l 532 381 m 167 758 l 138 788 l 328 978 q 356 989 339 989 q 386 978 375 989 l 576 788 l 547 758 l 518 729 l 357 890 l 196 729 l 167 758 z "},"Ğ":{"ha":750,"x_min":78,"x_max":669,"o":"m 246 957 q 258 986 246 974 q 286 999 271 999 q 317 986 304 999 l 374 929 l 432 986 q 460 999 444 999 q 490 985 478 999 q 503 954 503 972 q 490 926 503 939 l 403 840 q 372 829 392 829 q 344 840 356 829 l 258 926 q 246 957 246 939 m 329 407 l 669 407 l 669 322 l 582 322 l 582 111 q 570 84 582 97 q 539 71 559 71 l 286 71 q 257 82 268 71 l 90 247 q 78 276 78 260 l 78 565 q 89 594 78 583 l 256 763 q 285 775 265 775 l 458 775 q 489 763 476 775 l 572 678 l 513 619 l 442 692 l 303 692 l 161 549 l 161 294 l 303 154 l 499 154 l 499 322 l 329 322 l 329 407 z "},"ğ":{"ha":750,"x_min":76,"x_max":669,"o":"m 246 957 q 258 986 246 974 q 286 999 271 999 q 317 986 304 999 l 374 929 l 432 986 q 460 999 444 999 q 490 985 478 999 q 503 954 503 972 q 490 926 503 939 l 403 840 q 372 829 392 829 q 344 840 356 829 l 258 926 q 246 957 246 939 m 586 321 l 586 521 l 524 579 l 304 579 l 160 435 l 160 378 l 304 238 l 438 238 l 508 308 q 538 321 521 321 l 586 321 m 586 238 l 556 238 l 485 167 q 456 151 472 151 l 288 151 q 258 164 271 151 l 89 331 q 76 360 76 343 l 76 453 q 89 482 76 472 l 258 647 q 288 663 274 663 l 540 663 q 569 653 558 663 l 657 569 q 669 539 669 557 l 669 25 q 657 -4 669 11 l 576 -87 q 546 -100 564 -100 l 288 -100 q 258 -87 271 -100 l 174 -4 l 232 54 l 304 -17 l 528 -17 l 586 42 l 586 238 z "},"Ġ":{"ha":750,"x_min":74,"x_max":651,"o":"m 321 417 l 651 417 l 651 339 l 569 339 l 569 71 l 282 71 q 253 82 264 71 l 86 247 q 74 276 74 260 l 74 621 q 85 653 74 642 l 251 818 q 281 829 260 829 l 447 829 q 478 818 467 829 l 582 713 l 522 654 l 431 747 l 299 747 l 157 604 l 157 294 l 299 154 l 488 154 l 488 339 l 321 339 l 321 417 m 316 898 q 305 909 316 898 q 293 953 293 921 q 316 1008 293 985 q 371 1031 339 1031 q 426 1008 403 1031 q 449 953 449 985 q 426 898 449 921 q 371 875 403 875 q 316 898 339 875 z "},"ġ":{"ha":750,"x_min":69,"x_max":615,"o":"m 532 264 l 436 168 q 407 156 426 156 l 275 156 q 246 168 258 156 l 82 332 q 69 361 69 342 l 69 454 q 82 483 69 471 l 250 653 q 279 664 259 664 l 489 664 q 518 653 507 664 l 603 567 q 615 538 615 557 l 615 22 q 603 -7 615 6 l 525 -85 q 496 -97 515 -97 l 272 -97 q 243 -85 256 -97 l 163 -4 l 221 54 l 289 -14 l 479 -14 l 532 39 l 532 264 m 532 381 l 532 521 l 472 581 l 296 581 l 153 438 l 153 378 l 292 239 l 390 239 l 532 381 m 316 805 q 305 816 316 805 q 293 860 293 828 q 316 915 293 892 q 371 938 339 938 q 426 915 403 938 q 449 860 449 892 q 426 805 449 828 q 371 782 403 782 q 316 805 339 782 z "},"Ģ":{"ha":750,"x_min":74,"x_max":657,"o":"m 657 1104 l 657 893 q 646 865 657 878 l 564 782 q 536 769 551 769 l 526 769 l 582 713 l 522 654 l 431 747 l 299 747 l 157 604 l 157 294 l 299 154 l 488 154 l 488 339 l 321 339 l 321 417 l 651 417 l 651 339 l 569 339 l 569 71 l 282 71 q 253 82 264 71 l 86 247 q 74 276 74 260 l 74 621 q 85 653 74 642 l 251 818 q 281 829 260 829 l 407 829 l 407 849 l 519 849 l 576 908 l 576 1104 l 657 1104 z "},"ģ":{"ha":750,"x_min":79,"x_max":657,"o":"m 542 381 l 542 521 l 482 581 l 306 581 l 163 438 l 163 378 l 301 239 l 400 239 l 542 381 m 542 264 l 446 168 q 417 156 436 156 l 285 156 q 256 168 268 156 l 92 332 q 79 361 79 342 l 79 454 q 92 483 79 471 l 260 653 q 289 664 269 664 l 499 664 q 528 653 517 664 l 613 567 q 625 538 625 557 l 625 22 q 613 -7 625 6 l 535 -85 q 506 -97 525 -97 l 282 -97 q 253 -85 265 -97 l 172 -4 l 231 54 l 299 -14 l 489 -14 l 542 39 l 542 264 m 657 1104 l 657 893 q 646 865 657 878 l 564 782 q 536 769 551 769 l 407 769 l 407 849 l 519 849 l 576 908 l 576 1104 l 657 1104 z "},"Ĥ":{"ha":750,"x_min":83,"x_max":661,"o":"m 83 829 l 165 829 l 165 494 l 579 494 l 579 829 l 661 829 l 661 69 l 579 69 l 579 417 l 165 417 l 165 69 l 83 69 l 83 829 m 185 868 l 156 897 l 346 1088 q 374 1099 357 1099 q 404 1088 393 1099 l 594 897 l 565 868 l 536 839 l 375 1000 l 214 839 l 185 868 z "},"ĥ":{"ha":750,"x_min":79,"x_max":586,"o":"m 79 67 l 79 925 l 153 925 l 324 1096 q 351 1107 335 1107 q 382 1096 371 1107 l 572 906 l 543 876 l 514 847 l 353 1008 l 192 847 l 163 876 l 163 553 l 263 653 q 292 660 271 660 l 457 660 q 486 649 473 660 l 574 565 q 586 535 586 553 l 586 67 l 503 67 l 503 517 l 440 578 l 308 578 l 163 438 l 163 67 l 79 67 z "},"Ħ":{"ha":750,"x_min":39,"x_max":701,"o":"m 75 829 l 160 829 l 160 653 l 585 653 l 585 829 l 668 829 l 668 653 l 701 653 l 701 571 l 668 571 l 668 68 l 585 68 l 585 407 l 160 407 l 160 68 l 75 68 l 75 571 l 39 571 l 39 653 l 75 653 l 75 829 m 585 571 l 160 571 l 160 492 l 585 492 l 585 571 z "},"ħ":{"ha":750,"x_min":39,"x_max":582,"o":"m 72 747 l 39 747 l 39 829 l 72 829 l 72 925 l 156 925 l 156 829 l 349 829 l 349 747 l 156 747 l 156 553 l 256 653 q 285 660 264 660 l 453 660 q 482 649 469 660 l 569 565 q 582 535 582 553 l 582 67 l 499 67 l 499 517 l 436 578 l 301 578 l 156 438 l 156 67 l 72 67 l 72 747 z "},"Ĩ":{"ha":750,"x_min":97,"x_max":663,"o":"m 249 829 l 496 829 l 496 746 l 414 746 l 414 151 l 496 151 l 496 67 l 249 67 l 249 151 l 331 151 l 331 746 l 249 746 l 249 829 m 126 981 l 97 1010 l 181 1093 q 210 1106 193 1106 l 300 1106 q 329 1093 319 1106 l 481 942 l 538 942 l 604 1008 l 633 979 l 663 950 l 583 871 q 554 858 574 858 l 464 858 q 435 871 447 858 l 283 1022 l 226 1022 l 156 951 l 126 981 z "},"ĩ":{"ha":750,"x_min":97,"x_max":663,"o":"m 329 661 l 414 661 l 414 68 l 329 68 l 329 661 m 126 863 l 97 892 l 181 975 q 210 988 193 988 l 300 988 q 329 975 319 988 l 481 824 l 538 824 l 604 890 l 633 861 l 663 832 l 583 753 q 554 740 574 740 l 464 740 q 435 753 447 740 l 283 904 l 226 904 l 156 833 l 126 863 z "},"Ī":{"ha":750,"x_min":144,"x_max":599,"o":"m 249 829 l 496 829 l 496 746 l 414 746 l 414 151 l 496 151 l 496 67 l 249 67 l 249 151 l 331 151 l 331 746 l 249 746 l 249 829 m 144 1000 l 599 1000 l 599 915 l 144 915 l 144 1000 z "},"ī":{"ha":750,"x_min":144,"x_max":599,"o":"m 329 661 l 414 661 l 414 68 l 329 68 l 329 661 m 144 915 l 599 915 l 599 831 l 144 831 l 144 915 z "},"Ĭ":{"ha":750,"x_min":157,"x_max":571,"o":"m 249 829 l 496 829 l 496 746 l 414 746 l 414 151 l 496 151 l 496 67 l 249 67 l 249 151 l 331 151 l 331 746 l 249 746 l 249 829 m 157 1068 l 240 1068 q 246 1036 243 1049 q 258 1006 250 1021 q 278 982 264 996 q 304 961 291 969 q 335 950 315 955 q 365 946 349 946 q 397 950 383 946 q 426 963 412 954 q 451 982 440 970 q 471 1007 463 994 q 483 1040 478 1020 q 488 1068 488 1055 l 571 1068 q 564 1015 571 1036 q 543 967 555 988 q 511 924 530 942 q 469 892 491 903 q 419 871 447 879 q 368 863 386 863 q 314 868 338 863 q 264 889 294 873 q 219 921 241 901 q 186 963 196 944 q 165 1013 172 985 q 157 1068 157 1046 z "},"ĭ":{"ha":750,"x_min":157,"x_max":571,"o":"m 329 661 l 414 661 l 414 68 l 329 68 l 329 661 m 157 915 l 240 915 q 246 883 243 896 q 258 853 250 868 q 278 829 264 843 q 304 808 291 816 q 335 797 315 802 q 365 793 349 793 q 397 797 383 793 q 426 810 412 801 q 451 829 440 817 q 471 854 463 841 q 483 888 478 867 q 488 915 488 902 l 571 915 q 564 863 571 883 q 543 814 555 835 q 511 771 530 790 q 469 739 491 751 q 419 718 447 726 q 368 710 386 710 q 314 715 338 710 q 264 736 294 720 q 219 768 241 749 q 186 810 196 792 q 165 860 172 833 q 157 915 157 893 z "},"Į":{"ha":750,"x_min":249,"x_max":514,"o":"m 249 829 l 496 829 l 496 746 l 414 746 l 414 151 l 496 151 l 496 67 l 249 67 l 249 151 l 331 151 l 331 746 l 249 746 l 249 829 m 378 -167 q 374 -154 374 -162 l 374 -62 l 453 -62 l 453 -132 l 483 -164 l 514 -164 l 514 -244 l 465 -244 q 438 -232 450 -244 l 385 -175 l 378 -167 z "},"į":{"ha":750,"x_min":329,"x_max":471,"o":"m 329 915 l 414 915 l 414 831 l 329 831 l 329 915 m 329 661 l 414 661 l 414 68 l 329 68 l 329 661 m 335 -167 q 331 -154 331 -162 l 331 -62 l 410 -62 l 410 -132 l 440 -164 l 471 -164 l 471 -244 l 422 -244 q 394 -232 407 -244 l 342 -175 l 335 -167 z "},"İ":{"ha":750,"x_min":244,"x_max":499,"o":"m 244 829 l 499 829 l 499 746 l 414 746 l 414 151 l 499 151 l 499 67 l 244 67 l 244 151 l 329 151 l 329 746 l 244 746 l 244 829 m 329 1000 l 414 1000 l 414 915 l 329 915 l 329 1000 z "},"ı":{"ha":750,"x_min":329,"x_max":414,"o":"m 329 661 l 414 661 l 414 68 l 329 68 l 329 661 z "},"Ĳ":{"ha":750,"x_min":81,"x_max":665,"o":"m 275 322 l 356 322 l 356 210 l 417 153 l 481 153 l 539 213 l 539 746 l 490 746 l 490 829 l 665 829 l 665 746 l 622 746 l 622 196 q 611 167 622 178 l 529 82 q 499 67 514 67 l 400 67 q 371 81 385 67 l 288 161 q 275 190 275 174 l 275 322 m 81 829 l 275 829 l 275 746 l 219 746 l 219 151 l 275 151 l 275 67 l 81 67 l 81 151 l 135 151 l 135 746 l 81 746 l 81 829 z "},"ĳ":{"ha":750,"x_min":174,"x_max":586,"o":"m 329 915 l 414 915 l 414 831 l 329 831 l 329 915 m 329 661 l 414 661 l 414 68 l 329 68 l 329 661 m 585 24 q 571 -6 585 8 l 488 -90 q 458 -101 476 -101 l 286 -101 q 257 -89 269 -101 l 174 -4 l 232 54 l 304 -19 l 442 -19 l 500 40 l 500 661 l 585 661 l 585 24 m 500 915 l 586 915 l 586 831 l 500 831 l 500 915 z "},"Ĵ":{"ha":750,"x_min":76,"x_max":579,"o":"m 83 322 l 165 322 l 165 210 l 226 153 l 356 153 l 414 213 l 414 746 l 331 746 l 331 829 l 579 829 l 579 746 l 496 746 l 496 196 q 485 167 496 178 l 403 82 q 372 69 390 69 l 208 69 q 179 81 190 69 l 96 161 q 83 190 83 174 l 83 322 m 106 881 l 76 910 l 267 1100 q 294 1111 278 1111 q 325 1100 314 1111 l 515 910 l 486 881 l 457 851 l 296 1013 l 135 851 l 106 881 z "},"ĵ":{"ha":750,"x_min":154,"x_max":593,"o":"m 583 24 q 569 -6 583 8 l 486 -90 q 457 -101 475 -101 l 285 -101 q 256 -89 268 -101 l 171 -4 l 231 54 l 303 -19 l 440 -19 l 499 40 l 499 661 l 583 661 l 583 24 m 183 753 l 154 782 l 344 972 q 372 983 356 983 q 403 972 392 983 l 593 782 l 564 753 l 535 724 l 374 885 l 213 724 l 183 753 z "},"Ķ":{"ha":750,"x_min":83,"x_max":661,"o":"m 171 261 l 171 68 l 83 68 l 83 829 l 171 829 l 171 381 l 578 803 l 578 829 l 660 829 l 660 786 q 647 757 660 769 l 349 449 l 649 140 q 661 111 661 128 l 661 68 l 578 68 l 578 94 l 290 390 l 171 261 m 368 68 l 451 68 l 451 -14 q 440 -43 451 -32 l 315 -168 l 256 -110 l 368 3 l 368 68 z "},"ķ":{"ha":750,"x_min":79,"x_max":586,"o":"m 351 364 l 582 126 l 522 68 l 276 324 l 165 324 l 165 68 l 79 68 l 79 915 l 165 915 l 165 407 l 278 407 l 528 661 l 586 603 l 351 364 m 368 68 l 451 68 l 451 -14 q 440 -43 451 -32 l 315 -168 l 256 -110 l 368 3 l 368 68 z "},"ĸ":{"ha":750,"x_min":79,"x_max":582,"o":"m 167 246 l 167 68 l 79 68 l 79 664 l 167 664 l 167 365 l 499 632 l 499 658 l 582 658 l 582 615 q 569 586 582 597 l 361 410 l 569 140 q 582 111 582 123 l 582 68 l 499 68 l 499 94 l 290 351 l 167 246 z "},"Ĺ":{"ha":750,"x_min":83,"x_max":661,"o":"m 83 829 l 165 829 l 165 151 l 661 151 l 661 68 l 83 68 l 83 829 m 290 828 q 261 840 274 828 q 249 869 249 853 q 261 900 249 888 l 428 1068 q 457 1081 440 1081 q 488 1068 475 1081 q 500 1038 500 1056 q 488 1008 500 1021 l 321 840 q 290 828 308 828 z "},"ĺ":{"ha":750,"x_min":329,"x_max":582,"o":"m 372 693 q 343 706 356 693 q 331 735 331 718 q 343 765 331 753 l 510 933 q 539 946 522 946 q 569 933 557 946 q 582 903 582 921 q 569 874 582 886 l 403 706 q 372 693 390 693 m 413 171 l 431 151 l 499 151 l 499 68 l 414 68 q 385 81 397 68 l 342 124 q 329 153 329 136 l 329 654 l 413 654 l 413 171 z "},"Ļ":{"ha":750,"x_min":83,"x_max":661,"o":"m 368 57 l 451 57 l 451 -25 q 440 -54 451 -43 l 315 -179 l 256 -121 l 368 -8 l 368 57 m 83 829 l 165 829 l 165 151 l 661 151 l 661 68 l 83 68 l 83 829 z "},"ļ":{"ha":750,"x_min":217,"x_max":499,"o":"m 413 171 l 431 151 l 499 151 l 499 68 l 414 68 q 385 81 397 68 l 342 124 q 329 153 329 136 l 329 915 l 413 915 l 413 171 m 329 58 l 413 58 l 413 -24 q 401 -53 413 -42 l 276 -178 l 217 -119 l 329 -7 l 329 58 z "},"Ľ":{"ha":750,"x_min":83,"x_max":661,"o":"m 83 829 l 165 829 l 165 151 l 661 151 l 661 68 l 83 68 l 83 829 m 290 663 q 261 675 274 663 q 249 704 249 688 q 261 735 249 722 l 428 903 q 457 915 440 915 q 488 903 475 915 q 500 872 500 890 q 488 843 500 856 l 321 675 q 290 663 308 663 z "},"ľ":{"ha":750,"x_min":329,"x_max":711,"o":"m 413 171 l 431 151 l 499 151 l 499 68 l 414 68 q 385 81 397 68 l 342 124 q 329 153 329 136 l 329 915 l 413 915 l 413 171 m 501 663 q 472 675 485 663 q 460 704 460 688 q 472 735 460 722 l 639 903 q 668 915 651 915 q 699 903 686 915 q 711 872 711 890 q 699 843 711 856 l 532 675 q 501 663 519 663 z "},"Ŀ":{"ha":750,"x_min":83,"x_max":661,"o":"m 83 829 l 165 829 l 165 151 l 661 151 l 661 68 l 83 68 l 83 829 m 371 521 l 469 521 l 469 417 l 371 417 l 371 521 z "},"ŀ":{"ha":750,"x_min":329,"x_max":606,"o":"m 413 171 l 431 151 l 499 151 l 499 68 l 414 68 q 385 81 397 68 l 342 124 q 329 153 329 136 l 329 915 l 413 915 l 413 171 m 507 521 l 606 521 l 606 417 l 507 417 l 507 521 z "},"Ł":{"ha":750,"x_min":8,"x_max":661,"o":"m 43 376 l 8 453 l 83 488 l 83 829 l 165 829 l 165 526 l 431 649 l 465 574 l 165 433 l 165 151 l 661 151 l 661 68 l 83 68 l 83 395 l 43 376 z "},"ł":{"ha":750,"x_min":176,"x_max":633,"o":"m 211 376 l 176 453 l 329 524 l 329 915 l 413 915 l 413 563 l 599 649 l 633 574 l 413 470 l 413 171 l 431 151 l 499 151 l 499 68 l 414 68 q 385 81 397 68 l 342 124 q 329 153 329 136 l 329 431 l 211 376 z "},"Ń":{"ha":750,"x_min":74,"x_max":651,"o":"m 74 69 l 74 829 l 156 829 l 569 406 l 569 829 l 651 829 l 651 69 l 569 69 l 569 278 l 156 706 l 156 69 l 74 69 m 349 851 q 319 864 332 851 q 307 893 307 876 q 319 924 307 911 l 486 1092 q 515 1104 499 1104 q 546 1092 533 1104 q 558 1061 558 1079 q 546 1032 558 1044 l 379 864 q 349 851 367 851 z "},"ń":{"ha":750,"x_min":69,"x_max":576,"o":"m 219 614 l 253 647 q 282 660 265 660 l 454 660 q 482 649 471 660 l 564 568 q 576 539 576 556 l 576 71 l 497 71 l 497 522 l 438 576 l 299 576 l 240 518 l 240 69 l 157 69 l 157 535 q 163 551 157 538 l 138 579 l 69 579 l 69 661 l 157 661 q 183 649 174 661 l 219 614 m 354 746 q 325 758 338 746 q 313 788 313 771 q 325 818 313 806 l 492 986 q 521 999 504 999 q 551 986 539 999 q 564 956 564 974 q 551 926 564 939 l 385 758 q 354 746 372 746 z "},"Ņ":{"ha":750,"x_min":83,"x_max":661,"o":"m 83 69 l 83 829 l 165 829 l 579 406 l 579 829 l 661 829 l 661 69 l 579 69 l 579 278 l 165 706 l 165 69 l 83 69 m 368 68 l 451 68 l 451 -14 q 440 -43 451 -32 l 315 -168 l 256 -110 l 368 3 l 368 68 z "},"ņ":{"ha":750,"x_min":79,"x_max":586,"o":"m 229 614 l 263 647 q 292 660 275 660 l 464 660 q 492 649 481 660 l 574 568 q 586 539 586 556 l 586 71 l 507 71 l 507 522 l 447 576 l 308 576 l 250 518 l 250 69 l 167 69 l 167 535 q 172 551 167 538 l 147 579 l 79 579 l 79 661 l 167 661 q 193 649 183 661 l 229 614 m 368 68 l 451 68 l 451 -14 q 440 -43 451 -32 l 315 -168 l 256 -110 l 368 3 l 368 68 z "},"Ň":{"ha":750,"x_min":83,"x_max":661,"o":"m 83 69 l 83 829 l 165 829 l 579 406 l 579 829 l 661 829 l 661 69 l 579 69 l 579 278 l 165 706 l 165 69 l 83 69 m 564 1075 l 593 1046 l 403 856 q 375 844 392 844 q 344 856 356 844 l 154 1046 l 183 1075 l 213 1104 l 374 943 l 535 1104 l 564 1075 z "},"ň":{"ha":750,"x_min":79,"x_max":593,"o":"m 229 614 l 263 647 q 292 660 275 660 l 464 660 q 492 649 481 660 l 574 568 q 586 539 586 556 l 586 71 l 507 71 l 507 522 l 447 576 l 308 576 l 250 518 l 250 69 l 167 69 l 167 535 q 172 551 167 538 l 147 579 l 79 579 l 79 661 l 167 661 q 193 649 183 661 l 229 614 m 564 1075 l 593 1046 l 403 856 q 375 844 392 844 q 344 856 356 844 l 154 1046 l 183 1075 l 213 1104 l 374 943 l 535 1104 l 564 1075 z "},"ŉ":{"ha":750,"x_min":79,"x_max":586,"o":"m 229 614 l 263 647 q 292 660 275 660 l 464 660 q 492 649 481 660 l 574 568 q 586 539 586 556 l 586 71 l 507 71 l 507 522 l 447 576 l 308 576 l 250 518 l 250 69 l 167 69 l 167 535 q 172 551 167 538 l 147 579 l 79 579 l 79 661 l 167 661 q 193 649 183 661 l 229 614 m 79 974 l 164 974 l 164 719 l 79 719 l 79 974 z "},"Ŋ":{"ha":750,"x_min":83,"x_max":661,"o":"m 83 69 l 83 829 l 165 829 l 579 406 l 579 829 l 661 829 l 661 69 l 579 69 l 579 278 l 165 706 l 165 69 l 83 69 z "},"ŋ":{"ha":750,"x_min":79,"x_max":586,"o":"m 229 614 l 263 647 q 292 660 275 660 l 464 660 q 492 649 481 660 l 574 568 q 586 539 586 556 l 586 71 l 507 71 l 507 522 l 447 576 l 308 576 l 250 518 l 250 69 l 167 69 l 167 535 q 172 551 167 538 l 147 579 l 79 579 l 79 661 l 167 661 q 193 649 183 661 l 229 614 z "},"Ō":{"ha":750,"x_min":83,"x_max":661,"o":"m 169 686 l 169 208 l 224 153 l 518 153 l 578 213 l 578 685 l 518 747 l 225 747 l 169 686 m 97 731 l 176 817 q 207 829 188 829 l 536 829 q 567 817 557 829 l 650 731 q 661 701 661 719 l 661 194 q 649 165 661 175 l 564 82 q 535 69 551 69 l 207 69 q 178 81 189 69 l 96 160 q 83 190 83 172 l 83 703 q 97 731 83 717 m 144 1000 l 599 1000 l 599 915 l 144 915 l 144 1000 z "},"ō":{"ha":750,"x_min":79,"x_max":586,"o":"m 163 519 l 163 211 l 222 153 l 447 153 l 503 211 l 503 519 l 449 581 l 222 581 l 163 519 m 93 565 l 178 653 q 206 663 188 663 l 467 663 q 497 649 483 663 l 575 561 q 586 535 586 550 l 586 194 q 574 165 586 178 l 493 83 q 469 74 485 74 l 464 74 l 206 74 q 178 83 191 74 l 92 164 q 79 194 79 175 l 79 538 q 93 565 79 551 m 106 915 l 560 915 l 560 831 l 106 831 l 106 915 z "},"Ŏ":{"ha":750,"x_min":83,"x_max":661,"o":"m 169 686 l 169 208 l 224 153 l 518 153 l 578 213 l 578 685 l 518 747 l 225 747 l 169 686 m 97 731 l 176 817 q 207 829 188 829 l 536 829 q 567 817 557 829 l 650 731 q 661 701 661 719 l 661 194 q 649 165 661 175 l 564 82 q 535 69 551 69 l 207 69 q 178 81 189 69 l 96 160 q 83 190 83 172 l 83 703 q 97 731 83 717 m 169 1081 l 253 1081 q 258 1049 256 1061 q 271 1018 263 1033 q 290 994 276 1008 q 317 974 303 981 q 347 963 328 967 q 378 958 362 958 q 410 963 395 958 q 439 975 424 967 q 464 994 452 983 q 483 1019 476 1006 q 496 1053 491 1033 q 500 1081 500 1067 l 583 1081 q 576 1028 583 1049 q 556 979 567 1001 q 524 936 542 955 q 482 904 503 916 q 432 883 459 892 q 381 875 399 875 q 326 881 351 875 q 276 901 306 885 q 232 933 253 914 q 199 975 208 957 q 178 1025 184 998 q 169 1081 169 1058 z "},"ŏ":{"ha":750,"x_min":79,"x_max":586,"o":"m 163 519 l 163 211 l 222 153 l 447 153 l 503 211 l 503 519 l 449 581 l 222 581 l 163 519 m 93 565 l 178 653 q 206 663 188 663 l 467 663 q 497 649 483 663 l 575 561 q 586 535 586 550 l 586 194 q 574 165 586 178 l 493 83 q 469 74 485 74 l 464 74 l 206 74 q 178 83 191 74 l 92 164 q 79 194 79 175 l 79 538 q 93 565 79 551 m 132 928 l 215 928 q 221 896 218 908 q 233 865 225 881 q 253 842 239 856 q 279 821 266 828 q 310 810 290 815 q 340 806 324 806 q 372 810 358 806 q 401 822 387 814 q 426 842 415 830 q 446 867 438 853 q 458 900 453 880 q 463 928 463 915 l 546 928 q 539 875 546 896 q 518 826 530 848 q 486 783 505 802 q 444 751 466 763 q 394 731 422 739 q 343 722 361 722 q 289 728 313 722 q 239 749 269 733 q 194 781 216 761 q 161 822 171 804 q 140 872 147 845 q 132 928 132 906 z "},"Ő":{"ha":750,"x_min":83,"x_max":661,"o":"m 169 686 l 169 208 l 224 153 l 518 153 l 578 213 l 578 685 l 518 747 l 225 747 l 169 686 m 97 731 l 176 817 q 207 829 188 829 l 536 829 q 567 817 557 829 l 650 731 q 661 701 661 719 l 661 194 q 649 165 661 175 l 564 82 q 535 69 551 69 l 207 69 q 178 81 189 69 l 96 160 q 83 190 83 172 l 83 703 q 97 731 83 717 m 451 875 q 422 888 435 875 q 410 917 410 900 q 422 947 410 935 l 589 1115 q 618 1128 601 1128 q 649 1115 636 1128 q 661 1085 661 1103 q 649 1056 661 1068 l 482 888 q 451 875 469 875 m 232 875 q 203 888 215 875 q 190 917 190 900 q 203 947 190 935 l 369 1115 q 399 1128 382 1128 q 429 1115 417 1128 q 442 1085 442 1103 q 429 1056 442 1068 l 263 888 q 232 875 250 875 z "},"ő":{"ha":750,"x_min":79,"x_max":618,"o":"m 163 519 l 163 211 l 222 153 l 447 153 l 503 211 l 503 519 l 449 581 l 222 581 l 163 519 m 93 565 l 178 653 q 206 663 188 663 l 467 663 q 497 649 483 663 l 575 561 q 586 535 586 550 l 586 194 q 574 165 586 178 l 493 83 q 469 74 485 74 l 464 74 l 206 74 q 178 83 191 74 l 92 164 q 79 194 79 175 l 79 538 q 93 565 79 551 m 408 719 q 379 732 392 719 q 367 761 367 744 q 379 792 367 779 l 546 960 q 575 972 558 972 q 606 960 593 972 q 618 929 618 947 q 606 900 618 913 l 439 732 q 408 719 426 719 m 189 719 q 160 732 172 719 q 147 761 147 744 q 160 792 147 779 l 326 960 q 356 972 339 972 q 386 960 374 972 q 399 929 399 947 q 386 900 399 913 l 219 732 q 189 719 207 719 z "},"Œ":{"ha":750,"x_min":78,"x_max":669,"o":"m 669 831 l 669 747 l 496 747 l 496 490 l 669 490 l 669 407 l 496 407 l 496 153 l 669 153 l 669 69 l 158 69 q 129 82 142 69 l 89 121 q 78 150 78 132 l 78 749 q 89 778 78 767 l 129 818 q 158 831 142 831 l 669 831 m 413 747 l 175 747 l 161 732 l 161 168 l 175 153 l 413 153 l 413 747 z "},"œ":{"ha":750,"x_min":75,"x_max":669,"o":"m 669 147 l 669 64 l 474 64 q 446 75 457 64 l 372 140 l 313 81 q 283 68 300 68 l 194 68 q 165 79 179 68 l 89 156 q 75 185 75 169 l 75 536 q 89 565 75 551 l 165 642 q 194 653 176 653 l 283 653 q 311 642 297 653 l 365 589 l 417 640 q 446 653 429 653 l 556 653 q 586 640 574 653 l 658 564 q 669 536 669 551 l 669 319 l 413 319 l 413 215 l 489 147 l 669 147 m 158 203 l 211 151 l 272 151 l 325 204 l 325 518 l 272 569 l 211 569 l 158 518 l 158 203 m 586 403 l 586 519 l 539 569 l 463 569 l 413 519 l 413 403 l 586 403 z "},"Ŕ":{"ha":750,"x_min":83,"x_max":661,"o":"m 386 408 l 649 143 q 661 114 661 131 l 661 69 l 579 69 l 579 89 l 267 408 l 165 408 l 165 69 l 83 69 l 83 829 l 535 829 q 564 817 551 829 l 649 733 q 661 704 661 721 l 661 533 q 649 504 661 517 l 567 421 q 538 408 554 408 l 386 408 m 165 492 l 519 492 l 578 550 l 578 686 l 518 746 l 165 746 l 165 492 m 290 876 q 261 889 274 876 q 249 918 249 901 q 261 949 249 936 l 428 1117 q 457 1129 440 1129 q 488 1117 475 1129 q 500 1086 500 1104 q 488 1057 500 1069 l 321 889 q 290 876 308 876 z "},"ŕ":{"ha":750,"x_min":79,"x_max":586,"o":"m 231 435 l 231 69 l 149 69 l 149 533 q 136 564 149 549 q 104 576 122 576 l 79 576 l 79 661 l 147 661 q 199 634 168 661 q 231 576 231 607 l 231 550 l 326 647 q 356 661 340 661 l 457 661 q 486 649 476 661 l 574 564 q 586 533 586 551 l 586 492 l 503 492 l 503 517 l 440 576 l 374 576 l 231 435 m 290 663 q 261 675 274 663 q 249 704 249 688 q 261 735 249 722 l 428 903 q 457 915 440 915 q 488 903 475 915 q 500 872 500 890 q 488 843 500 856 l 321 675 q 290 663 308 663 z "},"Ŗ":{"ha":750,"x_min":83,"x_max":661,"o":"m 386 408 l 649 143 q 661 114 661 131 l 661 69 l 579 69 l 579 89 l 267 408 l 165 408 l 165 69 l 83 69 l 83 829 l 535 829 q 564 817 551 829 l 649 733 q 661 704 661 721 l 661 533 q 649 504 661 517 l 567 421 q 538 408 554 408 l 386 408 m 165 492 l 519 492 l 578 550 l 578 686 l 518 746 l 165 746 l 165 492 m 368 68 l 451 68 l 451 -14 q 440 -43 451 -32 l 315 -168 l 256 -110 l 368 3 l 368 68 z "},"ŗ":{"ha":750,"x_min":79,"x_max":586,"o":"m 231 435 l 231 69 l 149 69 l 149 533 q 136 564 149 549 q 104 576 122 576 l 79 576 l 79 661 l 147 661 q 199 634 168 661 q 231 576 231 607 l 231 550 l 326 647 q 356 661 340 661 l 457 661 q 486 649 476 661 l 574 564 q 586 533 586 551 l 586 492 l 503 492 l 503 517 l 440 576 l 374 576 l 231 435 m 368 68 l 451 68 l 451 -14 q 440 -43 451 -32 l 315 -168 l 256 -110 l 368 3 l 368 68 z "},"Ř":{"ha":750,"x_min":83,"x_max":661,"o":"m 386 408 l 649 143 q 661 114 661 131 l 661 69 l 579 69 l 579 89 l 267 408 l 165 408 l 165 69 l 83 69 l 83 829 l 535 829 q 564 817 551 829 l 649 733 q 661 704 661 721 l 661 533 q 649 504 661 517 l 567 421 q 538 408 554 408 l 386 408 m 165 492 l 519 492 l 578 550 l 578 686 l 518 746 l 165 746 l 165 492 m 564 1075 l 593 1046 l 403 856 q 375 844 392 844 q 344 856 356 844 l 154 1046 l 183 1075 l 213 1104 l 374 943 l 535 1104 l 564 1075 z "},"ř":{"ha":750,"x_min":79,"x_max":586,"o":"m 231 435 l 231 69 l 149 69 l 149 533 q 136 564 149 549 q 104 576 122 576 l 79 576 l 79 661 l 147 661 q 199 634 168 661 q 231 576 231 607 l 231 550 l 326 647 q 356 661 340 661 l 457 661 q 486 649 476 661 l 574 564 q 586 533 586 551 l 586 492 l 503 492 l 503 517 l 440 576 l 374 576 l 231 435 m 538 942 l 567 913 l 376 722 q 349 711 365 711 q 318 722 329 711 l 128 913 l 157 942 l 186 971 l 347 810 l 508 971 l 538 942 z "},"Ś":{"ha":750,"x_min":83,"x_max":661,"o":"m 575 692 l 522 747 l 231 747 l 171 688 l 171 643 l 640 313 q 658 278 658 301 l 658 196 q 647 168 658 181 l 568 82 q 538 67 553 67 l 210 67 q 181 79 193 67 l 96 164 q 83 193 83 176 l 83 236 l 167 236 l 167 210 l 226 151 l 519 151 l 575 213 l 575 256 l 106 586 q 88 621 88 598 l 88 704 q 100 733 88 721 l 185 818 q 214 829 196 829 l 539 829 q 568 818 557 829 l 649 738 q 661 708 661 725 l 661 664 l 575 664 l 575 692 m 290 858 q 261 871 274 858 q 249 900 249 883 q 261 931 249 918 l 428 1099 q 457 1111 440 1111 q 488 1099 475 1111 q 500 1068 500 1086 q 488 1039 500 1051 l 321 871 q 290 858 308 858 z "},"ś":{"ha":750,"x_min":79,"x_max":586,"o":"m 290 694 q 261 707 274 694 q 249 736 249 719 q 261 767 249 754 l 428 935 q 457 947 440 947 q 488 935 475 947 q 500 904 500 922 q 488 875 500 888 l 321 707 q 290 694 308 694 m 499 517 l 438 578 l 224 578 l 183 536 l 571 229 q 586 199 586 216 q 574 167 586 179 l 486 81 q 457 68 474 68 l 207 68 q 178 81 190 68 l 92 164 q 79 194 79 176 l 79 233 l 163 233 l 163 213 l 224 151 l 440 151 l 482 193 l 96 499 q 81 529 83 508 l 81 534 q 92 561 81 550 l 175 649 q 206 661 188 661 l 454 661 q 483 649 471 661 l 569 564 q 582 535 582 551 l 582 490 l 499 490 l 499 517 z "},"Ŝ":{"ha":750,"x_min":83,"x_max":661,"o":"m 575 692 l 522 747 l 231 747 l 171 688 l 171 643 l 640 313 q 658 278 658 301 l 658 196 q 647 168 658 181 l 568 82 q 538 67 553 67 l 210 67 q 181 79 193 67 l 96 164 q 83 193 83 176 l 83 236 l 167 236 l 167 210 l 226 151 l 519 151 l 575 213 l 575 256 l 106 586 q 88 621 88 598 l 88 704 q 100 733 88 721 l 185 818 q 214 829 196 829 l 539 829 q 568 818 557 829 l 649 738 q 661 708 661 725 l 661 664 l 575 664 l 575 692 m 185 883 l 156 913 l 346 1103 q 374 1114 357 1114 q 404 1103 393 1114 l 594 913 l 565 883 l 536 854 l 375 1015 l 214 854 l 185 883 z "},"ŝ":{"ha":750,"x_min":79,"x_max":586,"o":"m 499 517 l 438 578 l 224 578 l 183 536 l 571 229 q 586 199 586 216 q 574 167 586 179 l 486 81 q 457 68 474 68 l 207 68 q 178 81 190 68 l 92 164 q 79 194 79 176 l 79 233 l 163 233 l 163 213 l 224 151 l 440 151 l 482 193 l 96 499 q 81 529 83 508 l 81 534 q 92 561 81 550 l 175 649 q 206 661 188 661 l 454 661 q 483 649 471 661 l 569 564 q 582 535 582 551 l 582 490 l 499 490 l 499 517 m 156 786 l 126 815 l 317 1006 q 344 1017 328 1017 q 375 1006 364 1017 l 565 815 l 536 786 l 507 757 l 346 918 l 185 757 l 156 786 z "},"Ş":{"ha":750,"x_min":83,"x_max":661,"o":"m 575 692 l 522 747 l 231 747 l 171 688 l 171 643 l 640 313 q 658 278 658 301 l 658 196 q 647 168 658 181 l 568 82 q 538 67 553 67 l 451 67 l 451 -14 q 440 -43 451 -32 l 315 -168 l 256 -110 l 368 3 l 368 67 l 210 67 q 181 79 193 67 l 96 164 q 83 193 83 176 l 83 236 l 167 236 l 167 210 l 226 151 l 519 151 l 575 213 l 575 256 l 106 586 q 88 621 88 598 l 88 704 q 100 733 88 721 l 185 818 q 214 829 196 829 l 539 829 q 568 818 557 829 l 649 738 q 661 708 661 725 l 661 664 l 575 664 l 575 692 z "},"ş":{"ha":750,"x_min":79,"x_max":586,"o":"m 499 517 l 438 578 l 224 578 l 183 536 l 571 229 q 586 199 586 216 q 574 167 586 179 l 486 81 q 457 68 474 68 l 451 68 l 451 -14 q 440 -43 451 -32 l 315 -168 l 256 -110 l 368 3 l 368 68 l 207 68 q 178 81 190 68 l 92 164 q 79 194 79 176 l 79 233 l 163 233 l 163 213 l 224 151 l 440 151 l 482 193 l 96 499 q 81 529 83 508 l 81 534 q 92 561 81 550 l 175 649 q 206 661 188 661 l 454 661 q 483 649 471 661 l 569 564 q 582 535 582 551 l 582 490 l 499 490 l 499 517 z "},"Š":{"ha":750,"x_min":83,"x_max":661,"o":"m 575 692 l 522 747 l 231 747 l 171 688 l 171 643 l 640 313 q 658 278 658 301 l 658 196 q 647 168 658 181 l 568 82 q 538 67 553 67 l 210 67 q 181 79 193 67 l 96 164 q 83 193 83 176 l 83 236 l 167 236 l 167 210 l 226 151 l 519 151 l 575 213 l 575 256 l 106 586 q 88 621 88 598 l 88 704 q 100 733 88 721 l 185 818 q 214 829 196 829 l 539 829 q 568 818 557 829 l 649 738 q 661 708 661 725 l 661 664 l 575 664 l 575 692 m 564 1075 l 593 1046 l 403 856 q 375 844 392 844 q 344 856 356 844 l 154 1046 l 183 1075 l 213 1104 l 374 943 l 535 1104 l 564 1075 z "},"š":{"ha":750,"x_min":79,"x_max":593,"o":"m 499 517 l 438 578 l 224 578 l 183 536 l 571 229 q 586 199 586 216 q 574 167 586 179 l 486 81 q 457 68 474 68 l 207 68 q 178 81 190 68 l 92 164 q 79 194 79 176 l 79 233 l 163 233 l 163 213 l 224 151 l 440 151 l 482 193 l 96 499 q 81 529 83 508 l 81 534 q 92 561 81 550 l 175 649 q 206 661 188 661 l 454 661 q 483 649 471 661 l 569 564 q 582 535 582 551 l 582 490 l 499 490 l 499 517 m 564 944 l 593 915 l 403 725 q 375 714 392 714 q 344 725 356 714 l 154 915 l 183 944 l 213 974 l 374 813 l 535 974 l 564 944 z "},"Ţ":{"ha":750,"x_min":83,"x_max":661,"o":"m 332 57 l 415 57 l 415 -25 q 404 -54 415 -43 l 279 -179 l 219 -121 l 332 -8 l 332 57 m 83 829 l 661 829 l 661 746 l 414 746 l 414 68 l 331 68 l 331 746 l 83 746 l 83 829 z "},"ţ":{"ha":750,"x_min":158,"x_max":583,"o":"m 332 58 l 415 58 l 415 -24 q 404 -53 415 -42 l 279 -178 l 219 -119 l 332 -7 l 332 58 m 413 171 l 431 151 l 499 151 l 499 68 l 414 68 q 385 81 397 68 l 342 124 q 329 153 329 136 l 329 576 l 158 576 l 158 661 l 329 661 l 329 915 l 413 915 l 413 661 l 583 661 l 583 576 l 413 576 l 413 171 z "},"Ť":{"ha":750,"x_min":83,"x_max":661,"o":"m 83 829 l 661 829 l 661 746 l 414 746 l 414 68 l 331 68 l 331 746 l 83 746 l 83 829 m 575 1079 l 604 1050 l 414 860 q 386 849 403 849 q 356 860 367 849 l 165 1050 l 194 1079 l 224 1108 l 385 947 l 546 1108 l 575 1079 z "},"ť":{"ha":750,"x_min":158,"x_max":600,"o":"m 413 171 l 431 151 l 499 151 l 499 68 l 414 68 q 385 81 397 68 l 342 124 q 329 153 329 136 l 329 576 l 158 576 l 158 661 l 329 661 l 329 832 l 413 832 l 413 661 l 583 661 l 583 576 l 413 576 l 413 171 m 571 1075 l 600 1046 l 410 856 q 382 844 399 844 q 351 856 363 844 l 161 1046 l 190 1075 l 219 1104 l 381 943 l 542 1104 l 571 1075 z "},"Ŧ":{"ha":750,"x_min":83,"x_max":661,"o":"m 83 829 l 661 829 l 661 746 l 414 746 l 414 494 l 579 494 l 579 417 l 414 417 l 414 68 l 331 68 l 331 417 l 165 417 l 165 494 l 331 494 l 331 746 l 83 746 l 83 829 z "},"ŧ":{"ha":750,"x_min":158,"x_max":583,"o":"m 413 171 l 431 151 l 499 151 l 499 68 l 414 68 q 385 81 397 68 l 342 124 q 329 153 329 136 l 329 417 l 165 417 l 165 494 l 329 494 l 329 576 l 158 576 l 158 661 l 329 661 l 329 915 l 413 915 l 413 661 l 583 661 l 583 576 l 413 576 l 413 494 l 579 494 l 579 417 l 413 417 l 413 171 z "},"Ũ":{"ha":750,"x_min":78,"x_max":667,"o":"m 126 789 l 97 818 l 181 901 q 210 914 193 914 l 300 914 q 329 901 319 914 l 481 750 l 538 750 l 604 817 l 633 788 l 663 758 l 583 679 q 554 667 574 667 l 464 667 q 435 679 447 667 l 283 831 l 226 831 l 156 760 l 126 789 m 78 653 l 160 653 l 160 211 l 218 153 l 526 153 l 583 213 l 583 653 l 667 653 l 667 196 q 656 168 667 179 l 575 83 q 544 69 561 69 l 200 69 q 171 82 183 69 l 89 164 q 78 193 78 175 l 78 653 z "},"ũ":{"ha":750,"x_min":81,"x_max":668,"o":"m 126 789 l 97 818 l 181 901 q 210 914 193 914 l 300 914 q 329 901 319 914 l 481 750 l 538 750 l 604 817 l 633 788 l 663 758 l 583 679 q 554 667 574 667 l 464 667 q 435 679 447 667 l 283 831 l 226 831 l 156 760 l 126 789 m 518 117 l 485 83 q 456 71 472 71 l 203 71 q 175 82 186 71 l 93 163 q 81 192 81 175 l 81 661 l 163 661 l 163 208 l 219 151 l 439 151 l 497 213 l 497 661 l 581 661 l 581 196 q 575 179 581 193 l 600 151 l 668 151 l 668 71 l 583 71 q 554 82 563 71 l 518 117 z "},"Ū":{"ha":750,"x_min":83,"x_max":661,"o":"m 83 829 l 164 829 l 164 211 l 224 153 l 521 153 l 578 213 l 578 829 l 661 829 l 661 196 q 650 168 661 179 l 569 83 q 539 69 556 69 l 206 69 q 176 82 189 69 l 94 164 q 83 193 83 175 l 83 829 m 144 1000 l 599 1000 l 599 915 l 144 915 l 144 1000 z "},"ū":{"ha":750,"x_min":81,"x_max":668,"o":"m 518 117 l 485 83 q 456 71 472 71 l 203 71 q 175 82 186 71 l 93 163 q 81 192 81 175 l 81 661 l 163 661 l 163 208 l 219 151 l 439 151 l 497 213 l 497 661 l 581 661 l 581 196 q 575 179 581 193 l 600 151 l 668 151 l 668 71 l 583 71 q 554 82 563 71 l 518 117 m 144 915 l 599 915 l 599 831 l 144 831 l 144 915 z "},"Ŭ":{"ha":750,"x_min":83,"x_max":661,"o":"m 83 829 l 164 829 l 164 211 l 224 153 l 521 153 l 578 213 l 578 829 l 661 829 l 661 196 q 650 168 661 179 l 569 83 q 539 69 556 69 l 206 69 q 176 82 189 69 l 94 164 q 83 193 83 175 l 83 829 m 164 1038 l 247 1038 q 253 1006 250 1018 q 265 975 257 990 q 285 951 271 965 q 311 931 298 938 q 342 919 322 924 q 372 915 356 915 q 404 919 390 915 q 433 932 419 924 q 458 951 447 940 q 478 976 470 963 q 490 1010 485 990 q 494 1038 494 1024 l 578 1038 q 571 985 578 1006 q 550 936 562 958 q 518 893 537 912 q 476 861 498 873 q 426 840 453 849 q 375 832 393 832 q 321 838 345 832 q 271 858 301 842 q 226 890 248 871 q 193 932 203 914 q 172 982 178 955 q 164 1038 164 1015 z "},"ŭ":{"ha":750,"x_min":81,"x_max":668,"o":"m 518 117 l 485 83 q 456 71 472 71 l 203 71 q 175 82 186 71 l 93 163 q 81 192 81 175 l 81 661 l 163 661 l 163 208 l 219 151 l 439 151 l 497 213 l 497 661 l 581 661 l 581 196 q 575 179 581 193 l 600 151 l 668 151 l 668 71 l 583 71 q 554 82 563 71 l 518 117 m 126 915 l 210 915 q 215 883 213 896 q 228 853 219 868 q 247 829 233 843 q 274 808 260 816 q 304 797 285 802 q 335 793 319 793 q 367 797 352 793 q 396 810 381 801 q 421 829 409 817 q 440 854 433 841 q 453 888 448 867 q 457 915 457 902 l 540 915 q 533 863 540 883 q 513 814 524 835 q 481 771 499 790 q 439 739 460 751 q 389 718 416 726 q 338 710 356 710 q 283 715 308 710 q 233 736 263 720 q 189 768 210 749 q 156 810 165 792 q 135 860 141 833 q 126 915 126 893 z "},"Ů":{"ha":750,"x_min":83,"x_max":661,"o":"m 83 829 l 164 829 l 164 211 l 224 153 l 521 153 l 578 213 l 578 829 l 661 829 l 661 196 q 650 168 661 179 l 569 83 q 539 69 556 69 l 206 69 q 176 82 189 69 l 94 164 q 83 193 83 175 l 83 829 m 312 900 q 298 887 312 900 q 285 835 285 873 q 312 769 285 797 q 376 742 339 742 q 443 769 415 742 q 471 835 471 797 q 443 900 471 873 q 376 928 415 928 q 312 900 339 928 m 215 835 q 263 950 215 902 q 376 997 310 997 q 492 950 444 997 q 540 835 540 902 q 492 720 540 768 q 376 672 444 672 q 263 720 310 672 q 215 835 215 768 z "},"ů":{"ha":750,"x_min":81,"x_max":668,"o":"m 518 117 l 485 83 q 456 71 472 71 l 203 71 q 175 82 186 71 l 93 163 q 81 192 81 175 l 81 661 l 163 661 l 163 208 l 219 151 l 439 151 l 497 213 l 497 661 l 581 661 l 581 196 q 575 179 581 193 l 600 151 l 668 151 l 668 71 l 583 71 q 554 82 563 71 l 518 117 m 272 898 q 258 884 272 898 q 244 832 244 870 q 272 766 244 794 q 336 739 299 739 q 403 766 375 739 q 431 832 431 794 q 403 898 431 870 q 336 925 375 925 q 272 898 299 925 m 175 832 q 222 947 175 899 q 336 994 269 994 q 452 947 404 994 q 500 832 500 899 q 452 717 500 765 q 336 669 403 669 q 222 717 269 669 q 175 832 175 765 z "},"Ű":{"ha":750,"x_min":83,"x_max":664,"o":"m 83 829 l 164 829 l 164 211 l 224 153 l 521 153 l 578 213 l 578 829 l 661 829 l 661 196 q 650 168 661 179 l 569 83 q 539 69 556 69 l 206 69 q 176 82 189 69 l 94 164 q 83 193 83 175 l 83 829 m 454 857 q 425 869 438 857 q 413 899 413 882 q 425 929 413 917 l 592 1097 q 621 1110 604 1110 q 651 1097 639 1110 q 664 1067 664 1085 q 651 1038 664 1050 l 485 869 q 454 857 472 857 m 235 857 q 206 869 218 857 q 193 899 193 882 q 206 929 193 917 l 372 1097 q 401 1110 385 1110 q 432 1097 419 1110 q 444 1067 444 1085 q 432 1038 444 1050 l 265 869 q 235 857 253 857 z "},"ű":{"ha":750,"x_min":81,"x_max":668,"o":"m 518 117 l 485 83 q 456 71 472 71 l 203 71 q 175 82 186 71 l 93 163 q 81 192 81 175 l 81 661 l 163 661 l 163 208 l 219 151 l 439 151 l 497 213 l 497 661 l 581 661 l 581 196 q 575 179 581 193 l 600 151 l 668 151 l 668 71 l 583 71 q 554 82 563 71 l 518 117 m 429 749 q 400 761 413 749 q 388 790 388 774 q 400 821 388 808 l 567 989 q 596 1001 579 1001 q 626 989 614 1001 q 639 958 639 976 q 626 929 639 942 l 460 761 q 429 749 447 749 m 210 749 q 181 761 193 749 q 168 790 168 774 q 181 821 168 808 l 347 989 q 376 1001 360 1001 q 407 989 394 1001 q 419 958 419 976 q 407 929 419 942 l 240 761 q 210 749 228 749 z "},"Ų":{"ha":750,"x_min":83,"x_max":661,"o":"m 336 8 q 332 21 332 13 l 332 69 l 206 69 q 176 82 189 69 l 94 164 q 83 193 83 175 l 83 829 l 164 829 l 164 211 l 224 153 l 521 153 l 578 213 l 578 829 l 661 829 l 661 196 q 650 168 661 179 l 569 83 q 539 69 556 69 l 411 69 l 411 43 l 442 11 l 472 11 l 472 -69 l 424 -69 q 396 -57 408 -69 l 343 0 l 336 8 z "},"ų":{"ha":750,"x_min":81,"x_max":668,"o":"m 532 8 q 528 21 528 13 l 528 108 l 518 117 l 485 83 q 456 71 472 71 l 203 71 q 175 82 186 71 l 93 163 q 81 192 81 175 l 81 661 l 163 661 l 163 208 l 219 151 l 439 151 l 497 213 l 497 661 l 581 661 l 581 196 q 575 179 581 193 l 600 151 l 668 151 l 668 71 l 607 71 l 607 43 l 638 11 l 668 11 l 668 -69 l 619 -69 q 592 -57 604 -69 l 539 0 l 532 8 z "},"Ŵ":{"ha":750,"x_min":83,"x_max":661,"o":"m 369 218 l 238 79 q 208 67 225 67 q 179 79 192 67 l 96 163 q 83 192 83 175 l 83 829 l 165 829 l 165 208 l 208 168 l 329 296 l 329 489 l 413 489 l 413 293 l 535 168 l 578 210 l 578 829 l 661 829 l 661 192 q 649 161 661 174 l 564 79 q 535 67 549 67 q 506 81 519 67 l 369 218 m 185 882 l 156 911 l 346 1101 q 374 1113 357 1113 q 404 1101 393 1113 l 594 911 l 565 882 l 536 853 l 375 1014 l 214 853 l 185 882 z "},"ŵ":{"ha":750,"x_min":79,"x_max":668,"o":"m 417 293 l 538 169 l 585 214 l 585 661 l 668 661 l 668 196 q 656 165 668 178 l 567 81 q 538 69 553 69 q 508 82 521 69 l 374 219 l 235 78 q 206 64 221 64 q 176 78 190 64 l 92 164 q 79 193 79 176 l 79 661 l 163 661 l 163 210 l 206 167 l 332 293 l 332 407 l 417 407 l 417 293 m 185 689 l 156 718 l 346 908 q 374 919 357 919 q 404 908 393 919 l 594 718 l 565 689 l 536 660 l 375 821 l 214 660 l 185 689 z "},"Ŷ":{"ha":750,"x_min":83,"x_max":661,"o":"m 414 515 l 414 69 l 329 69 l 329 515 l 96 757 q 83 786 83 769 l 83 829 l 167 829 l 167 803 l 374 592 l 578 803 l 578 829 l 661 829 l 661 789 q 650 758 661 769 l 414 515 m 185 882 l 156 911 l 346 1101 q 374 1113 357 1113 q 404 1101 393 1113 l 594 911 l 565 882 l 536 853 l 375 1014 l 214 853 l 185 882 z "},"ŷ":{"ha":750,"x_min":79,"x_max":585,"o":"m 315 108 l 92 335 q 79 364 79 347 l 79 661 l 163 661 l 163 381 l 375 168 l 501 294 l 501 661 l 585 661 l 585 278 q 572 249 585 261 l 146 -178 l 88 -119 l 315 108 m 140 693 l 111 722 l 301 913 q 329 924 313 924 q 360 913 349 924 l 550 722 l 521 693 l 492 664 l 331 825 l 169 664 l 140 693 z "},"Ÿ":{"ha":750,"x_min":83,"x_max":661,"o":"m 414 515 l 414 69 l 329 69 l 329 515 l 96 757 q 83 786 83 769 l 83 829 l 167 829 l 167 803 l 374 592 l 578 803 l 578 829 l 661 829 l 661 789 q 650 758 661 769 l 414 515 m 208 961 l 296 961 l 296 876 l 208 876 l 208 961 m 464 961 l 550 961 l 550 876 l 464 876 l 464 961 z "},"Ź":{"ha":750,"x_min":83,"x_max":661,"o":"m 660 703 q 647 674 660 686 l 167 179 l 167 153 l 661 153 l 661 68 l 83 68 l 83 196 q 96 225 83 213 l 576 719 l 576 746 l 83 746 l 83 829 l 660 829 l 660 703 m 290 874 q 261 886 274 874 q 249 915 249 899 q 261 946 249 933 l 428 1114 q 457 1126 440 1126 q 488 1114 475 1126 q 500 1083 500 1101 q 488 1054 500 1067 l 321 886 q 290 874 308 874 z "},"ź":{"ha":750,"x_min":79,"x_max":668,"o":"m 290 693 q 261 706 274 693 q 249 735 249 718 q 261 765 249 753 l 428 933 q 457 946 440 946 q 488 933 475 946 q 500 903 500 921 q 488 874 500 886 l 321 706 q 290 693 308 693 m 79 661 l 668 661 l 250 151 l 668 151 l 668 68 l 79 68 l 499 576 l 79 576 l 79 661 z "},"Ż":{"ha":750,"x_min":83,"x_max":661,"o":"m 660 703 q 647 674 660 686 l 167 179 l 167 153 l 661 153 l 661 68 l 83 68 l 83 196 q 96 225 83 213 l 576 719 l 576 746 l 83 746 l 83 829 l 660 829 l 660 703 m 324 1019 l 422 1019 l 422 915 l 324 915 l 324 1019 z "},"ż":{"ha":750,"x_min":79,"x_max":668,"o":"m 79 661 l 668 661 l 250 151 l 668 151 l 668 68 l 79 68 l 499 576 l 79 576 l 79 661 m 321 857 l 419 857 l 419 753 l 321 753 l 321 857 z "},"Ž":{"ha":750,"x_min":83,"x_max":661,"o":"m 660 703 q 647 674 660 686 l 167 179 l 167 153 l 661 153 l 661 68 l 83 68 l 83 196 q 96 225 83 213 l 576 719 l 576 746 l 83 746 l 83 829 l 660 829 l 660 703 m 564 1075 l 593 1046 l 403 856 q 375 844 392 844 q 344 856 356 844 l 154 1046 l 183 1075 l 213 1104 l 374 943 l 535 1104 l 564 1075 z "},"ž":{"ha":750,"x_min":79,"x_max":668,"o":"m 79 661 l 668 661 l 250 151 l 668 151 l 668 68 l 79 68 l 499 576 l 79 576 l 79 661 m 564 944 l 593 915 l 403 725 q 375 714 392 714 q 344 725 356 714 l 154 915 l 183 944 l 213 974 l 374 813 l 535 974 l 564 944 z "},"ſ":{"ha":750,"x_min":251,"x_max":586,"o":"m 586 917 l 586 833 l 390 833 l 335 772 l 335 68 l 251 68 l 251 789 q 263 817 251 803 l 342 903 q 372 917 353 917 l 586 917 z "},"Ǝ":{"ha":750,"x_min":79,"x_max":667,"o":"m 667 829 l 667 68 l 79 68 l 79 151 l 582 151 l 582 407 l 249 407 l 249 492 l 582 492 l 582 746 l 79 746 l 79 829 l 667 829 z "},"ƒ":{"ha":750,"x_min":79,"x_max":665,"o":"m 469 832 l 414 775 l 414 661 l 582 661 l 582 576 l 413 576 l 413 75 q 403 22 413 32 l 324 -60 q 293 -72 311 -72 l 79 -72 l 79 11 l 275 11 l 331 68 l 331 576 l 158 576 l 158 661 l 331 661 l 331 792 q 342 821 331 810 l 421 903 q 451 915 433 915 l 665 915 l 665 832 l 469 832 z "},"Ơ":{"ha":750,"x_min":75,"x_max":667,"o":"m 583 653 l 667 653 l 667 578 q 654 549 667 558 l 624 518 q 594 506 611 506 l 522 506 l 522 194 q 510 165 522 175 l 425 82 q 396 69 413 69 l 199 69 q 169 81 181 69 l 88 160 q 75 190 75 172 l 75 703 q 89 731 75 717 l 168 817 q 199 829 179 829 l 397 829 q 428 817 418 829 l 511 731 q 522 701 522 719 l 522 589 l 578 589 l 583 594 l 583 653 m 161 686 l 161 208 l 215 153 l 379 153 l 439 213 l 439 685 l 379 747 l 217 747 l 161 686 z "},"ơ":{"ha":750,"x_min":79,"x_max":667,"o":"m 93 565 l 178 653 q 206 663 188 663 l 383 663 q 414 649 403 663 l 492 547 q 500 535 498 541 l 578 535 l 583 540 l 583 653 l 667 653 l 667 524 q 654 494 667 504 l 624 464 q 594 451 611 451 l 503 451 l 503 194 q 490 165 503 178 l 410 83 q 385 74 401 74 l 381 74 l 206 74 q 178 83 191 74 l 92 164 q 79 194 79 175 l 79 538 q 93 565 79 551 m 163 519 l 163 211 l 222 153 l 364 153 l 419 211 l 419 519 l 365 581 l 222 581 l 163 519 z "},"Ư":{"ha":750,"x_min":78,"x_max":667,"o":"m 583 653 l 667 653 l 667 578 q 654 549 667 558 l 624 518 q 594 506 611 506 l 522 506 l 522 196 q 511 168 522 179 l 431 83 q 400 69 417 69 l 200 69 q 171 82 183 69 l 89 164 q 78 193 78 175 l 78 829 l 158 829 l 158 211 l 218 153 l 382 153 l 439 213 l 439 829 l 522 829 l 522 589 l 578 589 l 583 594 l 583 653 z "},"ư":{"ha":750,"x_min":81,"x_max":667,"o":"m 433 117 l 400 83 q 371 71 388 71 l 203 71 q 175 82 186 71 l 93 163 q 81 192 81 175 l 81 661 l 161 661 l 161 208 l 219 151 l 354 151 l 413 213 l 413 661 l 494 661 l 494 535 l 578 535 l 583 540 l 583 653 l 667 653 l 667 524 q 654 494 667 504 l 624 464 q 594 451 611 451 l 494 451 l 494 196 q 490 179 494 190 l 515 151 l 583 151 l 583 71 l 499 71 q 469 82 478 71 l 433 117 z "},"ǵ":{"ha":750,"x_min":79,"x_max":625,"o":"m 293 700 q 264 713 276 700 q 251 742 251 725 q 264 772 251 760 l 431 940 q 460 953 443 953 q 490 940 478 953 q 503 910 503 928 q 490 881 503 893 l 324 713 q 293 700 311 700 m 542 260 l 446 164 q 417 151 436 151 l 285 151 q 256 164 268 151 l 92 328 q 79 357 79 338 l 79 450 q 92 479 79 467 l 260 649 q 289 660 269 660 l 499 660 q 528 649 517 660 l 613 563 q 625 533 625 553 l 625 18 q 613 -11 625 1 l 535 -89 q 506 -101 525 -101 l 282 -101 q 253 -89 265 -101 l 172 -8 l 231 50 l 299 -18 l 489 -18 l 542 35 l 542 260 m 542 376 l 542 517 l 482 576 l 306 576 l 163 433 l 163 374 l 301 235 l 400 235 l 542 376 z "},"Ǻ":{"ha":750,"x_min":79,"x_max":667,"o":"m 305 1011 q 291 998 305 1011 q 278 946 278 984 q 305 880 278 908 q 369 853 332 853 q 436 880 408 853 q 464 946 464 908 q 436 1011 464 984 q 369 1039 408 1039 q 305 1011 332 1039 m 208 946 q 256 1061 208 1013 q 369 1108 303 1108 q 485 1061 438 1108 q 533 946 533 1013 q 485 831 533 879 q 369 783 437 783 q 256 831 303 783 q 208 946 208 879 m 161 206 l 161 68 l 79 68 l 79 421 q 92 449 79 436 l 342 700 q 369 713 352 713 q 401 700 389 713 l 656 447 q 667 418 667 436 l 667 68 l 583 68 l 585 206 l 161 206 m 163 290 l 583 290 l 583 401 l 371 613 l 163 403 l 163 290 z "},"ǻ":{"ha":750,"x_min":79,"x_max":668,"o":"m 500 150 l 500 325 l 221 325 l 161 264 l 161 213 l 219 150 l 500 150 m 583 150 l 668 150 l 668 69 l 201 69 q 172 82 185 69 l 92 168 q 79 197 79 181 l 79 281 q 92 310 79 297 l 174 394 q 203 406 185 406 l 500 406 l 500 521 l 443 579 l 160 579 l 160 661 l 460 661 q 489 649 476 661 l 571 565 q 583 538 583 553 l 583 150 m 272 1011 q 258 998 272 1011 q 244 946 244 984 q 272 880 244 908 q 336 853 299 853 q 403 880 375 853 q 431 946 431 908 q 403 1011 431 984 q 336 1039 375 1039 q 272 1011 299 1039 m 175 946 q 222 1061 175 1013 q 336 1108 269 1108 q 452 1061 404 1108 q 500 946 500 1013 q 452 831 500 879 q 336 783 403 783 q 222 831 269 783 q 175 946 175 879 z "},"Ǽ":{"ha":750,"x_min":74,"x_max":668,"o":"m 414 746 l 160 519 l 160 407 l 414 407 l 414 746 m 74 68 l 74 356 l 74 525 q 85 569 74 551 q 121 608 96 586 l 324 792 q 379 829 358 822 l 668 829 l 668 746 l 499 746 l 499 492 l 668 492 l 668 407 l 499 407 l 499 151 l 668 151 l 668 68 l 414 68 l 414 321 l 160 321 l 160 68 l 74 68 m 290 874 q 261 886 274 874 q 249 915 249 899 q 261 946 249 933 l 428 1114 q 457 1126 440 1126 q 488 1114 475 1126 q 500 1083 500 1101 q 488 1054 500 1067 l 321 886 q 290 874 308 874 z "},"ǽ":{"ha":750,"x_min":75,"x_max":671,"o":"m 331 408 l 306 408 l 158 264 l 158 210 l 219 151 l 271 151 l 331 213 l 331 408 m 331 492 l 331 517 l 269 576 l 75 576 l 75 660 l 286 660 q 315 649 304 660 l 371 594 l 426 649 q 456 660 438 660 l 544 660 q 574 649 563 660 l 658 565 q 671 535 671 553 l 671 321 l 414 321 l 414 211 l 474 151 l 667 151 l 667 68 l 456 68 q 426 81 439 68 l 372 136 l 318 81 q 289 68 307 68 l 203 68 q 174 79 185 68 l 88 163 q 75 193 75 175 l 75 282 q 88 311 75 299 l 260 479 q 289 492 272 492 l 331 492 m 414 408 l 588 408 l 588 518 l 526 576 l 472 576 l 414 521 l 414 408 m 290 715 q 261 728 274 715 q 249 757 249 740 q 261 788 249 775 l 428 956 q 457 968 440 968 q 488 956 475 968 q 500 925 500 943 q 488 896 500 908 l 321 728 q 290 715 308 715 z "},"Ǿ":{"ha":750,"x_min":76,"x_max":668,"o":"m 585 600 l 174 194 l 217 153 l 525 153 l 585 213 l 585 600 m 567 703 l 525 747 l 218 747 l 163 686 l 163 301 l 567 703 m 90 731 l 169 817 q 200 829 181 829 l 543 829 q 574 817 564 829 l 657 731 q 668 701 668 719 l 668 194 q 656 165 668 175 l 571 82 q 542 69 558 69 l 200 69 q 171 81 182 69 l 89 160 q 76 190 76 172 l 76 703 q 90 731 76 717 m 290 859 q 261 872 274 859 q 249 901 249 884 q 261 931 249 919 l 428 1099 q 457 1112 440 1112 q 488 1099 475 1112 q 500 1069 500 1087 q 488 1040 500 1052 l 321 872 q 290 859 308 859 z "},"ǿ":{"ha":750,"x_min":88,"x_max":658,"o":"m 483 535 l 442 578 l 304 578 l 243 518 l 243 292 l 483 535 m 499 432 l 263 196 l 301 153 l 442 153 l 499 211 l 499 432 m 583 515 l 583 194 q 569 165 583 179 l 488 82 q 458 72 478 72 l 285 72 q 256 85 268 72 l 203 136 l 146 79 l 88 138 l 160 210 l 160 535 q 172 564 160 551 l 257 649 q 286 663 271 663 l 460 663 q 490 653 481 663 l 543 593 l 600 653 l 658 592 l 583 515 m 290 710 q 261 722 274 710 q 249 751 249 735 q 261 782 249 769 l 428 950 q 457 963 440 963 q 488 950 475 963 q 500 919 500 938 q 488 890 500 903 l 321 722 q 290 710 308 710 z "},"ɇ":{"ha":750,"x_min":74,"x_max":658,"o":"m 118 69 q 87 84 100 69 q 74 117 74 99 q 86 146 74 134 l 124 185 q 123 188 123 186 q 123 192 123 190 q 124 194 124 194 l 124 522 q 138 550 124 536 l 222 638 q 253 653 238 653 l 458 653 q 488 638 472 653 l 528 594 l 585 653 q 615 667 599 667 q 646 654 633 667 q 658 624 658 642 q 646 593 658 606 l 582 528 l 582 321 l 379 321 l 239 176 l 265 149 l 585 149 l 585 71 l 249 71 q 221 82 232 71 l 182 119 l 149 85 q 118 69 133 69 m 206 267 l 258 321 l 206 321 l 206 267 m 343 407 l 471 538 l 442 568 l 268 568 l 207 506 l 207 407 l 343 407 m 464 407 l 501 407 l 501 446 l 464 407 z "},"ʻ":{"ha":750,"x_min":167,"x_max":496,"o":"m 167 715 l 167 863 l 192 922 l 379 1110 l 496 994 l 332 828 l 332 715 l 167 715 z "},"ʼ":{"ha":750,"x_min":0,"x_max":0,"o":""},"˂":{"ha":750,"x_min":146,"x_max":397,"o":"m 375 301 m 375 533 m 158 388 q 146 417 146 399 q 158 446 146 435 q 165 452 161 449 l 353 568 l 397 497 l 267 417 l 397 336 l 353 265 l 165 381 q 158 388 161 384 z "},"˃":{"ha":750,"x_min":240,"x_max":491,"o":"m 262 533 m 262 301 m 478 446 q 491 417 491 435 q 478 388 491 399 q 472 381 476 384 l 284 265 l 240 336 l 370 417 l 240 497 l 284 568 l 472 452 q 478 446 476 449 z "},"˄":{"ha":750,"x_min":186,"x_max":489,"o":"m 222 360 m 453 360 m 308 576 q 338 589 319 589 q 367 576 356 589 q 373 569 370 574 l 489 382 l 418 338 l 338 468 l 257 338 l 186 382 l 302 569 q 308 576 305 574 z "},"˅":{"ha":750,"x_min":186,"x_max":489,"o":"m 453 520 m 222 520 m 367 303 q 338 291 356 291 q 308 303 319 291 q 302 310 305 306 l 186 498 l 257 542 l 338 412 l 418 542 l 489 498 l 373 310 q 367 303 370 306 z "},"ˆ":{"ha":750,"x_min":157,"x_max":596,"o":"m 186 874 l 157 903 l 347 1093 q 375 1104 358 1104 q 406 1093 394 1104 l 596 903 l 567 874 l 538 844 l 376 1006 l 215 844 l 186 874 z "},"ˇ":{"ha":750,"x_min":154,"x_max":593,"o":"m 564 1075 l 593 1046 l 403 856 q 375 844 392 844 q 344 856 356 844 l 154 1046 l 183 1075 l 213 1104 l 374 943 l 535 1104 l 564 1075 z "},"ˈ":{"ha":750,"x_min":333,"x_max":417,"o":"m 333 1103 l 417 1103 l 417 860 l 333 860 l 333 1103 z "},"ˉ":{"ha":750,"x_min":144,"x_max":599,"o":"m 144 915 l 599 915 l 599 831 l 144 831 l 144 915 z "},"ˊ":{"ha":750,"x_min":249,"x_max":500,"o":"m 290 663 q 261 675 274 663 q 249 704 249 688 q 261 735 249 722 l 428 903 q 457 915 440 915 q 488 903 475 915 q 500 872 500 890 q 488 843 500 856 l 321 675 q 290 663 308 663 z "},"ˋ":{"ha":750,"x_min":256,"x_max":511,"o":"m 267 904 q 297 915 278 915 q 326 904 315 915 l 500 732 q 511 703 511 721 q 500 672 511 683 q 469 661 489 661 q 440 672 451 661 l 267 846 q 256 875 256 857 q 267 904 256 895 z "},"ˌ":{"ha":750,"x_min":339,"x_max":424,"o":"m 339 -17 l 424 -17 l 424 -271 l 339 -271 l 339 -17 z "},"ˍ":{"ha":750,"x_min":144,"x_max":599,"o":"m 144 151 l 599 151 l 599 67 l 144 67 l 144 151 z "},"ˎ":{"ha":750,"x_min":256,"x_max":511,"o":"m 267 354 q 297 365 278 365 q 326 354 315 365 l 500 182 q 511 153 511 171 q 500 122 511 133 q 469 111 489 111 q 440 122 451 111 l 267 296 q 256 325 256 307 q 267 354 256 345 z "},"ˏ":{"ha":750,"x_min":249,"x_max":500,"o":"m 290 71 q 261 83 274 71 q 249 113 249 96 q 261 143 249 131 l 428 311 q 457 324 440 324 q 488 311 475 324 q 500 281 500 299 q 488 251 500 264 l 321 83 q 290 71 308 71 z "},"ː":{"ha":750,"x_min":250,"x_max":424,"o":"m 336 239 l 424 89 l 250 89 l 336 239 m 336 408 l 250 558 l 424 558 l 336 408 z "},"ˑ":{"ha":750,"x_min":250,"x_max":424,"o":"m 336 408 l 250 558 l 424 558 l 336 408 z "},"˘":{"ha":750,"x_min":157,"x_max":571,"o":"m 157 915 l 240 915 q 246 883 243 896 q 258 853 250 868 q 278 829 264 843 q 304 808 291 816 q 335 797 315 802 q 365 793 349 793 q 397 797 383 793 q 426 810 412 801 q 451 829 440 817 q 471 854 463 841 q 483 888 478 867 q 488 915 488 902 l 571 915 q 564 863 571 883 q 543 814 555 835 q 511 771 530 790 q 469 739 491 751 q 419 718 447 726 q 368 710 386 710 q 314 715 338 710 q 264 736 294 720 q 219 768 241 749 q 186 810 196 792 q 165 860 172 833 q 157 915 157 893 z "},"˙":{"ha":750,"x_min":258,"x_max":414,"o":"m 281 805 q 270 816 281 805 q 258 860 258 828 q 281 915 258 892 q 336 938 304 938 q 391 915 368 938 q 414 860 414 892 q 391 805 414 828 q 336 782 368 782 q 281 805 304 782 z "},"˚":{"ha":750,"x_min":175,"x_max":500,"o":"m 272 811 q 258 798 272 811 q 244 746 244 784 q 272 680 244 708 q 336 653 299 653 q 403 680 375 653 q 431 746 431 708 q 403 811 431 784 q 336 839 375 839 q 272 811 299 839 m 175 746 q 222 861 175 813 q 336 908 269 908 q 452 861 404 908 q 500 746 500 813 q 452 631 500 679 q 336 583 403 583 q 222 631 269 583 q 175 746 175 679 z "},"˛":{"ha":750,"x_min":161,"x_max":301,"o":"m 165 8 q 161 21 161 13 l 161 113 l 240 113 l 240 43 l 271 11 l 301 11 l 301 -69 l 253 -69 q 225 -57 238 -69 l 172 0 l 165 8 z "},"˜":{"ha":750,"x_min":193,"x_max":567,"o":"m 232 770 l 193 808 l 249 864 q 267 872 256 872 l 327 872 q 347 864 341 872 l 447 764 l 484 764 l 528 808 l 567 769 l 514 717 q 495 709 508 709 l 435 709 q 416 717 424 709 l 316 817 l 278 817 l 232 770 z "},"˝":{"ha":750,"x_min":147,"x_max":618,"o":"m 189 663 q 160 675 172 663 q 147 704 147 688 q 160 735 147 722 l 326 903 q 356 915 339 915 q 386 903 374 915 q 399 872 399 890 q 386 843 399 856 l 219 675 q 189 663 207 663 m 408 663 q 379 675 392 663 q 367 704 367 688 q 379 735 367 722 l 546 903 q 575 915 558 915 q 606 903 593 915 q 618 872 618 890 q 606 843 618 856 l 439 675 q 408 663 426 663 z "},"ˠ":{"ha":750,"x_min":165,"x_max":499,"o":"m 165 829 l 219 829 l 219 759 l 334 536 l 444 759 l 444 829 l 499 829 l 499 753 q 496 740 499 747 l 362 469 l 362 281 l 307 281 l 307 468 l 167 740 q 165 753 165 745 l 165 829 z "},"ˡ":{"ha":750,"x_min":358,"x_max":469,"o":"m 413 336 l 424 324 l 469 324 l 469 269 l 413 269 q 394 277 403 269 l 366 305 q 358 324 358 313 l 358 828 l 413 828 l 413 336 z "},"ˢ":{"ha":750,"x_min":165,"x_max":499,"o":"m 442 734 l 401 774 l 260 774 l 233 747 l 490 544 q 499 524 499 535 q 491 503 499 511 l 433 447 q 414 438 425 438 l 249 438 q 230 447 238 438 l 173 501 q 165 522 165 510 l 165 547 l 219 547 l 219 533 l 260 493 l 403 493 l 431 520 l 176 722 q 166 742 167 728 l 166 746 q 173 763 166 756 l 228 821 q 248 829 236 829 l 413 829 q 431 821 423 829 l 488 765 q 497 746 497 757 l 497 717 l 442 717 l 442 734 z "},"ˣ":{"ha":750,"x_min":176,"x_max":568,"o":"m 372 594 l 231 454 l 231 437 l 176 437 l 176 467 q 183 485 176 478 l 333 633 l 183 782 q 176 802 176 789 l 176 829 l 231 829 l 231 811 l 372 673 l 513 811 l 513 829 l 568 829 l 568 802 q 560 782 568 790 l 410 634 l 560 485 q 568 467 568 477 l 568 437 l 513 437 l 513 454 l 372 594 z "},"ˤ":{"ha":750,"x_min":160,"x_max":575,"o":"m 546 700 l 517 669 l 435 747 l 307 747 l 243 683 l 243 647 l 401 489 q 414 460 414 476 l 414 324 l 372 324 l 331 324 l 331 443 l 172 601 q 160 631 160 614 l 160 700 q 172 729 160 717 l 261 818 q 290 831 274 831 l 451 831 q 481 819 467 831 l 575 731 l 546 700 z "},"ˬ":{"ha":750,"x_min":147,"x_max":586,"o":"m 557 293 l 586 264 l 396 74 q 368 63 385 63 q 338 74 349 63 l 147 264 l 176 293 l 206 322 l 367 161 l 528 322 l 557 293 z "},"ˮ":{"ha":750,"x_min":254,"x_max":508,"o":"m 424 915 l 508 915 l 508 661 l 424 661 l 424 915 m 254 915 l 339 915 l 339 661 l 254 661 l 254 915 z "},"̀":{"ha":750,"x_min":256,"x_max":511,"o":"m 267 904 q 297 915 278 915 q 326 904 315 915 l 500 732 q 511 703 511 721 q 500 672 511 683 q 469 661 489 661 q 440 672 451 661 l 267 846 q 256 875 256 857 q 267 904 256 895 z "},"́":{"ha":750,"x_min":249,"x_max":500,"o":"m 290 663 q 261 675 274 663 q 249 704 249 688 q 261 735 249 722 l 428 903 q 457 915 440 915 q 488 903 475 915 q 500 872 500 890 q 488 843 500 856 l 321 675 q 290 663 308 663 z "},"̂":{"ha":750,"x_min":157,"x_max":596,"o":"m 186 874 l 157 903 l 347 1093 q 375 1104 358 1104 q 406 1093 394 1104 l 596 903 l 567 874 l 538 844 l 376 1006 l 215 844 l 186 874 z "},"̃":{"ha":750,"x_min":97,"x_max":663,"o":"m 126 789 l 97 818 l 181 901 q 210 914 193 914 l 300 914 q 329 901 319 914 l 481 750 l 538 750 l 604 817 l 633 788 l 663 758 l 583 679 q 554 667 574 667 l 464 667 q 435 679 447 667 l 283 831 l 226 831 l 156 760 l 126 789 z "},"̄":{"ha":750,"x_min":144,"x_max":599,"o":"m 144 915 l 599 915 l 599 831 l 144 831 l 144 915 z "},"̅":{"ha":750,"x_min":85,"x_max":660,"o":"m 85 1110 l 660 1110 l 660 1025 l 85 1025 l 85 1110 z "},"̆":{"ha":750,"x_min":157,"x_max":571,"o":"m 157 915 l 240 915 q 246 883 243 896 q 258 853 250 868 q 278 829 264 843 q 304 808 291 816 q 335 797 315 802 q 365 793 349 793 q 397 797 383 793 q 426 810 412 801 q 451 829 440 817 q 471 854 463 841 q 483 888 478 867 q 488 915 488 902 l 571 915 q 564 863 571 883 q 543 814 555 835 q 511 771 530 790 q 469 739 491 751 q 419 718 447 726 q 368 710 386 710 q 314 715 338 710 q 264 736 294 720 q 219 768 241 749 q 186 810 196 792 q 165 860 172 833 q 157 915 157 893 z "},"̇":{"ha":750,"x_min":258,"x_max":414,"o":"m 281 805 q 270 816 281 805 q 258 860 258 828 q 281 915 258 892 q 336 938 304 938 q 391 915 368 938 q 414 860 414 892 q 391 805 414 828 q 336 782 368 782 q 281 805 304 782 z "},"̈":{"ha":750,"x_min":158,"x_max":500,"o":"m 158 915 l 246 915 l 246 831 l 158 831 l 158 915 m 414 915 l 500 915 l 500 831 l 414 831 l 414 915 z "},"̉":{"ha":750,"x_min":313,"x_max":462,"o":"m 420 1106 l 462 1106 l 462 995 q 449 966 462 976 l 399 916 q 370 903 387 903 l 313 903 l 313 945 l 313 987 l 353 987 l 378 1012 l 378 1106 l 420 1106 z "},"̊":{"ha":750,"x_min":175,"x_max":500,"o":"m 272 811 q 258 798 272 811 q 244 746 244 784 q 272 680 244 708 q 336 653 299 653 q 403 680 375 653 q 431 746 431 708 q 403 811 431 784 q 336 839 375 839 q 272 811 299 839 m 175 746 q 222 861 175 813 q 336 908 269 908 q 452 861 404 908 q 500 746 500 813 q 452 631 500 679 q 336 583 403 583 q 222 631 269 583 q 175 746 175 679 z "},"̋":{"ha":750,"x_min":147,"x_max":618,"o":"m 189 663 q 160 675 172 663 q 147 704 147 688 q 160 735 147 722 l 326 903 q 356 915 339 915 q 386 903 374 915 q 399 872 399 890 q 386 843 399 856 l 219 675 q 189 663 207 663 m 408 663 q 379 675 392 663 q 367 704 367 688 q 379 735 367 722 l 546 903 q 575 915 558 915 q 606 903 593 915 q 618 872 618 890 q 606 843 618 856 l 439 675 q 408 663 426 663 z "},"̌":{"ha":750,"x_min":154,"x_max":593,"o":"m 564 1075 l 593 1046 l 403 856 q 375 844 392 844 q 344 856 356 844 l 154 1046 l 183 1075 l 213 1104 l 374 943 l 535 1104 l 564 1075 z "},"̍":{"ha":750,"x_min":333,"x_max":417,"o":"m 333 1103 l 417 1103 l 417 860 l 333 860 l 333 1103 z "},"̎":{"ha":750,"x_min":194,"x_max":533,"o":"m 194 1110 l 280 1110 l 280 856 l 194 856 l 194 1110 m 448 1110 l 533 1110 l 533 856 l 448 856 l 448 1110 z "},"̏":{"ha":750,"x_min":82,"x_max":532,"o":"m 93 1099 q 124 1110 104 1110 q 153 1099 142 1110 l 326 926 q 338 897 338 915 q 326 867 338 878 q 296 856 315 856 q 267 867 278 856 l 93 1040 q 82 1069 82 1051 q 93 1099 82 1090 m 288 1099 q 318 1110 299 1110 q 347 1099 336 1110 l 521 926 q 532 897 532 915 q 521 867 532 878 q 490 856 510 856 q 461 867 472 856 l 288 1040 q 276 1069 276 1051 q 288 1099 276 1090 z "},"̐":{"ha":750,"x_min":157,"x_max":571,"o":"m 308 977 q 297 989 308 977 q 285 1033 285 1000 q 308 1088 285 1065 q 363 1110 331 1110 q 418 1088 396 1110 q 441 1033 441 1065 q 418 977 441 1000 q 363 955 396 955 q 308 977 331 955 m 157 1043 l 240 1043 q 246 1011 243 1024 q 258 981 250 996 q 278 957 264 971 q 304 936 291 944 q 335 925 315 930 q 365 921 349 921 q 397 925 383 921 q 426 938 412 929 q 451 957 440 945 q 471 982 463 969 q 483 1015 478 995 q 488 1043 488 1030 l 571 1043 q 564 990 571 1011 q 543 942 555 963 q 511 899 530 917 q 469 867 491 878 q 419 846 447 854 q 368 838 386 838 q 314 843 338 838 q 264 864 294 848 q 219 896 241 876 q 186 938 196 919 q 165 988 172 960 q 157 1043 157 1021 z "},"̑":{"ha":750,"x_min":164,"x_max":578,"o":"m 578 905 l 494 905 q 489 937 492 924 q 476 967 485 952 q 457 991 471 977 q 431 1012 444 1004 q 400 1023 419 1018 q 369 1027 385 1027 q 338 1023 352 1027 q 308 1010 323 1019 q 283 991 295 1003 q 264 966 272 979 q 251 933 256 953 q 247 905 247 918 l 164 905 q 171 958 164 937 q 192 1006 180 985 q 224 1049 205 1031 q 265 1081 244 1069 q 315 1102 288 1094 q 367 1110 349 1110 q 421 1105 397 1110 q 471 1084 441 1100 q 515 1052 494 1072 q 549 1010 539 1028 q 569 960 563 988 q 578 905 578 927 z "},"̒":{"ha":750,"x_min":293,"x_max":622,"o":"m 293 715 l 293 863 l 318 922 l 506 1110 l 622 994 l 458 828 l 458 715 l 293 715 z "},"̓":{"ha":750,"x_min":211,"x_max":540,"o":"m 540 1110 l 540 961 l 515 903 l 328 714 l 211 831 l 375 996 l 375 1110 l 540 1110 z "},"̔":{"ha":750,"x_min":211,"x_max":540,"o":"m 211 1110 l 376 1110 l 376 996 l 540 831 l 424 714 l 236 903 l 211 961 l 211 1110 z "},"̕":{"ha":750,"x_min":329,"x_max":658,"o":"m 658 1110 l 658 961 l 633 903 l 446 714 l 329 831 l 493 996 l 493 1110 l 658 1110 z "},"̖":{"ha":750,"x_min":256,"x_max":511,"o":"m 267 36 q 297 47 278 47 q 326 36 315 47 l 500 -136 q 511 -165 511 -147 q 500 -196 511 -185 q 469 -207 489 -207 q 440 -196 451 -207 l 267 -22 q 256 7 256 -11 q 267 36 256 27 z "},"̗":{"ha":750,"x_min":249,"x_max":500,"o":"m 290 -212 q 261 -199 274 -212 q 249 -170 249 -187 q 261 -140 249 -152 l 428 28 q 457 41 440 41 q 488 28 475 41 q 500 -2 500 16 q 488 -31 500 -19 l 321 -199 q 290 -212 308 -212 z "},"̘":{"ha":750,"x_min":188,"x_max":417,"o":"m 333 69 l 417 69 l 417 -278 l 333 -278 l 333 -146 l 188 -146 l 188 -62 l 333 -62 l 333 69 z "},"̙":{"ha":750,"x_min":333,"x_max":563,"o":"m 333 69 l 417 69 l 417 -62 l 563 -62 l 563 -146 l 417 -146 l 417 -278 l 333 -278 l 333 69 z "},"̚":{"ha":750,"x_min":469,"x_max":699,"o":"m 469 896 l 469 979 l 699 979 l 699 764 l 615 764 l 615 896 l 469 896 z "},"̛":{"ha":750,"x_min":486,"x_max":667,"o":"m 583 938 l 667 938 l 667 863 q 654 833 667 843 l 624 803 q 594 790 611 790 l 486 790 l 486 874 l 578 874 l 583 879 l 583 938 z "},"̜":{"ha":750,"x_min":263,"x_max":426,"o":"m 426 -277 q 310 -227 357 -276 q 263 -109 263 -178 q 310 9 263 -40 q 426 59 357 58 l 426 -19 q 366 -45 391 -19 q 342 -109 342 -72 q 366 -172 342 -146 q 426 -198 391 -197 l 426 -277 z "},"̝":{"ha":750,"x_min":188,"x_max":563,"o":"m 333 63 l 417 63 l 417 -69 l 563 -69 l 563 -153 l 188 -153 l 188 -69 l 333 -69 l 333 63 z "},"̞":{"ha":750,"x_min":188,"x_max":563,"o":"m 563 56 l 563 -28 l 417 -28 l 417 -160 l 333 -160 l 333 -28 l 188 -28 l 188 56 l 563 56 z "},"̟":{"ha":750,"x_min":188,"x_max":563,"o":"m 333 70 l 417 70 l 417 -62 l 563 -62 l 563 -145 l 417 -145 l 417 -277 l 333 -277 l 333 -145 l 188 -145 l 188 -62 l 333 -62 l 333 70 z "},"̠":{"ha":750,"x_min":165,"x_max":579,"o":"m 165 1 l 579 1 l 579 -77 l 165 -77 l 165 1 z "},"̡":{"ha":750,"x_min":267,"x_max":416,"o":"m 374 -1 l 416 -1 l 416 -112 q 403 -141 416 -131 l 353 -191 q 324 -203 341 -203 l 267 -203 l 267 -162 l 267 -120 l 308 -120 l 333 -95 l 333 -1 l 374 -1 z "},"̢":{"ha":750,"x_min":332,"x_max":481,"o":"m 374 0 l 415 0 l 415 -94 l 440 -119 l 481 -119 l 481 -161 l 481 -203 l 424 -203 q 394 -190 407 -203 l 344 -140 q 332 -111 332 -131 l 332 0 l 374 0 z "},"̣":{"ha":750,"x_min":294,"x_max":450,"o":"m 317 -98 q 306 -86 317 -98 q 294 -43 294 -75 q 317 12 294 -11 q 372 35 340 35 q 427 12 404 35 q 450 -43 450 -11 q 427 -98 450 -75 q 372 -121 404 -121 q 317 -98 340 -121 z "},"̤":{"ha":750,"x_min":204,"x_max":546,"o":"m 204 33 l 292 33 l 292 -51 l 204 -51 l 204 33 m 460 33 l 546 33 l 546 -51 l 460 -51 l 460 33 z "},"̥":{"ha":750,"x_min":210,"x_max":535,"o":"m 306 -36 q 293 -49 306 -36 q 279 -101 279 -63 q 306 -167 279 -140 q 371 -194 333 -194 q 438 -167 410 -194 q 465 -101 465 -140 q 438 -36 465 -63 q 371 -8 410 -8 q 306 -36 333 -8 m 210 -101 q 257 14 210 -34 q 371 61 304 61 q 487 14 439 61 q 535 -101 535 -34 q 486 -216 535 -168 q 371 -264 438 -264 q 257 -216 304 -264 q 210 -101 210 -168 z "},"̦":{"ha":750,"x_min":211,"x_max":540,"o":"m 540 121 l 540 -28 l 515 -86 l 328 -275 l 211 -158 l 375 7 l 375 121 l 540 121 z "},"̧":{"ha":750,"x_min":170,"x_max":416,"o":"m 333 69 l 416 69 l 416 -155 q 403 -184 416 -173 l 326 -262 q 297 -274 314 -274 l 170 -274 l 170 -191 l 279 -191 l 333 -137 l 333 69 z "},"̨":{"ha":750,"x_min":335,"x_max":475,"o":"m 339 -40 q 335 -28 335 -36 l 335 64 l 414 64 l 414 -6 l 444 -37 l 475 -37 l 475 -118 l 426 -118 q 399 -106 411 -118 l 346 -49 l 339 -40 z "},"̩":{"ha":750,"x_min":329,"x_max":414,"o":"m 329 59 l 414 59 l 414 -240 l 329 -240 l 329 59 z "},"̪":{"ha":750,"x_min":188,"x_max":553,"o":"m 188 -146 l 188 42 l 553 42 l 553 -146 l 469 -146 l 469 -42 l 272 -42 l 272 -146 l 188 -146 z "},"̫":{"ha":750,"x_min":169,"x_max":575,"o":"m 211 28 l 253 28 l 253 -35 l 281 -62 l 303 -62 l 331 -35 l 331 28 l 372 28 l 414 28 l 414 -35 l 442 -62 l 464 -62 l 492 -35 l 492 28 l 533 28 l 575 28 l 575 -52 q 563 -81 575 -69 l 510 -133 q 481 -146 498 -146 l 424 -146 q 395 -133 408 -146 l 372 -111 l 349 -133 q 320 -146 337 -146 l 263 -146 q 234 -133 247 -146 l 182 -81 q 169 -52 169 -69 l 169 28 l 211 28 z "},"̬":{"ha":750,"x_min":154,"x_max":593,"o":"m 564 13 l 593 -17 l 403 -207 q 375 -218 392 -218 q 344 -207 356 -218 l 154 -17 l 183 13 l 213 42 l 374 -119 l 535 42 l 564 13 z "},"̭":{"ha":750,"x_min":156,"x_max":594,"o":"m 185 -193 l 156 -164 l 346 26 q 374 38 357 38 q 404 26 393 38 l 594 -164 l 565 -193 l 536 -222 l 375 -61 l 214 -222 l 185 -193 z "},"̮":{"ha":750,"x_min":165,"x_max":578,"o":"m 165 19 l 248 19 q 253 -12 250 0 q 266 -43 258 -28 q 285 -67 272 -53 q 312 -87 299 -80 q 342 -99 323 -94 q 373 -103 357 -103 q 405 -99 390 -103 q 434 -86 419 -94 q 459 -67 447 -78 q 478 -42 471 -55 q 491 -8 486 -28 q 495 19 495 6 l 578 19 q 572 -33 578 -12 q 551 -82 563 -60 q 519 -125 538 -106 q 477 -157 499 -145 q 427 -178 454 -169 q 376 -186 394 -186 q 322 -181 346 -186 q 272 -160 301 -176 q 227 -128 249 -147 q 194 -86 203 -104 q 173 -36 179 -63 q 165 19 165 -3 z "},"̯":{"ha":750,"x_min":163,"x_max":577,"o":"m 577 -179 l 494 -179 q 488 -147 492 -160 q 476 -117 484 -132 q 456 -93 470 -107 q 430 -72 443 -80 q 399 -61 419 -66 q 369 -57 385 -57 q 337 -61 351 -57 q 308 -74 322 -65 q 283 -93 294 -81 q 263 -118 271 -105 q 251 -151 256 -131 q 247 -179 247 -166 l 163 -179 q 170 -126 163 -147 q 191 -78 179 -99 q 223 -35 204 -53 q 265 -3 243 -15 q 315 18 288 10 q 366 26 348 26 q 420 21 396 26 q 470 0 440 16 q 515 -32 493 -12 q 548 -74 538 -56 q 569 -124 563 -97 q 577 -179 577 -157 z "},"̰":{"ha":750,"x_min":90,"x_max":655,"o":"m 119 -72 l 90 -43 l 173 40 q 202 53 185 53 l 292 53 q 322 40 312 53 l 473 -111 l 530 -111 l 597 -44 l 626 -74 l 655 -103 l 576 -182 q 547 -194 566 -194 l 456 -194 q 427 -182 440 -194 l 276 -31 l 219 -31 l 148 -101 l 119 -72 z "},"̱":{"ha":750,"x_min":144,"x_max":599,"o":"m 144 -1 l 599 -1 l 599 -86 l 144 -86 l 144 -1 z "},"̲":{"ha":750,"x_min":63,"x_max":682,"o":"m 63 -1 l 682 -1 l 682 -86 l 63 -86 l 63 -1 z "},"̳":{"ha":750,"x_min":63,"x_max":682,"o":"m 63 -1 l 682 -1 l 682 -86 l 63 -86 l 63 -1 m 63 -154 l 682 -154 l 682 -239 l 63 -239 l 63 -154 z "},"̴":{"ha":750,"x_min":56,"x_max":704,"o":"m 85 381 l 56 410 l 139 521 q 168 533 151 533 l 300 533 q 329 521 319 533 l 481 307 l 579 307 l 646 401 l 675 372 l 704 343 l 625 236 q 596 224 615 224 l 464 224 q 435 236 447 224 l 283 450 l 185 450 l 114 351 l 85 381 z "},"̵":{"ha":750,"x_min":206,"x_max":541,"o":"m 206 488 l 206 529 l 541 529 l 541 488 l 541 446 l 206 446 l 206 488 z "},"̶":{"ha":750,"x_min":63,"x_max":682,"o":"m 63 531 l 682 531 l 682 446 l 63 446 l 63 531 z "},"̷":{"ha":750,"x_min":97,"x_max":653,"o":"m 139 151 q 131 151 139 151 q 110 164 122 151 q 97 193 97 176 q 110 222 97 210 l 582 694 q 611 707 592 707 q 640 694 628 707 q 653 665 653 684 q 640 636 653 647 l 168 164 q 139 151 156 151 z "},"̸":{"ha":750,"x_min":42,"x_max":708,"o":"m 83 96 q 75 96 83 96 q 54 108 67 96 q 42 138 42 121 q 54 167 42 154 l 638 750 q 667 763 648 763 q 696 750 683 763 q 708 721 708 740 q 696 692 708 702 l 113 108 q 83 96 100 96 z "},"̹":{"ha":750,"x_min":263,"x_max":426,"o":"m 263 59 q 378 9 331 58 q 426 -109 426 -40 q 378 -227 426 -178 q 263 -277 331 -276 l 263 -199 q 322 -173 297 -199 q 347 -109 347 -147 q 322 -47 347 -72 q 263 -20 297 -21 l 263 59 z "},"̺":{"ha":750,"x_min":188,"x_max":553,"o":"m 553 42 l 553 -146 l 188 -146 l 188 42 l 271 42 l 271 -62 l 469 -62 l 469 42 l 553 42 z "},"̻":{"ha":750,"x_min":205,"x_max":542,"o":"m 288 -14 l 288 -185 l 459 -185 l 459 -14 l 288 -14 m 205 69 l 542 69 l 542 -268 l 205 -268 l 205 69 z "},"̼":{"ha":750,"x_min":169,"x_max":575,"o":"m 533 -146 l 492 -146 l 492 -83 l 464 -56 l 442 -56 l 414 -83 l 414 -146 l 372 -146 l 331 -146 l 331 -83 l 303 -56 l 281 -56 l 253 -83 l 253 -146 l 211 -146 l 169 -146 l 169 -66 q 182 -37 169 -49 l 234 15 q 263 28 247 28 l 320 28 q 349 15 337 28 l 372 -7 l 395 15 q 424 28 408 28 l 481 28 q 510 15 498 28 l 563 -37 q 575 -66 575 -49 l 575 -146 l 533 -146 z "},"̽":{"ha":750,"x_min":222,"x_max":515,"o":"m 222 1052 l 281 1111 l 368 1024 l 456 1111 l 515 1052 l 427 965 l 515 877 l 456 819 l 368 906 l 281 819 l 222 877 l 309 965 l 222 1052 z "},"̾":{"ha":750,"x_min":275,"x_max":474,"o":"m 369 1078 l 398 1108 l 462 1043 q 474 1015 474 1031 q 462 985 474 997 l 375 897 l 409 863 l 380 833 l 351 804 l 287 868 q 275 898 275 880 q 287 926 275 915 l 374 1014 l 340 1049 l 369 1078 z "},"̿":{"ha":750,"x_min":63,"x_max":682,"o":"m 63 1089 l 682 1089 l 682 1004 l 63 1004 l 63 1089 m 63 936 l 682 936 l 682 851 l 63 851 l 63 936 z "},"̀":{"ha":750,"x_min":139,"x_max":611,"o":"m 150 1092 q 181 1103 161 1103 q 210 1092 199 1103 l 383 919 q 394 890 394 908 q 383 860 394 871 q 353 849 372 849 q 324 860 335 849 l 150 1033 q 139 1063 139 1044 q 150 1092 139 1083 m 367 1092 q 397 1103 378 1103 q 426 1092 415 1103 l 600 919 q 611 890 611 908 q 600 860 611 871 q 569 849 589 849 q 540 860 551 849 l 367 1033 q 356 1063 356 1044 q 367 1092 356 1083 z "},"́":{"ha":750,"x_min":139,"x_max":611,"o":"m 401 850 q 372 863 385 850 q 360 892 360 875 q 372 922 360 910 l 539 1090 q 568 1103 551 1103 q 599 1090 586 1103 q 611 1060 611 1078 q 599 1031 611 1043 l 432 863 q 401 850 419 850 m 181 850 q 151 863 164 850 q 139 892 139 875 q 151 922 139 910 l 318 1090 q 347 1103 331 1103 q 378 1090 365 1103 q 390 1060 390 1078 q 378 1031 390 1043 l 211 863 q 181 850 199 850 z "},"͂":{"ha":750,"x_min":158,"x_max":594,"o":"m 188 883 l 158 913 l 252 1006 q 281 1017 264 1017 q 307 1009 297 1017 l 463 888 l 531 966 l 563 938 l 594 910 l 500 803 q 469 790 489 790 q 443 799 454 790 l 285 921 l 217 853 l 188 883 z "},"̓":{"ha":750,"x_min":211,"x_max":540,"o":"m 540 1110 l 540 961 l 515 903 l 328 714 l 211 831 l 375 996 l 375 1110 l 540 1110 z "},"̈́":{"ha":750,"x_min":198,"x_max":563,"o":"m 353 857 q 324 869 336 857 q 311 899 311 882 q 324 929 311 917 l 490 1097 q 519 1110 503 1110 q 550 1097 538 1110 q 563 1067 563 1085 q 550 1038 563 1050 l 383 869 q 353 857 371 857 m 198 915 l 285 915 l 285 831 l 198 831 l 198 915 m 453 915 l 540 915 l 540 831 l 453 831 l 453 915 z "},"ͅ":{"ha":750,"x_min":281,"x_max":479,"o":"m 322 69 l 364 69 l 364 -131 l 390 -153 l 402 -153 l 421 -135 l 450 -164 l 479 -193 l 449 -224 q 419 -236 436 -236 l 375 -236 q 348 -226 360 -236 l 295 -182 q 281 -150 281 -169 l 281 69 l 322 69 z "},"͆":{"ha":750,"x_min":188,"x_max":553,"o":"m 188 854 l 188 1042 l 553 1042 l 553 854 l 469 854 l 469 958 l 272 958 l 272 854 l 188 854 z "},"͇":{"ha":750,"x_min":83,"x_max":661,"o":"m 83 45 l 661 45 l 661 -33 l 83 -33 l 83 45 m 83 -187 l 661 -187 l 661 -265 l 83 -265 l 83 -187 z "},"͈":{"ha":750,"x_min":253,"x_max":497,"o":"m 253 61 l 338 61 l 338 -237 l 253 -237 l 253 61 m 413 61 l 497 61 l 497 -237 l 413 -237 l 413 61 z "},"͉":{"ha":750,"x_min":260,"x_max":490,"o":"m 260 -83 l 260 0 l 490 0 l 490 -215 l 406 -215 l 406 -83 l 260 -83 z "},"͊":{"ha":750,"x_min":97,"x_max":663,"o":"m 126 942 l 97 971 l 181 1054 q 210 1067 193 1067 l 300 1067 q 329 1054 319 1067 l 378 1005 l 474 1101 l 503 1072 l 533 1042 l 437 947 l 481 903 l 538 903 l 604 969 l 633 940 l 663 911 l 583 832 q 554 819 574 819 l 464 819 q 435 832 447 819 l 378 888 l 258 767 l 228 797 l 199 826 l 320 947 l 283 983 l 226 983 l 156 913 l 126 942 z "},"͋":{"ha":750,"x_min":97,"x_max":663,"o":"m 126 949 l 97 978 l 181 1061 q 210 1074 193 1074 l 300 1074 q 329 1061 319 1074 l 481 910 l 538 910 l 604 976 l 633 947 l 663 918 l 583 839 q 554 826 574 826 l 464 826 q 435 839 447 826 l 283 990 l 226 990 l 156 919 l 126 949 m 201 826 q 189 837 201 826 q 178 881 178 849 q 201 935 178 913 q 256 958 224 958 q 310 935 288 958 q 333 881 333 913 q 310 826 333 849 q 256 803 288 803 q 201 826 224 803 m 453 965 q 442 976 453 965 q 431 1019 431 988 q 453 1074 431 1051 q 508 1097 476 1097 q 563 1074 540 1097 q 586 1019 586 1051 q 563 965 586 988 q 508 942 540 942 q 453 965 476 942 z "},"͌":{"ha":750,"x_min":74,"x_max":656,"o":"m 93 1017 l 74 1054 l 169 1102 q 188 1106 177 1106 l 281 1106 q 299 1103 290 1106 l 478 1022 l 553 1022 l 619 1054 l 638 1017 l 656 979 l 581 943 q 563 939 574 939 l 469 939 q 451 942 460 939 l 272 1023 l 197 1023 l 112 979 l 93 1017 m 93 894 l 74 932 l 169 980 q 188 984 177 984 l 281 984 q 299 981 290 984 l 478 900 l 553 900 l 619 932 l 638 894 l 656 857 l 581 821 q 563 817 574 817 l 469 817 q 451 820 460 817 l 272 901 l 197 901 l 112 857 l 93 894 z "},"͍":{"ha":750,"x_min":119,"x_max":631,"o":"m 435 21 l 631 -122 l 435 -264 l 435 -164 l 301 -165 l 301 -264 l 119 -122 l 301 21 l 301 -79 l 435 -79 l 435 21 z "},"͎":{"ha":750,"x_min":233,"x_max":517,"o":"m 517 -124 l 417 -124 l 417 -271 l 333 -271 l 333 -124 l 233 -124 l 375 57 l 517 -124 z "},"͏":{"ha":750,"x_min":0,"x_max":0,"o":""},"͐":{"ha":750,"x_min":230,"x_max":519,"o":"m 324 938 l 230 1068 l 519 938 l 232 807 l 324 938 z "},"͑":{"ha":750,"x_min":293,"x_max":456,"o":"m 456 775 q 340 825 388 776 q 293 943 293 874 q 340 1061 293 1013 q 456 1111 388 1110 l 456 1033 q 397 1007 422 1033 q 372 943 372 981 q 397 881 372 906 q 456 854 422 855 l 456 775 z "},"͒":{"ha":750,"x_min":164,"x_max":578,"o":"m 578 905 l 494 905 q 489 937 492 924 q 476 967 485 952 q 457 991 471 977 q 431 1012 444 1004 q 400 1023 419 1018 q 369 1027 385 1027 q 338 1023 352 1027 q 308 1010 323 1019 q 283 991 295 1003 q 264 966 272 979 q 251 933 256 953 q 247 905 247 918 l 164 905 q 171 958 164 937 q 192 1006 180 985 q 224 1049 205 1031 q 265 1081 244 1069 q 315 1102 288 1094 q 367 1110 349 1110 q 421 1105 397 1110 q 471 1084 441 1100 q 515 1052 494 1072 q 549 1010 539 1028 q 569 960 563 988 q 578 905 578 927 m 316 802 q 305 814 316 802 q 293 858 293 825 q 316 913 293 890 q 371 935 339 935 q 426 913 403 935 q 449 858 449 890 q 426 802 449 825 q 371 780 403 780 q 316 802 339 780 z "},"͓":{"ha":750,"x_min":222,"x_max":515,"o":"m 222 -3 l 281 56 l 368 -32 l 456 56 l 515 -3 l 427 -91 l 515 -178 l 456 -237 l 368 -150 l 281 -237 l 222 -178 l 309 -91 l 222 -3 z "},"͔":{"ha":750,"x_min":175,"x_max":426,"o":"m 404 -185 m 404 47 m 188 -98 q 175 -69 175 -86 q 188 -40 175 -51 q 194 -33 190 -36 l 382 83 l 426 12 l 296 -69 l 426 -149 l 382 -220 l 194 -104 q 188 -98 190 -101 z "},"͕":{"ha":750,"x_min":297,"x_max":548,"o":"m 319 47 m 319 -185 m 548 -69 q 535 -98 548 -86 q 528 -104 533 -101 l 341 -220 l 297 -149 l 427 -69 l 297 12 l 341 83 l 528 -33 q 535 -40 533 -36 q 548 -69 548 -51 z "},"͖":{"ha":750,"x_min":110,"x_max":674,"o":"m 407 -226 m 639 -226 m 494 -9 q 523 3 506 3 q 552 -9 540 3 q 558 -16 556 -12 l 674 -203 l 603 -248 l 523 -117 l 442 -248 l 372 -203 l 488 -16 q 494 -9 490 -11 m 133 19 m 133 -212 m 349 -67 q 362 -97 362 -79 q 349 -126 362 -114 q 342 -132 347 -129 l 155 -248 l 110 -177 l 241 -97 l 110 -16 l 155 55 l 342 -61 q 349 -67 347 -64 z "},"͗":{"ha":750,"x_min":294,"x_max":457,"o":"m 294 1111 q 410 1061 363 1110 q 457 943 457 1013 q 410 825 457 874 q 294 775 363 776 l 294 853 q 353 880 328 853 q 378 943 378 906 q 353 1006 378 980 q 294 1032 328 1031 l 294 1111 z "},"͘":{"ha":750,"x_min":439,"x_max":594,"o":"m 462 881 q 450 893 462 881 q 439 936 439 904 q 462 991 439 968 q 517 1014 485 1014 q 572 991 549 1014 q 594 936 594 968 q 572 881 594 904 q 517 858 549 858 q 462 881 485 858 z "},"͙":{"ha":750,"x_min":215,"x_max":532,"o":"m 349 -129 l 396 -129 l 396 -269 l 349 -269 l 349 -129 m 349 58 l 396 58 l 396 -83 l 349 -83 l 349 58 m 497 4 l 530 -28 l 454 -104 l 532 -184 l 499 -216 l 390 -104 l 497 4 m 249 4 l 356 -104 l 247 -216 l 215 -184 l 292 -104 l 216 -28 l 249 4 z "},"͚":{"ha":750,"x_min":83,"x_max":665,"o":"m 437 -36 q 423 -49 437 -36 q 410 -101 410 -63 q 437 -167 410 -140 q 501 -194 464 -194 q 568 -167 540 -194 q 596 -101 596 -140 q 568 -36 596 -63 q 501 -8 540 -8 q 437 -36 464 -8 m 83 -101 q 131 14 83 -34 q 244 61 178 61 q 317 44 283 61 q 374 -1 351 28 q 430 44 397 28 q 501 61 463 61 q 617 14 569 61 q 665 -101 665 -34 q 617 -216 665 -168 q 501 -264 569 -264 q 430 -247 463 -264 q 374 -201 397 -230 q 317 -247 351 -230 q 244 -264 283 -264 q 131 -216 178 -264 q 83 -101 83 -168 m 180 -36 q 166 -49 180 -36 q 153 -101 153 -63 q 180 -167 153 -140 q 244 -194 207 -194 q 311 -167 283 -194 q 339 -101 339 -140 q 311 -36 339 -63 q 244 -8 283 -8 q 180 -36 207 -8 z "},"͛":{"ha":750,"x_min":240,"x_max":510,"o":"m 469 1001 q 498 989 485 1001 q 510 960 510 976 q 498 931 510 943 l 358 790 l 299 849 l 368 918 l 281 918 q 252 931 265 918 q 240 960 240 943 q 254 991 240 978 l 393 1112 l 447 1049 l 392 1001 l 469 1001 z "},"͜":{"ha":750,"x_min":203,"x_max":685,"o":"m 443 -62 q 463 -61 449 -62 q 627 30 543 -52 l 685 -30 q 473 -144 581 -133 q 444 -146 463 -146 q 203 -30 321 -146 l 262 30 q 443 -62 354 -62 z "},"͝":{"ha":750,"x_min":203,"x_max":685,"o":"m 443 924 q 463 925 449 924 q 627 1016 543 934 l 685 956 q 473 842 581 853 q 444 840 463 840 q 203 956 321 840 l 262 1016 q 443 924 354 924 z "},"͞":{"ha":750,"x_min":144,"x_max":656,"o":"m 144 938 l 656 938 l 656 853 l 144 853 l 144 938 z "},"͟":{"ha":750,"x_min":144,"x_max":656,"o":"m 144 1 l 656 1 l 656 -84 l 144 -84 l 144 1 z "},"͠":{"ha":750,"x_min":42,"x_max":718,"o":"m 71 789 l 42 818 l 125 901 q 154 914 138 914 l 300 914 q 329 901 319 914 l 481 750 l 593 750 l 660 817 l 689 788 l 718 758 l 639 679 q 610 667 629 667 l 464 667 q 435 679 447 667 l 283 831 l 171 831 l 100 760 l 71 789 z "},"͡":{"ha":750,"x_min":203,"x_max":685,"o":"m 446 933 q 426 931 440 933 q 262 840 346 922 l 203 900 q 416 1015 308 1003 q 445 1016 426 1016 q 685 900 568 1016 l 627 840 q 446 933 535 933 z "},"͢":{"ha":750,"x_min":93,"x_max":685,"o":"m 475 83 l 685 -80 l 475 -257 l 475 -129 l 93 -129 l 93 -44 l 475 -44 l 475 83 z "},"ͣ":{"ha":750,"x_min":258,"x_max":494,"o":"m 426 876 l 426 947 l 315 947 l 291 922 l 291 901 l 314 876 l 426 876 m 460 876 l 494 876 l 494 844 l 307 844 q 295 849 300 844 l 263 884 q 258 896 258 889 l 258 929 q 263 940 258 935 l 296 974 q 308 979 300 979 l 426 979 l 426 1025 l 403 1049 l 290 1049 l 290 1081 l 410 1081 q 422 1076 417 1081 l 455 1043 q 460 1032 460 1038 l 460 876 z "},"ͤ":{"ha":750,"x_min":266,"x_max":469,"o":"m 299 944 l 299 901 l 322 876 l 469 876 l 469 844 l 316 844 q 305 849 309 844 l 270 882 q 266 894 266 887 l 266 1028 q 272 1040 266 1034 l 305 1074 q 317 1081 311 1081 l 418 1081 q 430 1074 424 1081 l 463 1040 q 467 1028 467 1035 l 467 944 l 299 944 m 299 978 l 435 978 l 435 1022 l 411 1047 l 324 1047 l 299 1022 l 299 978 z "},"ͥ":{"ha":750,"x_min":355,"x_max":388,"o":"m 355 1110 l 388 1110 l 388 1076 l 355 1076 l 355 1110 m 355 1023 l 388 1023 l 388 848 l 355 848 l 355 1023 z "},"ͦ":{"ha":750,"x_min":266,"x_max":469,"o":"m 299 1024 l 299 901 l 323 877 l 413 877 l 435 901 l 435 1024 l 413 1048 l 323 1048 l 299 1024 m 272 1042 l 305 1077 q 316 1081 309 1081 l 421 1081 q 433 1076 427 1081 l 464 1040 q 469 1030 469 1036 l 469 894 q 463 882 469 887 l 431 849 q 422 845 428 845 l 419 845 l 316 845 q 305 849 310 845 l 271 881 q 266 894 266 886 l 266 1031 q 272 1042 266 1037 z "},"ͧ":{"ha":750,"x_min":256,"x_max":492,"o":"m 431 863 l 418 850 q 406 845 413 845 l 306 845 q 294 849 299 845 l 262 882 q 256 893 256 887 l 256 1081 l 290 1081 l 290 900 l 312 877 l 400 877 l 423 901 l 423 1081 l 456 1081 l 456 895 q 454 888 456 894 l 465 877 l 492 877 l 492 845 l 458 845 q 446 849 449 845 l 431 863 z "},"ͨ":{"ha":750,"x_min":263,"x_max":466,"o":"m 466 1081 l 466 1049 l 353 1049 l 296 991 l 296 935 l 355 878 l 466 878 l 466 846 l 348 846 q 336 850 341 846 l 268 917 q 263 929 263 922 l 263 997 q 268 1009 263 1004 l 335 1076 q 346 1081 340 1081 l 466 1081 z "},"ͩ":{"ha":750,"x_min":266,"x_max":469,"o":"m 469 838 l 351 838 q 340 842 344 838 l 271 910 q 266 922 266 915 l 266 962 q 271 974 266 968 l 338 1041 q 349 1046 344 1046 l 435 1046 l 435 1110 l 469 1110 l 469 838 m 435 870 l 435 1013 l 356 1013 l 299 956 l 299 928 l 358 870 l 435 870 z "},"ͪ":{"ha":750,"x_min":266,"x_max":469,"o":"m 266 838 l 266 1110 l 299 1110 l 299 998 l 340 1038 q 351 1040 342 1040 l 417 1040 q 428 1036 424 1040 l 464 1003 q 469 990 469 998 l 469 838 l 435 838 l 435 983 l 410 1008 l 358 1008 l 299 951 l 299 838 l 266 838 z "},"ͫ":{"ha":750,"x_min":256,"x_max":490,"o":"m 390 1024 l 390 844 l 356 844 l 356 1024 l 333 1047 l 313 1047 l 289 1024 l 289 844 l 256 844 l 256 1081 l 289 1081 l 289 1071 l 294 1076 q 306 1081 299 1081 l 340 1081 q 353 1076 347 1081 l 372 1054 l 394 1076 q 406 1081 399 1081 l 441 1081 q 453 1076 447 1081 l 485 1043 q 490 1031 490 1038 l 490 844 l 457 844 l 457 1024 l 434 1047 l 413 1047 l 390 1024 z "},"ͬ":{"ha":750,"x_min":253,"x_max":456,"o":"m 314 990 l 314 844 l 281 844 l 281 1030 q 276 1042 281 1036 q 263 1047 270 1047 l 253 1047 l 253 1081 l 281 1081 q 301 1070 289 1081 q 314 1047 314 1059 l 314 1037 l 352 1076 q 364 1081 358 1081 l 404 1081 q 416 1076 412 1081 l 451 1042 q 456 1030 456 1038 l 456 1013 l 423 1013 l 423 1024 l 398 1047 l 371 1047 l 314 990 z "},"ͭ":{"ha":750,"x_min":286,"x_max":456,"o":"m 388 877 l 394 869 l 422 869 l 422 836 l 388 836 q 376 841 381 836 l 359 858 q 354 870 354 863 l 354 1005 l 286 1005 l 286 1039 l 354 1039 l 354 1110 l 388 1110 l 388 1039 l 456 1039 l 456 1005 l 388 1005 l 388 877 z "},"ͮ":{"ha":750,"x_min":265,"x_max":500,"o":"m 440 863 l 426 850 q 415 845 422 845 l 314 845 q 303 849 307 845 l 270 882 q 265 893 265 887 l 265 1081 l 298 1081 l 298 900 l 320 877 l 408 877 l 431 901 l 431 1081 l 465 1081 l 465 895 q 463 888 465 894 l 473 877 l 500 877 l 500 845 l 466 845 q 454 849 458 845 l 440 863 z "},"ͯ":{"ha":750,"x_min":253,"x_max":492,"o":"m 372 939 l 287 854 l 287 843 l 253 843 l 253 861 q 258 873 253 868 l 349 963 l 258 1052 q 253 1065 253 1057 l 253 1081 l 287 1081 l 287 1070 l 372 986 l 458 1070 l 458 1081 l 492 1081 l 492 1065 q 486 1052 492 1057 l 396 963 l 486 873 q 492 861 492 868 l 492 843 l 458 843 l 458 854 l 372 939 z "},"Ͱ":{"ha":750,"x_min":79,"x_max":667,"o":"m 121 829 l 163 829 l 163 493 l 667 493 l 667 451 l 667 410 l 163 410 l 163 68 l 121 68 l 79 68 l 79 829 l 121 829 z "},"ͱ":{"ha":750,"x_min":79,"x_max":585,"o":"m 121 665 l 163 665 l 163 404 l 585 404 l 585 363 l 585 321 l 163 321 l 163 68 l 121 68 l 79 68 l 79 665 l 121 665 z "},"Ͳ":{"ha":750,"x_min":75,"x_max":667,"o":"m 75 829 l 667 829 l 667 450 l 583 450 l 583 746 l 413 746 l 413 68 l 328 68 l 328 746 l 158 746 l 158 450 l 75 450 l 75 829 z "},"ͳ":{"ha":750,"x_min":75,"x_max":586,"o":"m 75 664 l 586 664 l 586 400 l 503 400 l 503 581 l 376 581 l 376 68 l 292 68 l 292 581 l 158 581 l 158 400 l 75 400 l 75 664 z "},"ʹ":{"ha":750,"x_min":339,"x_max":424,"o":"m 339 915 l 424 915 l 424 661 l 339 661 l 339 915 z "},"Ͷ":{"ha":750,"x_min":75,"x_max":667,"o":"m 667 69 l 582 69 l 582 706 l 158 278 l 158 69 l 75 69 l 75 829 l 158 829 l 158 406 l 582 829 l 667 829 l 667 69 z "},"ͷ":{"ha":750,"x_min":75,"x_max":588,"o":"m 588 69 l 503 69 l 503 515 l 158 108 l 158 69 l 75 69 l 75 661 l 158 661 l 158 256 l 503 661 l 588 661 l 588 69 z "},"ͻ":{"ha":750,"x_min":79,"x_max":586,"o":"m 79 71 l 79 153 l 361 153 l 504 297 l 504 435 l 357 579 l 79 579 l 79 660 l 374 660 q 403 649 392 660 l 574 481 q 586 451 586 468 l 586 281 q 574 251 586 264 l 407 83 q 379 71 394 71 l 79 71 z "},"ͼ":{"ha":750,"x_min":79,"x_max":586,"o":"m 586 660 l 586 578 l 304 578 l 161 433 l 161 296 l 308 151 l 586 151 l 586 71 l 292 71 q 263 82 274 71 l 92 250 q 79 279 79 263 l 79 450 q 92 479 79 467 l 258 647 q 286 660 271 660 l 586 660 m 303 453 l 471 453 l 471 282 l 303 282 l 303 453 z "},"ͽ":{"ha":750,"x_min":79,"x_max":586,"o":"m 79 71 l 79 153 l 361 153 l 504 297 l 504 435 l 357 579 l 79 579 l 79 660 l 374 660 q 403 649 392 660 l 574 481 q 586 451 586 468 l 586 281 q 574 251 586 264 l 407 83 q 379 71 394 71 l 79 71 m 185 453 l 353 453 l 353 282 l 185 282 l 185 453 z "},"Ϳ":{"ha":750,"x_min":82,"x_max":589,"o":"m 82 322 l 163 322 l 163 210 l 224 153 l 361 153 l 419 213 l 419 746 l 335 746 l 335 829 l 589 829 l 589 746 l 503 746 l 503 196 q 492 167 503 178 l 410 82 q 379 69 397 69 l 207 69 q 178 81 189 69 l 94 161 q 82 190 82 174 l 82 322 z "},"΄":{"ha":750,"x_min":249,"x_max":500,"o":"m 290 663 q 261 675 274 663 q 249 704 249 688 q 261 735 249 722 l 428 903 q 457 915 440 915 q 488 903 475 915 q 500 872 500 890 q 488 843 500 856 l 321 675 q 290 663 308 663 z "},"΅":{"ha":750,"x_min":158,"x_max":500,"o":"m 290 847 q 261 860 274 847 q 249 889 249 872 q 261 919 249 907 l 428 1088 q 457 1100 440 1100 q 488 1088 475 1100 q 500 1057 500 1075 q 488 1028 500 1040 l 321 860 q 290 847 308 847 m 158 835 l 246 835 l 246 750 l 158 750 l 158 835 m 414 835 l 500 835 l 500 750 l 414 750 l 414 835 z "},"Ά":{"ha":750,"x_min":79,"x_max":661,"o":"m 165 339 l 165 68 l 83 68 l 83 538 q 96 565 83 553 l 342 817 q 369 829 352 829 q 401 817 389 829 l 650 564 q 661 535 661 553 l 661 68 l 578 68 l 578 339 l 165 339 m 167 417 l 578 417 l 578 518 l 371 726 l 167 519 l 167 417 m 121 860 q 92 872 104 860 q 79 901 79 885 q 92 932 79 919 l 258 1100 q 288 1113 271 1113 q 318 1100 306 1113 q 331 1069 331 1088 q 318 1040 331 1053 l 151 872 q 121 860 139 860 z "},"·":{"ha":750,"x_min":292,"x_max":457,"o":"m 292 610 l 457 610 l 457 456 l 292 456 l 292 610 z "},"Έ":{"ha":750,"x_min":79,"x_max":661,"o":"m 83 831 l 661 831 l 661 746 l 165 746 l 165 494 l 496 494 l 496 410 l 165 410 l 165 151 l 661 151 l 661 68 l 83 68 l 83 831 m 121 860 q 92 872 104 860 q 79 901 79 885 q 92 932 79 919 l 258 1100 q 288 1113 271 1113 q 318 1100 306 1113 q 331 1069 331 1088 q 318 1040 331 1053 l 151 872 q 121 860 139 860 z "},"Ή":{"ha":750,"x_min":79,"x_max":661,"o":"m 83 829 l 165 829 l 165 494 l 579 494 l 579 829 l 661 829 l 661 69 l 579 69 l 579 417 l 165 417 l 165 69 l 83 69 l 83 829 m 121 860 q 92 872 104 860 q 79 901 79 885 q 92 932 79 919 l 258 1100 q 288 1113 271 1113 q 318 1100 306 1113 q 331 1069 331 1088 q 318 1040 331 1053 l 151 872 q 121 860 139 860 z "},"Ί":{"ha":750,"x_min":79,"x_max":496,"o":"m 249 829 l 496 829 l 496 746 l 414 746 l 414 151 l 496 151 l 496 67 l 249 67 l 249 151 l 331 151 l 331 746 l 249 746 l 249 829 m 121 860 q 92 872 104 860 q 79 901 79 885 q 92 932 79 919 l 258 1100 q 288 1113 271 1113 q 318 1100 306 1113 q 331 1069 331 1088 q 318 1040 331 1053 l 151 872 q 121 860 139 860 z "},"Ό":{"ha":750,"x_min":83,"x_max":661,"o":"m 169 686 l 169 208 l 224 153 l 518 153 l 578 213 l 578 685 l 518 747 l 225 747 l 169 686 m 97 731 l 176 817 q 207 829 188 829 l 536 829 q 567 817 557 829 l 650 731 q 661 701 661 719 l 661 194 q 649 165 661 175 l 564 82 q 535 69 551 69 l 207 69 q 178 81 189 69 l 96 160 q 83 190 83 172 l 83 703 q 97 731 83 717 m 349 860 q 319 872 332 860 q 307 901 307 885 q 319 932 307 919 l 486 1100 q 515 1113 499 1113 q 546 1100 533 1113 q 558 1069 558 1088 q 546 1040 558 1053 l 379 872 q 349 860 367 860 z "},"Ύ":{"ha":750,"x_min":76,"x_max":668,"o":"m 414 515 l 414 68 l 329 68 l 329 515 l 89 757 q 76 786 76 769 l 76 829 l 160 829 l 160 803 l 374 592 l 585 803 l 585 829 l 668 829 l 668 789 q 657 758 668 769 l 414 515 m 121 860 q 92 872 104 860 q 79 901 79 885 q 92 932 79 919 l 258 1100 q 288 1113 271 1113 q 318 1100 306 1113 q 331 1069 331 1088 q 318 1040 331 1053 l 151 872 q 121 860 139 860 z "},"Ώ":{"ha":750,"x_min":78,"x_max":664,"o":"m 121 860 q 92 872 104 860 q 79 901 79 885 q 92 932 79 919 l 258 1100 q 288 1113 271 1113 q 318 1100 306 1113 q 331 1069 331 1088 q 318 1040 331 1053 l 151 872 q 121 860 139 860 m 660 156 l 660 72 l 433 72 q 404 85 417 72 q 392 114 392 97 q 403 143 392 132 l 581 319 l 581 607 l 438 750 l 304 750 l 161 607 l 161 319 l 339 143 q 351 114 351 131 q 339 83 351 96 q 310 72 328 72 l 82 72 l 82 156 l 208 156 l 90 272 q 78 303 78 285 l 78 625 q 90 654 78 642 l 257 821 q 286 833 269 833 l 454 833 q 485 821 472 833 l 651 654 q 664 625 664 642 l 664 303 q 651 272 664 285 l 533 156 l 660 156 z "},"ΐ":{"ha":750,"x_min":204,"x_max":546,"o":"m 336 847 q 307 860 319 847 q 294 889 294 872 q 307 919 294 907 l 474 1088 q 503 1100 486 1100 q 533 1088 521 1100 q 546 1057 546 1075 q 533 1028 546 1040 l 367 860 q 336 847 354 847 m 204 835 l 292 835 l 292 750 l 204 750 l 204 835 m 460 835 l 546 835 l 546 750 l 460 750 l 460 835 m 329 661 l 414 661 l 414 68 l 329 68 l 329 661 z "},"Α":{"ha":750,"x_min":83,"x_max":661,"o":"m 165 339 l 165 68 l 83 68 l 83 538 q 96 565 83 553 l 342 817 q 369 829 352 829 q 401 817 389 829 l 650 564 q 661 535 661 553 l 661 68 l 578 68 l 578 339 l 165 339 m 167 417 l 578 417 l 578 518 l 371 726 l 167 519 l 167 417 z "},"Β":{"ha":750,"x_min":83,"x_max":661,"o":"m 165 151 l 165 747 l 83 747 l 83 829 l 453 829 q 483 818 469 829 l 650 644 q 661 617 661 633 q 649 585 661 597 l 508 450 l 649 313 q 661 285 661 300 q 649 254 661 267 l 479 81 q 450 68 467 68 l 83 68 l 83 151 l 165 151 m 433 407 l 249 407 l 249 151 l 432 151 l 561 282 l 433 407 m 432 492 l 561 617 l 435 747 l 249 747 l 249 492 l 432 492 z "},"Γ":{"ha":750,"x_min":79,"x_max":667,"o":"m 164 68 l 79 68 l 79 831 l 667 831 l 667 746 l 164 746 l 164 68 z "},"Δ":{"ha":750,"x_min":81,"x_max":663,"o":"m 201 153 l 542 153 l 371 596 l 201 153 m 81 69 l 371 829 l 663 69 l 81 69 z "},"Ε":{"ha":750,"x_min":83,"x_max":661,"o":"m 83 831 l 661 831 l 661 746 l 165 746 l 165 494 l 496 494 l 496 410 l 165 410 l 165 151 l 661 151 l 661 68 l 83 68 l 83 831 z "},"Ζ":{"ha":750,"x_min":83,"x_max":661,"o":"m 660 703 q 647 674 660 686 l 167 179 l 167 153 l 661 153 l 661 68 l 83 68 l 83 196 q 96 225 83 213 l 576 719 l 576 746 l 83 746 l 83 829 l 660 829 l 660 703 z "},"Η":{"ha":750,"x_min":83,"x_max":661,"o":"m 83 829 l 165 829 l 165 494 l 579 494 l 579 829 l 661 829 l 661 69 l 579 69 l 579 417 l 165 417 l 165 69 l 83 69 l 83 829 z "},"Θ":{"ha":750,"x_min":83,"x_max":743,"o":"m 97 731 l 176 817 q 207 829 188 829 l 536 829 q 567 817 557 829 l 650 731 q 661 701 661 719 l 661 492 l 743 492 l 743 407 l 661 407 l 661 194 q 649 165 661 175 l 564 82 q 535 69 551 69 l 207 69 q 178 81 189 69 l 96 160 q 83 190 83 172 l 83 703 q 97 731 83 717 m 169 686 l 169 208 l 224 153 l 518 153 l 578 213 l 578 407 l 453 407 l 453 492 l 578 492 l 578 685 l 518 747 l 225 747 l 169 686 z "},"Ι":{"ha":750,"x_min":249,"x_max":496,"o":"m 249 829 l 496 829 l 496 746 l 414 746 l 414 151 l 496 151 l 496 67 l 249 67 l 249 151 l 331 151 l 331 746 l 249 746 l 249 829 z "},"Κ":{"ha":750,"x_min":83,"x_max":661,"o":"m 171 261 l 171 68 l 83 68 l 83 829 l 171 829 l 171 381 l 578 803 l 578 829 l 660 829 l 660 786 q 647 757 660 769 l 349 449 l 649 140 q 661 111 661 128 l 661 68 l 578 68 l 578 94 l 290 390 l 171 261 z "},"Λ":{"ha":750,"x_min":79,"x_max":667,"o":"m 583 68 l 583 518 l 371 729 l 163 519 l 161 68 l 79 68 l 79 538 q 92 565 79 553 l 342 817 q 369 829 352 829 q 401 817 389 829 l 656 564 q 667 535 667 553 l 667 68 l 583 68 z "},"Μ":{"ha":750,"x_min":83,"x_max":661,"o":"m 414 514 l 414 408 l 329 408 l 329 514 l 167 686 l 167 69 l 83 69 l 83 786 q 110 825 83 814 q 125 829 118 829 q 154 815 140 829 l 369 592 l 590 818 q 619 829 601 829 q 624 830 621 829 q 630 831 628 831 q 635 829 631 831 q 661 789 661 818 l 661 69 l 578 69 l 578 689 l 414 514 z "},"Ν":{"ha":750,"x_min":83,"x_max":661,"o":"m 83 69 l 83 829 l 165 829 l 579 406 l 579 829 l 661 829 l 661 69 l 579 69 l 579 278 l 165 706 l 165 69 l 83 69 z "},"Ξ":{"ha":750,"x_min":78,"x_max":661,"o":"m 78 150 l 661 150 l 661 68 l 78 68 l 78 150 m 164 490 l 592 490 l 592 408 l 164 408 l 164 490 m 78 829 l 661 829 l 661 747 l 78 747 l 78 829 z "},"Ο":{"ha":750,"x_min":83,"x_max":661,"o":"m 169 686 l 169 208 l 224 153 l 518 153 l 578 213 l 578 685 l 518 747 l 225 747 l 169 686 m 97 731 l 176 817 q 207 829 188 829 l 536 829 q 567 817 557 829 l 650 731 q 661 701 661 719 l 661 194 q 649 165 661 175 l 564 82 q 535 69 551 69 l 207 69 q 178 81 189 69 l 96 160 q 83 190 83 172 l 83 703 q 97 731 83 717 z "},"Π":{"ha":750,"x_min":74,"x_max":665,"o":"m 157 68 l 74 68 l 74 832 l 665 832 l 665 68 l 582 68 l 582 749 l 157 749 l 157 68 z "},"Ρ":{"ha":750,"x_min":83,"x_max":661,"o":"m 165 407 l 435 407 l 579 553 l 579 607 l 436 746 l 165 746 l 165 407 m 165 321 l 165 67 l 83 67 l 83 829 l 453 829 q 482 818 471 829 l 649 653 q 661 625 661 640 l 661 536 q 650 507 661 518 l 482 336 q 453 321 467 321 l 165 321 z "},"Σ":{"ha":750,"x_min":81,"x_max":661,"o":"m 661 829 l 661 746 l 210 746 l 504 449 l 211 153 l 660 153 l 660 69 l 81 69 l 81 139 l 388 449 l 81 758 l 81 829 l 661 829 z "},"Τ":{"ha":750,"x_min":83,"x_max":661,"o":"m 83 829 l 661 829 l 661 746 l 414 746 l 414 68 l 331 68 l 331 746 l 83 746 l 83 829 z "},"Υ":{"ha":750,"x_min":76,"x_max":668,"o":"m 414 515 l 414 68 l 329 68 l 329 515 l 89 757 q 76 786 76 769 l 76 829 l 160 829 l 160 803 l 374 592 l 585 803 l 585 829 l 668 829 l 668 789 q 657 758 668 769 l 414 515 z "},"Φ":{"ha":750,"x_min":75,"x_max":667,"o":"m 89 582 l 174 669 q 201 679 183 679 l 336 679 l 336 829 l 421 829 l 421 679 l 547 679 q 578 665 564 679 l 656 578 q 667 551 667 567 l 667 339 q 654 310 667 322 l 574 228 q 549 218 565 218 l 544 218 l 421 218 l 421 68 l 336 68 l 336 218 l 201 218 q 174 228 187 218 l 88 308 q 75 339 75 319 l 75 554 q 89 582 75 568 m 158 536 l 158 356 l 218 297 l 336 297 l 336 597 l 218 597 l 158 536 m 421 297 l 528 297 l 583 356 l 583 536 l 529 597 l 421 597 l 421 297 z "},"Χ":{"ha":750,"x_min":85,"x_max":661,"o":"m 369 390 l 168 178 l 168 71 l 85 71 l 85 194 q 97 224 85 211 l 311 449 l 97 678 q 85 707 85 690 l 85 831 l 168 831 l 168 724 l 371 508 l 578 722 l 578 829 l 661 829 l 661 706 q 649 676 661 689 l 429 450 l 649 222 q 661 193 661 210 l 661 69 l 578 69 l 578 176 l 369 390 z "},"Ψ":{"ha":750,"x_min":78,"x_max":667,"o":"m 78 826 l 158 826 l 158 496 l 218 438 l 329 438 l 329 826 l 414 826 l 414 438 l 526 438 l 583 497 l 583 826 l 667 826 l 667 481 q 656 453 667 464 l 575 368 q 544 354 561 354 l 414 354 l 414 151 l 499 151 l 499 67 l 244 67 l 244 151 l 329 151 l 329 354 l 200 354 q 171 367 183 354 l 89 449 q 78 478 78 460 l 78 826 z "},"Ω":{"ha":750,"x_min":78,"x_max":664,"o":"m 660 156 l 660 72 l 433 72 q 404 85 417 72 q 392 114 392 97 q 403 143 392 132 l 581 319 l 581 607 l 438 750 l 304 750 l 161 607 l 161 319 l 339 143 q 351 114 351 131 q 339 83 351 96 q 310 72 328 72 l 82 72 l 82 156 l 208 156 l 90 272 q 78 303 78 285 l 78 625 q 90 654 78 642 l 257 821 q 286 833 269 833 l 454 833 q 485 821 472 833 l 651 654 q 664 625 664 642 l 664 303 q 651 272 664 285 l 533 156 l 660 156 z "},"Ϊ":{"ha":750,"x_min":200,"x_max":542,"o":"m 249 829 l 496 829 l 496 746 l 414 746 l 414 151 l 496 151 l 496 67 l 249 67 l 249 151 l 331 151 l 331 746 l 249 746 l 249 829 m 200 999 l 288 999 l 288 914 l 200 914 l 200 999 m 456 999 l 542 999 l 542 914 l 456 914 l 456 999 z "},"Ϋ":{"ha":750,"x_min":76,"x_max":668,"o":"m 414 515 l 414 68 l 329 68 l 329 515 l 89 757 q 76 786 76 769 l 76 829 l 160 829 l 160 803 l 374 592 l 585 803 l 585 829 l 668 829 l 668 789 q 657 758 668 769 l 414 515 m 200 999 l 288 999 l 288 914 l 200 914 l 200 999 m 456 999 l 542 999 l 542 914 l 456 914 l 456 999 z "},"ά":{"ha":750,"x_min":79,"x_max":586,"o":"m 506 204 l 564 146 l 585 146 l 585 63 l 547 63 q 518 75 531 63 l 465 128 l 415 78 q 386 65 403 65 l 219 65 q 190 78 203 65 l 90 176 q 79 206 79 188 l 79 517 q 90 546 79 535 l 189 644 q 218 656 200 656 l 360 656 q 389 644 378 656 l 464 569 l 518 622 q 547 635 531 635 l 586 635 l 586 551 l 565 551 l 506 493 l 506 204 m 422 201 l 422 493 l 343 572 l 236 572 l 163 499 l 163 224 l 236 149 l 369 149 l 422 201 m 290 757 q 261 769 274 757 q 249 799 249 782 q 261 829 249 817 l 428 997 q 457 1010 440 1010 q 488 997 475 1010 q 500 967 500 985 q 488 938 500 950 l 321 769 q 290 757 308 757 z "},"έ":{"ha":750,"x_min":81,"x_max":589,"o":"m 589 72 l 225 72 q 196 85 208 72 l 93 188 q 81 217 81 200 l 81 258 q 93 288 81 275 l 175 369 l 93 451 q 81 481 81 464 l 81 524 q 93 553 81 540 l 196 653 q 225 668 211 668 l 589 668 l 589 585 l 243 585 l 164 507 l 164 497 l 251 411 l 422 411 l 422 328 l 251 328 l 164 242 l 164 233 l 243 156 l 589 156 l 589 72 m 292 754 q 263 767 275 754 q 250 796 250 779 q 263 826 250 814 l 428 994 q 457 1007 440 1007 q 488 994 475 1007 q 500 964 500 982 q 488 935 500 947 l 322 767 q 292 754 310 754 z "},"ή":{"ha":750,"x_min":79,"x_max":586,"o":"m 229 614 l 263 647 q 292 660 275 660 l 464 660 q 492 649 481 660 l 574 568 q 586 539 586 556 l 586 -90 l 507 -90 l 507 522 l 447 579 l 308 579 l 250 518 l 250 69 l 167 69 l 167 535 q 172 551 167 538 l 147 579 l 79 579 l 79 661 l 167 661 q 193 649 183 661 l 229 614 m 292 754 q 263 767 275 754 q 250 796 250 779 q 263 826 250 814 l 428 994 q 457 1007 440 1007 q 488 994 475 1007 q 500 964 500 982 q 488 935 500 947 l 322 767 q 292 754 310 754 z "},"ί":{"ha":750,"x_min":329,"x_max":583,"o":"m 329 661 l 414 661 l 414 68 l 329 68 l 329 661 m 375 754 q 346 767 358 754 q 333 796 333 779 q 346 826 333 814 l 512 994 q 540 1007 524 1007 q 571 994 558 1007 q 583 964 583 982 q 571 935 583 947 l 405 767 q 375 754 393 754 z "},"ΰ":{"ha":750,"x_min":76,"x_max":639,"o":"m 607 653 l 636 581 q 639 565 639 572 l 639 379 q 629 353 639 365 l 406 72 q 383 68 395 68 q 342 90 352 68 l 164 519 q 161 536 161 528 l 161 569 l 76 569 l 76 653 l 244 653 l 244 544 l 392 186 l 556 394 l 556 557 l 517 653 l 607 653 m 322 847 q 293 860 306 847 q 281 889 281 872 q 293 919 281 907 l 460 1088 q 489 1100 472 1100 q 519 1088 507 1100 q 532 1057 532 1075 q 519 1028 532 1040 l 353 860 q 322 847 340 847 m 190 835 l 278 835 l 278 750 l 190 750 l 190 835 m 446 835 l 532 835 l 532 750 l 446 750 l 446 835 z "},"α":{"ha":750,"x_min":79,"x_max":586,"o":"m 506 204 l 564 146 l 585 146 l 585 63 l 547 63 q 518 75 531 63 l 465 128 l 415 78 q 386 65 403 65 l 219 65 q 190 78 203 65 l 90 176 q 79 206 79 188 l 79 517 q 90 546 79 535 l 189 644 q 218 656 200 656 l 360 656 q 389 644 378 656 l 464 569 l 518 622 q 547 635 531 635 l 586 635 l 586 551 l 565 551 l 506 493 l 506 204 m 422 201 l 422 493 l 343 572 l 236 572 l 163 499 l 163 224 l 236 149 l 369 149 l 422 201 z "},"β":{"ha":750,"x_min":79,"x_max":586,"o":"m 149 253 l 268 139 l 425 139 l 517 232 l 517 392 l 403 504 l 149 504 l 149 253 m 149 157 l 149 -92 l 79 -92 l 79 778 q 90 803 79 792 l 193 900 q 217 910 203 910 l 415 910 q 439 900 429 910 l 544 794 q 556 769 556 783 l 556 653 q 544 628 556 639 l 461 544 l 575 431 q 586 406 586 419 l 586 218 q 576 194 586 204 l 465 81 q 440 69 454 69 l 254 69 q 231 79 240 69 l 149 157 m 149 574 l 392 574 l 486 667 l 486 756 l 400 840 l 231 840 l 149 763 l 149 574 z "},"γ":{"ha":750,"x_min":79,"x_max":585,"o":"m 79 653 l 163 653 l 163 546 l 336 208 l 501 546 l 501 653 l 585 653 l 585 536 q 581 517 585 527 l 378 107 l 378 -178 l 294 -178 l 294 106 l 83 517 q 79 536 79 525 l 79 653 z "},"δ":{"ha":750,"x_min":79,"x_max":586,"o":"m 211 663 l 467 663 q 497 649 483 663 l 575 561 q 586 535 586 550 l 586 194 q 574 165 586 178 l 493 83 q 469 74 485 74 l 464 74 l 206 74 q 178 83 191 74 l 92 164 q 79 194 79 175 l 79 538 q 93 565 79 551 l 142 615 l 94 658 q 82 689 82 671 l 82 757 q 94 786 82 774 l 149 840 q 178 853 161 853 l 461 853 l 461 769 l 194 769 l 165 740 l 165 707 l 210 665 l 211 663 m 163 519 l 163 211 l 222 153 l 447 153 l 503 211 l 503 519 l 449 581 l 222 581 l 163 519 z "},"ε":{"ha":750,"x_min":81,"x_max":589,"o":"m 589 72 l 225 72 q 196 85 208 72 l 93 188 q 81 217 81 200 l 81 258 q 93 288 81 275 l 175 369 l 93 451 q 81 481 81 464 l 81 524 q 93 553 81 540 l 196 653 q 225 668 211 668 l 589 668 l 589 585 l 243 585 l 164 507 l 164 497 l 251 411 l 422 411 l 422 328 l 251 328 l 164 242 l 164 233 l 243 156 l 589 156 l 589 72 z "},"ζ":{"ha":750,"x_min":81,"x_max":589,"o":"m 446 -93 l 446 -10 l 493 -10 l 506 11 l 506 39 l 481 69 l 304 69 q 275 82 288 69 l 94 254 q 82 285 82 267 l 82 443 q 96 474 82 462 l 410 754 l 81 754 l 81 838 l 519 838 q 550 824 536 838 q 561 796 561 810 q 547 765 561 779 l 165 425 l 165 303 l 321 153 l 500 153 q 532 138 519 153 l 579 81 q 589 54 589 68 l 589 0 q 583 -21 589 -12 l 553 -72 q 538 -86 548 -80 q 517 -93 528 -93 l 446 -93 z "},"η":{"ha":750,"x_min":79,"x_max":586,"o":"m 229 614 l 263 647 q 292 660 275 660 l 464 660 q 492 649 481 660 l 574 568 q 586 539 586 556 l 586 -90 l 507 -90 l 507 522 l 447 579 l 308 579 l 250 518 l 250 69 l 167 69 l 167 535 q 172 551 167 538 l 147 579 l 79 579 l 79 661 l 167 661 q 193 649 183 661 l 229 614 z "},"θ":{"ha":750,"x_min":79,"x_max":588,"o":"m 165 686 l 165 208 l 219 153 l 444 153 l 504 213 l 504 685 l 444 747 l 221 747 l 165 686 m 93 731 l 172 817 q 203 829 183 829 l 463 829 q 493 817 483 829 l 576 731 q 588 701 588 719 l 588 194 q 575 165 588 175 l 490 82 q 461 69 478 69 l 203 69 q 174 81 185 69 l 92 160 q 79 190 79 172 l 79 703 q 93 731 79 717 m 229 492 l 436 492 l 436 407 l 229 407 l 229 492 z "},"ι":{"ha":750,"x_min":329,"x_max":414,"o":"m 329 661 l 414 661 l 414 68 l 329 68 l 329 661 z "},"κ":{"ha":750,"x_min":79,"x_max":582,"o":"m 167 246 l 167 68 l 79 68 l 79 664 l 167 664 l 167 365 l 499 632 l 499 658 l 582 658 l 582 615 q 569 586 582 597 l 361 410 l 569 140 q 582 111 582 123 l 582 68 l 499 68 l 499 94 l 290 351 l 167 246 z "},"λ":{"ha":750,"x_min":68,"x_max":676,"o":"m 81 744 l 81 829 l 106 829 q 151 827 131 829 q 200 817 172 825 q 252 791 228 810 q 293 744 276 773 l 676 69 l 581 69 l 382 419 l 171 69 l 68 69 l 336 503 l 221 700 q 169 736 204 728 q 81 744 135 744 z "},"μ":{"ha":750,"x_min":78,"x_max":669,"o":"m 78 661 l 157 661 l 157 208 l 217 151 l 440 151 l 499 213 l 499 661 l 582 661 l 582 196 q 576 179 582 193 l 601 151 l 669 151 l 669 71 l 585 71 q 556 82 564 71 l 519 117 l 486 83 q 457 71 474 71 l 200 71 q 172 82 183 71 l 160 94 l 160 -186 l 78 -186 l 78 661 z "},"ν":{"ha":750,"x_min":75,"x_max":649,"o":"m 613 653 l 644 586 q 649 568 649 578 l 649 383 q 636 354 649 365 l 400 82 l 393 75 q 371 69 384 69 q 336 89 347 69 l 81 514 q 75 536 75 525 l 75 653 l 158 653 l 158 547 l 379 178 l 565 400 l 565 558 l 521 653 l 613 653 z "},"ξ":{"ha":750,"x_min":81,"x_max":589,"o":"m 456 414 l 228 414 l 165 351 l 165 219 l 232 153 l 500 153 q 532 138 519 153 l 579 81 q 589 54 589 68 l 589 0 q 583 -21 589 -12 l 553 -72 q 538 -86 548 -80 q 517 -93 528 -93 l 446 -93 l 446 -10 l 493 -10 l 506 11 l 506 39 l 481 69 l 215 69 q 186 82 199 69 l 94 174 q 82 203 82 186 l 82 369 q 94 399 82 386 l 149 453 l 97 496 q 82 528 82 509 l 82 629 q 96 660 82 646 l 183 740 q 200 750 191 748 l 215 754 l 81 754 l 81 838 l 519 838 q 544 829 533 838 q 560 807 556 820 q 561 796 561 803 q 552 770 561 782 q 531 756 544 758 l 232 672 l 165 611 l 165 547 l 226 497 l 456 497 l 456 475 l 456 414 z "},"ο":{"ha":750,"x_min":79,"x_max":586,"o":"m 163 519 l 163 211 l 222 153 l 447 153 l 503 211 l 503 519 l 449 581 l 222 581 l 163 519 m 93 565 l 178 653 q 206 663 188 663 l 467 663 q 497 649 483 663 l 575 561 q 586 535 586 550 l 586 194 q 574 165 586 178 l 493 83 q 469 74 485 74 l 464 74 l 206 74 q 178 83 191 74 l 92 164 q 79 194 79 175 l 79 538 q 93 565 79 551 z "},"π":{"ha":750,"x_min":81,"x_max":586,"o":"m 81 569 l 81 653 l 586 653 l 586 569 l 494 569 l 494 192 l 533 153 l 585 153 l 586 69 l 517 69 q 486 82 499 69 l 422 146 q 411 175 411 157 l 411 569 l 253 569 l 253 71 l 169 71 l 169 569 l 81 569 z "},"ρ":{"ha":750,"x_min":81,"x_max":592,"o":"m 164 238 l 167 240 l 246 161 l 354 161 l 508 314 l 508 417 l 354 569 l 236 569 l 164 492 l 164 238 m 164 125 l 164 -178 l 81 -178 l 81 508 q 92 536 81 527 l 188 639 q 217 653 197 653 l 372 653 q 401 640 389 653 l 579 463 q 592 433 592 447 l 592 297 q 579 268 592 281 l 400 90 q 371 78 388 78 l 228 78 q 199 90 211 78 l 164 125 z "},"ς":{"ha":750,"x_min":82,"x_max":586,"o":"m 586 653 l 586 569 l 307 569 l 165 426 l 165 303 l 314 153 l 507 153 q 539 139 527 153 l 576 96 q 586 68 586 86 l 586 -21 q 574 -50 586 -37 l 543 -81 q 514 -93 531 -93 l 446 -93 l 446 -10 l 497 -10 l 503 -4 l 503 53 l 488 69 l 297 69 q 268 82 281 69 l 94 256 q 82 286 82 268 l 82 443 q 94 472 82 460 l 260 640 q 289 653 272 653 l 586 653 z "}}}
